<mxfile modified="2023-10-04T18:52:01.741Z" host="app.diagrams.net" agent="Mozilla/5.0 (X11; Linux x86_64) AppleWebKit/537.36 (KHTML, like Gecko) Chrome/117.0.0.0 Safari/537.36" etag="FkfSRQtSVFwRd1QkO0jM" version="22.0.2" type="github">
  <diagram id="f106602c-feb2-e66a-4537-3a34d633f6aa" name="Page-1">
    <mxGraphModel dx="1051" dy="583" grid="1" gridSize="10" guides="1" tooltips="1" connect="1" arrows="1" fold="1" page="1" pageScale="1" pageWidth="1169" pageHeight="827" background="none" math="0" shadow="0">
      <root>
        <mxCell id="0" />
        <mxCell id="1" parent="0" />
        <mxCell id="uNIfuLAKSK_sfVtjGSBY-721" value="&lt;b&gt;Search&amp;nbsp;&lt;/b&gt;Node" style="fillColor=#F6F6F6;strokeColor=none;shadow=0;gradientColor=none;fontSize=14;align=left;spacing=10;fontColor=#717171;9E9E9E;verticalAlign=top;spacingTop=-4;fontStyle=0;spacingLeft=40;html=1;" vertex="1" parent="1">
          <mxGeometry x="230" y="100" width="200" height="430" as="geometry" />
        </mxCell>
        <mxCell id="14" value="&lt;b&gt;Detection&amp;nbsp;&lt;/b&gt;Node" style="fillColor=#F6F6F6;strokeColor=none;shadow=0;gradientColor=none;fontSize=14;align=left;spacing=10;fontColor=#717171;9E9E9E;verticalAlign=top;spacingTop=-4;fontStyle=0;spacingLeft=40;html=1;" parent="1" vertex="1">
          <mxGeometry x="500" y="100" width="370" height="430" as="geometry" />
        </mxCell>
        <mxCell id="711" value="Traffic monitor" style="rounded=1;absoluteArcSize=1;arcSize=2;html=1;strokeColor=none;gradientColor=none;shadow=0;dashed=0;strokeColor=none;fontSize=12;fontColor=#9E9E9E;align=left;verticalAlign=top;spacing=10;spacingTop=-4;fillColor=#E1F5FE;" parent="1" vertex="1">
          <mxGeometry x="520" y="260" width="340" height="100" as="geometry" />
        </mxCell>
        <mxCell id="705" value="Elasticsearch" style="rounded=1;absoluteArcSize=1;arcSize=2;html=1;strokeColor=none;gradientColor=none;shadow=0;dashed=0;strokeColor=none;fontSize=12;fontColor=#9E9E9E;align=left;verticalAlign=top;spacing=10;spacingTop=-4;fillColor=#FFF8E1;" parent="1" vertex="1">
          <mxGeometry x="260" y="145" width="120" height="100" as="geometry" />
        </mxCell>
        <mxCell id="713" style="edgeStyle=orthogonalEdgeStyle;rounded=0;html=1;labelBackgroundColor=none;startFill=1;startSize=4;endArrow=classic;endFill=1;endSize=4;jettySize=auto;orthogonalLoop=1;strokeColor=#4284F3;strokeWidth=2;fontSize=12;fontColor=#000000;align=center;dashed=0;exitX=1;exitY=0.5;exitDx=0;exitDy=0;entryX=0;entryY=0.5;entryDx=0;entryDy=0;startArrow=classic;" parent="1" source="uNIfuLAKSK_sfVtjGSBY-721" target="14" edge="1">
          <mxGeometry relative="1" as="geometry" />
        </mxCell>
        <mxCell id="706" value="Logstash" style="rounded=1;absoluteArcSize=1;arcSize=2;html=1;strokeColor=none;gradientColor=none;shadow=0;dashed=0;strokeColor=none;fontSize=12;fontColor=#9E9E9E;align=left;verticalAlign=top;spacing=10;spacingTop=-4;fillColor=#FFF8E1;" parent="1" vertex="1">
          <mxGeometry x="260" y="265" width="120" height="100" as="geometry" />
        </mxCell>
        <mxCell id="707" value="Kibana" style="rounded=1;absoluteArcSize=1;arcSize=2;html=1;strokeColor=none;gradientColor=none;shadow=0;dashed=0;strokeColor=none;fontSize=12;fontColor=#9E9E9E;align=left;verticalAlign=top;spacing=10;spacingTop=-4;fillColor=#F1F8E9;" parent="1" vertex="1">
          <mxGeometry x="260" y="385" width="120" height="110" as="geometry" />
        </mxCell>
        <mxCell id="2" value="SONIC Architecture" style="fillColor=#4DA1F5;strokeColor=none;shadow=1;gradientColor=none;fontSize=14;align=left;spacingLeft=50;fontColor=#ffffff;html=1;" parent="1" vertex="1">
          <mxGeometry x="230" y="40" width="660" height="40" as="geometry" />
        </mxCell>
        <mxCell id="695" value="" style="strokeColor=#dddddd;fillColor=#ffffff;shadow=1;strokeWidth=1;rounded=1;absoluteArcSize=1;arcSize=2;labelPosition=center;verticalLabelPosition=middle;align=center;verticalAlign=bottom;spacingLeft=0;fontColor=#999999;fontSize=12;whiteSpace=wrap;spacingBottom=2;html=1;" parent="1" vertex="1">
          <mxGeometry x="290" y="415" width="60" height="67" as="geometry" />
        </mxCell>
        <mxCell id="701" value="" style="strokeColor=#dddddd;fillColor=#ffffff;shadow=1;strokeWidth=1;rounded=1;absoluteArcSize=1;arcSize=2;fontSize=10;fontColor=#9E9E9E;align=center;html=1;" parent="1" vertex="1">
          <mxGeometry x="690" y="393.5" width="160" height="60" as="geometry" />
        </mxCell>
        <mxCell id="702" value="&lt;font color=&quot;#000000&quot;&gt;Torchserve&lt;/font&gt;&lt;br&gt;Inference service" style="dashed=0;connectable=0;html=1;fillColor=#5184F3;strokeColor=none;shape=mxgraph.gcp2.hexIcon;prIcon=bigquery;part=1;labelPosition=right;verticalLabelPosition=middle;align=left;verticalAlign=middle;spacingLeft=5;fontColor=#999999;fontSize=12;" parent="701" vertex="1">
          <mxGeometry y="0.5" width="44" height="39" relative="1" as="geometry">
            <mxPoint x="5" y="-19.5" as="offset" />
          </mxGeometry>
        </mxCell>
        <mxCell id="uNIfuLAKSK_sfVtjGSBY-724" value="" style="group" vertex="1" connectable="0" parent="1">
          <mxGeometry x="290" y="175" width="60" height="60" as="geometry" />
        </mxCell>
        <mxCell id="uNIfuLAKSK_sfVtjGSBY-733" value="" style="group" vertex="1" connectable="0" parent="uNIfuLAKSK_sfVtjGSBY-724">
          <mxGeometry width="60" height="60" as="geometry" />
        </mxCell>
        <mxCell id="689" value="" style="strokeColor=#dddddd;fillColor=#ffffff;shadow=1;strokeWidth=1;rounded=1;absoluteArcSize=1;arcSize=2;fontSize=10;fontColor=#9E9E9E;align=center;html=1;" parent="uNIfuLAKSK_sfVtjGSBY-733" vertex="1">
          <mxGeometry width="60" height="60" as="geometry" />
        </mxCell>
        <mxCell id="uNIfuLAKSK_sfVtjGSBY-731" value="" style="shape=image;verticalLabelPosition=bottom;labelBackgroundColor=default;verticalAlign=top;aspect=fixed;imageAspect=0;image=data:image/png,iVBORw0KGgoAAAANSUhEUgAAAXwAAAGkCAYAAAAyip6IAAAABGdBTUEAALGPC/xhBQAAACBjSFJNAAB6JgAAgIQAAPoAAACA6AAAdTAAAOpgAAA6mAAAF3CculE8AAAABmJLR0QA/wD/AP+gvaeTAAAACXBIWXMAAC4jAAAuIwF4pT92AABCsklEQVR42u3deZxddX3/8dfnnHOXubPPZA8JJCRhUVG0tCoKBJeftbhvCIpLf2KpYm2tWtv+tIotrWsVa92xQoCAEFDqLkPArVhEkU1CVkL2zD5zl3PO9/P7486EBLLMdufc5fN8PEbAGe58brjnfb/3cz7newRj6lxfz3wgGPsnRRBAURTwAAVADvyvHvRvK4J/0D858izA4eRIv0/xaGO36oHHFhwOOfC4cuAnD/3NB39//Hsenau3J/1HaOqETP8hjEmWCCyZ77NiScCyRQGfem/n2HfcgXAXlA0sZzlbfA/xwPlAWpF20GagTaAZpAU0DbRTPj4yQHbsARVIA00TKGsEiHj8HaQAlAAH0l/+ng4qjIIMAiOC9gMheE7RuIMhN0gzivD4m4AAKd776b088mjExu0Ru3tjVCdQkWl4FvimJvX1LAWiQwJdUJRAHJoCukC7BOkG7QLmAQuBucACoBvooBze46GepRzowdj/VykFIObxN4H82F9HgT6QfaB7gD3ADmAvSC/ofkX2C14/SORT0vjAmwFjbwaOztU7k/7PY6qUBb6pan09x1MO9kPbLErah3COIHNA5wAnACcCS4HFPB7o7WNf/qR+cXWJgAGgf+yrF3gU2ASyCfQxYK8ieyDuE8Q9fmjLWHPI0bl6V9LPwyTMAt9Ujb6exQfWquNS7KXEvA5B5wHzgVOBlcByYBHl1fp8yivyRnw9O8qfFHZT/jSwC9gAPAzyILBX0b0+waAjOuRfVDs/0HAa8QAxVaC3ZzkeRQ4O94CYiKCt3IKR5aBPB06ivHJfQbktk6G2V+uzJaLcKtoFbAQ2AfcB9wNbFHo9dFgPigAFlBJdq/clXbupEAt8Myv6epZQPokK49ECfgCunXJv/XTgacApwMmUV+5NWLjPpJDym8BO4EHgfpB7Qe8FdjkY9MqfGMYIjhRdq7ckXbeZIRb4pmL6exbzeH4IMZ7vo63AiaDPoBzyzwKWUe6zZ6f0i8x0jJ0oZgNwD/Bb4HfAZvCHIXblwVIAocCzWLD6O0nXbKbIAt/MqL6eNqBl7IXlAC8LegLI04A/GftaAczh8eF4Uz1KwF7gD8D/gPxa0d8JbBdcSfFQoHP1jqTrNFNggW+m7eCTrXn6ydLRLeXWzHOAs4CnUD7BWslRR1MZeWA7cC+wHvgfhYcjRvtT5IDyfGm3vQHUBAt8MyV9PYsOvHgiAgmIjxs7yXo28DxgFdCVdJ1mxu0GHgbuBHqA+z3YOd64U3w6Vz+adI3mCCzwzYSVe/LlqRqFQGAJ5RbN6rG/noT14RvJCPAA8DNgPchvYjKP+RQcYK2fKmSBb46q3K4ZH530fYgXAn8EnAecSXkePp10nSZxBcp9//XAD4B7QtidGlshKELn6seSrrHhWeCbJ+nrOY7xEcqAiIhgDuVpmpcA51I+6ZpLuk5TtYYpj33+FOSHiv7Wx/U7PKC8AZ1d9ZsMC3wDwP6ek/AYGtuZRXFIVspXtb4Y+FPgGUBb0nWamtML3A18D/iJIBsUiuVRT2UvO1i5OukSG4cFfoOb3+Xz0I0LERwlnKTxFgPPB15J+eTroqRrNHXBUZ72uR1YB/KzkHhfCh8FTnzFTnoH3bR+gTk2C/wG9WhPmlbmjK3m/Yzgnga8DHgFdvLVVNYI8HvKwf9Dhfs9NFKEDuvzV5QFfoMZPwk7tq3wXEWeD3o+5dX8wqTrMw1nG/Bj4CaQX4L2gY13VooFfoMY6FmEAkO00srQSuClwGspn4ydyA09jKmkIeB/gOsVvp9idHtEDmzVP6Ms8OtYb88SPBxjNwjJKPIU4DVjXythbGzCmOoRUt7V8ybgRvA2gIsAOmymf9os8OtQX88SZCzowcuBOx14C+VV/eKk6zNmAhzlbZ2/C3Ktwu8FLQLE+HRbu2dKLPDryMHz84qXE/R5oG8FXkj51n7G1KLHgO8D/6XIXYKWxvfxt4u5JscCv0709RyH4FBoFuR5oG8B/g+2n42pH7uB7wLfHAv+0K7gnRwL/Br3eNB7TWMr+ndQXtF3Jl2bMRWyG7iVcvD/jwX/xFng16j+noWUr1X0coKeCfo2bEVvGsseysF/peLdNb5fv92n98gs8GtMX89CBEHQtCJnAO8E/gwLetO49gBrQb6pePcKcWTBf3gW+DVi/IKpmNjz8U8D3g68HpifdG3GVIltwBrgynZ2bBhgkW3R/AQW+FVuw3Wr6OzO0xKMUCC7DLiI8ojlsqRrM6YKOeB+4EqFaz1kV3lz7xQddjN2C/xqte2mZYRxisJgmuNO7J2jyqsot29Oxy6YMuZYQspX7n4R5FaIhxTBkaG7gYPfT7oAcyhP4L5rnkpc8glSrhXh9c7Jv6bT8TtEWIq9SRszET6wlPI9HE4C2a3IYwGxKvDz35WSri8RFh5VZuN1K6ElEB2Kz4ydvNc576WCNmVzIa1tRfzAtpA1Zgp2AN8C+bLAFkUbcqsGC/wqsWntSorFgEwmWhJG/iXqeJuqLDj4Z9KZmNb2AulMlHS5xtQiBe4BrqC8V89go53UtcBP2LZ1KyiM+qTTcXMY+q9wTv7aOfmjI/287zta2os05UqI/dczZipGgVtBPhujd/ngYmK6V+9Ouq6Ks5N/CXpk7Sqe9arz8Hx9erHkfzGOvS8fLewB4thjsC/L8GAW5yzxjZmCHPB60Ot8+CDoAp+Avp76v7mbJUYCNl2/kjgW/MB1xKF/YRzLpapy0mQfJ5sLaW0vEFhf35ipiijfdvFfFe4QCOu5zWOBP4se++6JFPKw4LiC7Nza/MzYef+gTl6qSmaqj1nu6+dJZ+Kkn54xtWwncCXwZYFtrk735rGWzixRhZHBABHadmxpuTSKvetdLK+aTtgDlIo+/b058qOppJ+iMbVsIfBBYI3Cnyoa9Pcs4oxT00nXNaNshT8LHll7EsN9KVo7SqdFsfd36uTV0w36J/I8paWtSK6laCdzjZmePcB/Av8psFvx6aiTG65YNFTYhmtX4Qfk4kguiCN5v6qsqtTvElFyLSVa2op4nib91I2pZTHwU+CfheydUNT2OmjxWOBXyCPXrSCOAoJUtDyO/A84571JlebZ+N1NuZDWjgK+bydzjZmm7cBnBPm6ooO1vu++BX4FPHLtKoJUGISl1Auc8y5zTs6Y7Roy2Yi2jgJByk7mGjNNReBG4J/TRA+USNFRo6FvgT+DNn97BXHk4XnaHkXeu1153DKx7YtT6Zj2zjyptIW+MTPgt8Bliv9dwYUQ0LF6a9I1TYoF/gzZfOMJDOxvobW9dGoUef+oTl6rSuKjM0Eqpq2jQCZr2zEYMwP2Ut6B8wqI9yt+TbV4LPCnqTXn8btvriDbPOyNDLS+1Dn5uHPy9KTrOpgfONraC2RzYdKlGFMPQmAdyMcC4vsdHm01cqGWBf40PXzNKlIpbQ1L3judkw+oytykazocz1fa2vM0NVvoGzND7gE+6sF3Y8TVwkrfAn+Ktt54IoV8QCoVHx9F/ked886f6dn6meZ5Skt7gVxLyf7DGzMz9gKfUOTLHjoUchxzVt+VdE1HZMf9FGy8dhW9+1romDtypovkX5yTs5KuaaLEU1rbi+Sa7QItY2ZIEbgauAzc1mru69shP0kb164gEAlKkbw2dt4/q5PlSdc0WTJ2VW5zSwkRu0DLmBmgQA/IB3ziux0+1XihlgX+BPV+dwm9I1l837WVSsEl6uT9qtKddF1TJQLNrUVa2ooW+sbMnAeBD3l4tzo0rrZ5fQv8Cdh284kMD2ZIZ8IFLvI+GjvvIpRs0nVNl4W+MRWxC7gM5ErQvMOja/X2pGsC7Cbmx6SlFrb+ch65bHhSHHufd7F3PiQ/Xz9TwlIAlLdZtp6+MTOiBTgLyCnyG4+4cONtBXoHk9/qxA7xo9hy4wr6d7XQ0p1/ThTJp9TJc5OuqRJspW9MRYTANQofFtgWspS5q3+VaEG2H/4RbFm7guOft5uW7tGXRZF8o17DHsb26h/KMDyYQdXWAMbMkBRwkcBXBJ6aYhN9PYsTLciO7sPYdP1KMkEcjBRSb3JOLlcnC5KuaTaIQEt7gebWor0wjJlZvwZ5b4HMLzKU6Eyop2/H9RNsvH4lQRA3FQupd7pYPqIqHUnXNJtsTt+YinkIeF9M+vseoSYxq2+H9EE2X78SCVxbqRD8rYu9v5mt/eurTTn0CzS3lJIuxZh6swX4e4d/vUccd8zyHjwW+MBjNy+jWPLxhe5iyf9I7Lx31MPY5XR4ntLWmafJNlwzZqbtAj4Eeo0gpfZZDP2GP2nblvPIF9IAc0uh/69x7F3S6GEP4Jww2J+lkK+bCVRjqsUC4NMglwKZgZ5Fs9Y+bfgV/sbrVoGwMIq8z7pYXotdm3AIP3C0d+ZtP31jZt4gcJnAFxQKs9HeaejA33jdKjxPjwtD7wtx7L280f88jiRIxXR02Z2zjKmAYeAK8P4F3HClQ79hA24s7JdEkfcfUeS9LOl6ql06E9PeNUoQJH+1oDF1pkg59D8KOlzJ/Xcasoe/aa2F/WSVij6D/U3EcUO+ZIyppAxwKbgPg7T2V/DirIY7ejetXYmIhf1UFPMBQwMZnGvYD4bGVMp46P9jJUO/YY7cHbcuozASIMJxUeR9MYq88xrp+c8YgRbbd8eYSikAnwf5OOjQTPf0G2KFn00LwwNpRFg8trK3sJ8qhZGhNKPD6aQrMaYeZYH3gP4D0DTQs2hGH7whAv/Bq0/E93V+GPqfiyKbxpkuVWF4MGMz+sZURha4FHg3Y3P6M6XuA//ha1fh+647juVf41helXQ99cI5Yag/S6lkly0YUwE54B+1HPyZmdpls64D/5G1KwkC11kopD4ex96b6v35zrYo8hjqbyKO7I/VmApoA/6fwtsV8ft6jpv2A9btkbr5+hWk0nFzFPofiGPvbUCQdE31qFT0GRrI2uSOMZXRBvyTh3uj4sl0V/p1Gfh/uPZkUqkoVRhNvTuOvUspjzyZCsnnU4wMZVAb2jGmEuYBl3tEf6og/dNY6ddd4G++4USceN5oPvN2dfIhGnSL41mlMDqcpjBqkzvGVMhxwL976PPb2c5UT+TWVeCrwgV/8QUCjV/jYvm4qrQnXVOjcK48uVMq2klcYypkJfDpQRadFuFoyU2+jVpXjdffXnEaLXML50aR93V1ckLS9TSidCaioyuPb3vuGFMpPwYuBrZM9sKsugn8P6w5Cd/Xp0WR90118syk62lkuZYSbR0FuxLXmMpwwA2KXCqwdzKbrdVFS2fj2hUEvjsujrzPWNgnLz+SYnTYLsoypkI84LWCfkjR3GT6+TUf+OVtjumKY+9y5+SFSddjxq7EHcpSLNgkrDEV4gPvFHiXQGqiM/o1HfjbblyO77tsWPL/JnbeG5KuxzzOxeWTuHZRljEVkwP+zsGrHCnp71lyzH+hZo/GTd9eRUfniISh/ybnvHehWA+hypSKAcNDGVTr5lSRMdWmC/hnn+JzUwzTe4z2Tk0GfjYt7L5P2b27/UWxk4+q0pF0Tebw8iMp8qP2XmxMBa0ALg9pWu4dI9Jrcun10DUnE/juKVHoXa1OnpF0Pebo/MDR2T1q98Q1pnIccM3Y5E7/kSZ3am6Fv2ntSjJB1O0i+biFfW2II4/hQbtTljEV5AGvF/SvQNJH2nOnpgL/ketWkU67dBj573fObk9YSwr5FCN20xRjKikN/BW411Ke4nmSmgn8nf+9HA0DRkeD17nY+wtV7Br+GjM6nLFRTWMqqxO4FNG5h/tmzQT+99bOQ1LRs53Kx1SxPXJq0IFRzbhmXnbG1Joh4FpF9h/umzWx3Np0/Qqc7l8QR/7H1MnypOsxU1cqBowMpWnrKCRdijH1pgBcofA1lPBwP1D1Sy39bRbxaHKR934Xy7lJ12OmLz+SppivibWGMbUiBv5L4BPAaFetTunc+ePTiUr+K53z/hysb18PnBOGh6y1Y8wMccA1IB8BBjqPsoNmVc/JPXTVqaRS4TPC0F+rKquSrsfMrJbWIq3thSp/FRpT9b4LvBPYeaztkqt2xbzlhhWI5zqjyPusqndm0vWYmRdFPql0TGB75xszVd8H3gPy6ET2xq/Kz9Tbb1lGKhX7cez9har3Z0nXYypjvLXjYlviGzMF3wfeDWya6J74VRn4o8MZRkdTZ7lY3q22KVpdKxUCRkfsgixjJsEBtwCXCrpJJ9ETrbqWzqbrV+IFOj+O/CtU5WlJ12MqL4490pkY37c7ZBlzDDHlE7R/Leg2h0dnrd7xqqPFx/c0FZW8dzsnz0+6HjM74sizbZSNObYi8BWQ94PuiPEnFfZQZfMRm9aeROz0pXHkXaUqXUnXY2aPiNLeWaCpuZR0KcZUoyHgcwKfUBia7M3Lx1XN1S8b164EdLGLvb+3sG88qsLIcJp0JsK3qR1jDrYHuEyRrwpanGrYQ5W0dPT3aTxfgyiSS5yTZyddj0lGWPLtBK4xh/oD8BcO+U+g2D6NsIcqCfz77zqZOPRXOyfvoApPJJvZkx9JUSraS8A0PAV+AlwE0TqBeLL9+sNJ/MjacsMKUplwXhT6n7GpHKMqoEKmKUKq6gyTMbNmFLgS+FsPfVAJJn1y9kgSX+GnUrEXlvy3OJWzkq7FVIdCPrDN1UyjehT4oCLvAx6N8ZjoRVUTkehRteXGleTz8gzn5F0o1rw1wEEncLMRnmez+aYhOOB24KOO4GcesZvOydkjSWyFP3THfIBc7Ly/UZXjk6rDVKdSMSBvJ3BNY+gFPq3wFuAOIXYzuao/WGIr/LvWn8jSFfvPUyevTKoGU91GR9JkmkLbXM3UKwV+AXzSwfc8NOxYvbOivzCR02IPXX0K6XS4KCwFNzknf5JEDaY2tLSNbaFsTH3ZDVyp8J8C2xTorEAL54kSWeHn2mKvMOz/uXNyRhK/39SO/EiKbFNIKh0nXYoxM6EE/BT4lMIdAlElevVHMuuBv+WGlZRGOd3F8n+pgikhU93i2GN0JE1bKm9jmqaWKXAf8CWQtUq8HzziWW6yzGrgb75pJeK0yTnvXaqydFafqalZhXyKplxIOhMlXYoxU7EduAb4ejtdDw/Qh5CiY/Wjs17IrL69qMLGtavOi0LvKlXpmPVna2pWUy6kvSuPiI1pmpqxD7gR5EpF7xaIFKWzwidmj2bWVvh6v88ja1d0uVjeZWFvJqtQCGgq+mSytso3VW8/8D3KJ2V/IWhRgNns1R/JrAX+tZ9/OWec/cCr1Mk5ST9pU3vUCaMjadKZ2Fb5plrtAG4FrlXkV4IWoDqCftysBP62m04gDO9bFIX+O1XJJv2kTW0qFgJKtso31SUGHgG+A3KD4t0jxBFUV9CPm5XAz2ZLUixk3uicnJ70Eza1y1b5pooMAPcANyp834fNDhxoVQb9uIoH/tYblzM05K+Inbx9Nn6fqW8lW+Wb5JSALZS3Lf5v4Jc+YV9ECgc4hK7V25Ou8agqHsCZbElKA7mL1MnJST9ZU/ucrfLN7CpR7s3/ArgN6KG8o2UIEJGesa2LZ0NFA/+RtScxMuxOds57I3aRlZkhtso3FTa+kv8N5dX8zxS3VfAO7PFRzW2bo6lo4KcysRRGgrc6Jycm/URN/XBOyI+mSGfsJilmRsSU97bZQLkvvx74veK2C16x/COCI6Jr9Z6ka52WigX+A988lVIhfoo6eUPST9LUn2IhRVgqkc7YHjtm0oaBncBW4PfAr4EHFLYKXn95a3oAqdmV/JFULPCzraEfFvy3qGJ73ZsZ52IhP5omlbY9dsxhRcAQ5WmaAeAxyjcEfxDYBGxT/O0ZyJd4fNHgKNK1em/StVdM5Vo6juOBZ4todZ+2NjUrLPq42MO3/fIbjQMKlDckG6V8ZesQ5a0M9gB7Kbdo9iiyC2SXoCPgQkGdHjidKORWb0v6ucyqigV+riXc6+LoYlU7WWsqQ+TA/2DzOg0lEnQfjE1DIjEQOzSKSUVpSqpP2iZMKffhfaCVztUPJv0cElHJk7ZDqvKg2pFoKkbBRjMNAOWID4hweDU1KmmMMcYYY4wxxhhjjDHGGGOMMcYYY4wxxhhjjDHGGGOMMcYYY4wxxhhjjDHGGGOMMcYYY4wxxhhjjDHGGGOMMcYYY4wxxhhjjDHGGGOMMcYYY4wxxhhjjDHGGGOMMcYYY4wxxhhjjDHGGGOMmQUykR9a8Nq/ZOG3v8gCIE66YmMmwAfu/+Oz2fXeb5Rf5Zp0RQ1i7M9a9AnRooIIFC5clnSFDS2Y0E/5qdy+M1/yuv0uXoQdOqYWuFjyTz17RAiGiG2ZMquECNgDFIEhYESgD+jLXL2pdPAyUxEcENkbwaw4ZuC3XPEL/Js/88xg3/bPeIXhLmRCHwqMSZaLCecvQ8K8apDB1imzzgERMAAMqeh+YC/CVuAPKPchPArsDnCD/ppNIKAKpQuXJ1173Tpm4EcLV0jQt+s0r5TvAsr/RYypekJq10a8kQGJO+bb63b2+WNf88a+Tjzoew6hCOwU9GFF7gV+DtwL7Mis2VQq/5jgpYX8605I+rnUjWMGftstnwlQ90KcfSw2NUQg6N9DsP8x4s75tsCvLh7QBCwf+3oJMIqyXeCXwG3Az1B51JVcmFmzCeeE8M3W9pmuYwZ+au+2uf5w30lJF2rM5AhSKpDe/hDFFc9MuhhzbDlg1djX+cBWxP0UuBXkF0E67veu2YQCpQus5TNV3tG+mfvir/BGB88AltkSydScOCS1cyNEYdKVmMnJUA7+S4BrQG9wkXcxsNQvKulrNiVdX806auDjB16wf8cqCYtNE5zgNKZ6iBDsexR/uA/Em/7jmSS0Ay8EvoBys0vLewWWZq/aSObqjUnXVnOOehS0rb+uSdPZF6Au6TqNmTzxCPZtxx/Yi02X1bwUcDrwaZSb1ZP3ILIgs2YT6TW24p+oowZ+auvv272hXmuYmZrlhQVSuzfblE798CgH/6eAtcDrgebMmk1kr9qcdG1V74iB3/GhK9FM7tmgi5Iu0pgpiyPSOzZg56DqTgo4C/iqwBdRTg+KgaTXbIIrdyRdW9U6YuBH3YsltWfrKomj5qSLNGbKVAn2bUeKo9h5qLrUBlyEsDZsCv9CoS2TLpC6yto8h3PEwM/df2eL+qkzcVHSNRozdSL4fbvwB/dZH7++rQQ+5cHnUTkpk4HUGmvxPNERAz/z8K9bJCycYqsiU9PEwx/YS9C/xwK//uWAtyB6VRjyUvC8zBqb5DnYEQNf/WClFEa6ki7QmOmSqESwdxs2bdYwzgC+6hG/G8hlbG7/gMMGfve7PolE4RmItCddoDHTpo7Uni02qdNYFgGXg3xMHV0ZG90EjhD4GmT8YP9jSyWO7GoVU/vGT9yGxaQrMbMrB/yVCJ9TWGKhf4TAT+3d2q2ZpjNw9hHY1AER/IF9YydubQ3TYALgTQL/rrA0vWYTrNmadE2JOeyrP73pnlYpFU6wk1ymPgje6MDYFgv2mm5QrxL4LLAkS4y/ZkvS9STisIEvTpd6xZHWpIszZkaI4I0O4vftSroSkxyhHPr/7mBJWmL4XOOt9A/fw880nani5ZIuzpgZo0qw/zHsvg4NbTz0P+tUFmbnN95r4UmBfxrg9+5cLM5Zs9PUESXY9yhigd/oBHg1cJk62jNXN9bFWU8K9V1v/cd2icPlqB0Ypo6oEvTuhLCUdCUmeQK8BeV9QCZ7TeOE/pMCP9j/2HyC9Crba8rUlfE+/oiduDVAeXrnrxB9s3gimTWPJF3PrHhS4Ke3PdAmhZE5dlCY+iJ4+WH8AdtTxxzQBvw/59yZSjrpWmbFkwLfZZtXSVTKJF2YMTNKBCmO4A33YvtDmYMsRbkMooa4MOtJga9B5hmIl0q6MGNmmoSl8grftlgwhzpL4K9Rmuo99A8J/Plv/iD+0P5FdkCYehX074LYbmpuDuEBb0M4LyBIupaKP9EDVLyMNzrQabsKmnrl9+9BYrvHg3mSDuADEdHyet5S+ZDA9/NDSzSVPdFW+KYuCfiD+8YC3/r45kmeCVxC+faJdenQwO/fPQdYkHRRxlSKNzpQvt2h5b15Mg94M8hz67WXf0jgBzs3ZqWUz9nYmqlPgoRFfJvUMUc2H3i3itTlXmKPB35RwQsWSRT6SRdlTKVIWMQbGbC8N0fzElF9YbYO74n7eOCnwTV3PBXB9tAx9UnKo5neyACW+OYoWoA/B9rqrbVzINybvn2Xh4uOT7ogYypnrKUz0oda29Ic3TmKnit1tjA4EPjt131LvJF+u2m5qXOKN9xvo5nmWJopr/Lrqpd/IPC94X0pb2QgZyOZpt55o4OIXXxlju15ij43+Fb9tHUOBL5rnbOAVGYOtk2mqWvl2x1is/jm2DqA1+PVz1z+4yv84uhc9fwuy3tT12R8hR9Z3puJeIEPJ9XL9smPB35+qAO0rvpVxhyONzo0tsI35piWILwItC6WB48H/lBvk8RxxlY9pr4JXmHYTtqaifKAl4JfF4vhcuCrEuzd5ktYCOxzrql34mK8wjD2WjcT9AwVTmPNtqTrmLYDK3zN5LptQsc0BBcjpULSVZja0SXKc9Dab+uMB77ErV0nJl2MMbNB4qg8qVPzh6+ZJR5wdsaLWpIuZCaeCO2fvNlHvHl2BJi6J4A6JCwlXYmpLU9HZVHSRUyXB5DaudMT1c6kizGm8gTiCC8/iC1wzCTMAc5IX1PbG6p5AMH2B4Ww2GYXXZlGILbCN5OXBZ7hxKvpVYIH4A/3icRRNulijJkVTpHItlYwk3ay7+KaHs8sB37vDpFS3rZFNg1B3HhLx5hJORnoTrqI6Sj38HdtxMsP1c1+EcYclSqootbDN5MzD6jpE7flVb1zSddhzKwSFyFqr3szKRlgVdJFTIcHkD/1zC71g+akizFmNqgI3ugQEtmJWzMpKWB5UMO3PvQANNM8Fz/ValM6pmGoo/x6t7aOmTABjqOGXzQHrrRNuhBjjKkBczylKekipsomc4wxZuLaRTSXdBFTNRb4CrbKN41E1TqYZipaBa3tFb4XlroRsZO2pkFI+a5XUcmWOWayOhSp7RW+uKgJkXTSxRgzWySOxk7cGjMpPjXcCq/Zwo2ZFrGlvWk8FvjGGNMgLPCNMaZBWOAbY0yDsMA3DcpmMk3jKW+tIH4eVdtYxDQIxaWaUC9IuhBTeyKgZse7PACXzu5HdTjpYoyZLZrNQRDYQt9M1gDoaNJFTJW1dIwxZuKGBMknXcRUWeAbY8zEDeCk5lf49sHWGGOObRdKba/wvcLwXuJwyDYWMQ1DhPLr3dY6ZsIU2IbU7ovGA2i6/85eiaORpIsxZjaIKnGuHU3Z9lFmUkJga+HNy5KuY8rKY5lBJuk6jJldnm83MTeTVQQeTrqI6fAASktPUdfcYXP4xhhzZDvHvmpWeQ6/pQsN0jXblzJmMtQPcLk2W9+byXoIYX/SRUyHBxB1LlAN0tbDN43B89DA+vdmUhR4wEunajonPYB4wYlKKj1iUzqmESiC+qmkyzC1JQ/cjbqa7oSMBX6nQ7XXRtRM/VMIUrjmNuz1biZhH3Bv/nXHJ13HtHgAfe9/Q6yqe5IuxpjZIeDbxmlmUn4L7Ei6iOk6cKWtP9K3KelijKk4LZ+0jXPttsA3ExUD653n1XT/Hg7aS0fC4n48zw4BU/88H03ZtSdmwvaqsJ46WCKUA1+EaM5xkaYycR08J2OOqjyW2Y691s0E3Y3yUPjGE5KuY9oOrPBdc2dePb9ox4Cpb4qms9bDNxMVAf/tl4Ka3SHzYI8Hfq5tAGQo6YKMqTTX1Ipa4JuJ2Spwm2h9LIUfD/x0ZrfE0b7yLoLG1CktB76t8M0EfV9FNo6+fWnSdcyIA4Hv79u+izjcm3RBxlSW4nKt5fvZ1sWazVRQL3ATaJR0ITPlQODHC1fErrmjYCt8U+9cU9tYS8cS3xzVekF+WbxgedJ1zJgDgT/wxgtUm1p7ky7ImEpzzR3lG5gbc2TDwH8BhaQLmUkHAj//4mc59YOtSRdkTEX5AXFzu+2Fb46lB9XbChfW7s1ODufxm5j3gzfcdy/gki7KmMpQNEjb1sjmWAaBr6UCrbupxccDf4GgfrBLg3TdnKAw5hDKWODbRVfmqL4L8tPhvJ90HTPOO/gfovnL8prODqN2MJh6pGgqi2vpwF7j5gi2A/8BjPC2+mrnwBMC33XM3YfqrqSLMqZSNJ0lbulMugxTnSLgm+LJr4t11rsfd0jgx6nsdinlN9topqlLCnFrJxpkrKNjDud/gC+rq5+5+yc6JPDFuZJr6epDvKk+njFVLW6bC76PJb55gr3A5RkNtxcvrJ+5+yc6JNl3X/Mp4pau7YgdDaY+xe1zbR8d80QR8A0RfjgoTUnXUlFPWsp7xZG7UA2TLsyYSojb54Hdz9Yc6ieofE4h4sL62DPnSJ7cu3HxVk1li0kXZsxM01SauNVO2JpDbFD4MLCznrZQOJInBX5p8UkjLpPrtbE1U1dU0WwLrqUL69+bMX3ARyLx/xdpjNfEkwI/7pi/S6LigzapY+qL4ppaiNvn2gy+AcgDn3Qe3/bVaT2fqD3Yk3v4heEBTWU349mkjqkjqrimVuLmdgt8EwHfcMgXRAnDOp25P5wnpfquG64gbp+7XcWzPXVMHRHijvl2wtY44HpF/knQoVID9O0PdthlvETFn6M6knRxxswYgXDuEhvJbGwO+LYgHxTVfaUGaeMc7LCBr0HmMc22DNvJLVM3xCPqXgxe/W2IZSZkPOzfp+j24psaL+zhCIEfLn1KvwapRyzvTX1QNJMrX2VrGlEEXD8e9h6Ne37ysM985Lln9YqL7rHVkKkLqsQtHcRt3XbCtvGUgK+AvGc87PMXnpB0TYk5bOCnHt3mos6F29T37cStqX2quOZOnAV+oxkALnfK34HuTZFq6LCHIwR+77+9G8S7S5wbSLpAY6ZPiLoW4tI57LxUw9gK/LVTLhdhqHjhcoYvXJJ0TYk7YjNL4miDy7bsS7pAY6bN8wjnn4BdW9IQFFiPcFGUCr4pUGzEaZwjOeIRkH/qWUOaSv8m6QKNmTbPJ5p3PLbtd90bBL6gcJE67vCjWEsNOo1zJEc8Ava+9+9HcO5/7cStqWmqxLk2ovZ5SVdiKkeB3wKXOJX3i+q20puWU7qgca6gnagjBn7HVd8kmnf8RvUDuwDL1C5V4o75uLY5oDaDUIf2A/+hyuuz/7vsGlSLzrdF6pEc8bLD/svfRus5L/s1nrcTWJF0ocZMjRJ3LrA9dOpPHugBvqAqtyFaLDxrC6G1cI7qqNeZlxad1OcN7H8kKOYt8E1t8gLCBcvBC2yFXx+KlO89+03gZlT7ELATsxNz1LNYxdPPHZU47LGTXaZWqR9QWnAi2G7fta4I3AFcgvJaFb0Soc9P+Rb2k3DUFb43Mqhx1+L7vfzwsJRGW+yoMTVFFdfaSTTnuKQrMVO3D/gFsAbldoQ9CASlgNG3Hp90bTXnqIHf+0/n0/TiN/wadDPI05Iu1phJUUfUfRyupdP697VlBHgY+CHw387JbzzRUYBGuVFJpRxzr9jiklP7gv2PPRDs226Bb2qLCNHcJbimFgv86tcLbAF+DtyGyl3OY6enqigU32xBPxOOGfgjz3lN2PybH/xI/eD1EkfW0zE1Q/10uX/veeDshG0VKVJexe8Cfgf8BrgH5Xcg/eJppAqeKl7kUXzLCUnXWzeOGfjpRx8gmrv0Aa8wuleKI/NsnWRqgQDa1Krh4pURahvozCIHxJQvhoqBAuU+/E7gMWA78Agqf0B0swoDgWg+dmNrSVGKJQ996wlJP4+6NKEV+8LXX5oN9my9EOeWYLtPmRogQJxrD/tffuneqGN+JDaSORtEkTzKfsAh9AJDQF6UEdQbUXGlJ6ZO5IT4zXZV7GyY0P3eJA4Lwd5Hvy6FERDr6pgaoIrX0glRCAhqE2az5zB/1Cpj/xV8ofBGC3djjDHGGGOMMcYYY4wxxhhjjDHGGGOMMcYYY4wxxhhjjDHGGGOMMcYYY4wxxhhjjDHGGGOMMcYYY4wxxhhjjDHGGGOMMcYYY4wxxhhjjDHGGGOMMcYYY4wxxhhjjDHGGGOMMcYYY4wxxhhjzCyTSj3w4uu/xp6hESLnkn6OpgEoML+1hZPmzU26FDPrBFBQBQFvLNVuX/2qpAurOkGlHni0GHY41acrpCr2rmLM4yQfhgVV3SNir7hGoVASCIEIKAoU035cKESBO+u2m5/084Ii0rhvBhUL/Fwm1ZqPwk+4KD416Sdp6p8AnU1NKiJR0rWYWaMCg6CjQB6RPoX+QhTsB/YDu0EfA3kU2AkMg45Gzi+W3wyU8U8HXoO8CVQs8E8/bsH2OzduuyWM3RlO1ZZcpqLSvk93c278w71pHF1H+V4MUgDywAiwVfE2eaIbgQ3AQ8CjqI5EWn4TEPTA6+eOc+vvDaBiQfzUW6+mdyS/fP9o/tZSFJ+S9BM19UuBeS0trJo3B8/aOWZi8kAfsBv4PXA3cJ+gDyi6T/EjcCAweO+DPPDhfyUcGEy65mmr7NHxkQ/SsfL4vx8qlC5zql7ST9bUJ0+Ek+fPY05zzlb3Zjp6gceA3wA/V/RuhD94cWpEvQhEyXnwg7Nrd+Vf0cBfdtOVCN7xOwcHv1MIo9OSfrKm/ijQ0ZTl1PnzCXxbU5gZo8AO4AHgDuB2RO9X9foERVDW12DLp/Kff//6/9LxrGddOlQofsapVuycgWlMApw4t5tFbW22ujeV1AfcC/wA+LGgDyoyCiCirK+RE76z0vA8/sYrF+0dGlmXD8M/TvoJm/qhQEs6zVMWzicT2FrCzAoF9gA/B24FvS0TFLcVo6yiSjYV86OzXpt0jUc0K4HvVJlzzZffNpgvfDFWzSb9pE39OL6rk6WdHUmXYRpTCfgDcCtwM6r3IlKo5ln/WQn85/XcyJa9A129o6PX5sPwxUk/aVMfsqkUT1kwn+Z0yto5Jmm7gB8D1wp6Z6z+sO+VdxlYv/qVSdd2wKyc5frZ6tcQOtfbnE79Z+B5tT/bZKpCV66JJgt7Ux0WAG8GrlXkKk/c64FO54Sze26m4+lPSbo+YJZW+ONOuuVbLY/1D311tFQ63w5SMx3pIODUBfNoy2Qs8E01GgHuBL4pwo/U0QfKHS9Its0zq4HfteZLZPzgzN7R0W+X4nhBos/c1CwFFrS2snJuN7ZvjqlyI8BPgS+heruK5BHlzoT6+7N+tJx8y1XBjsGhy4eLpb9RuxjLTEHK9zll/jw6mrK2uje1oh/4LvBF57lfe86Lk5jln/XADeM4as1kvpL2/Qdn+3eb2qeUe/etWWvlmJrSQbnHf4PnvI8CJ0QScNZt62a1iEQ+D1/Ru1k+8v0fXjJYKHw2dppOogZTm2x1b+qAA+5WuELQdSDDgrD+3FdU/BcnEvgvuuNWtuzv7dwxMHjtaBj+nyRqMLWn3LtvYcVc2yTN1IUR4Cbg3wM/uCeMQvU95fbVr67YL0ykh/7js85jw7ZtfS2ZzGdSvt+bRA2m9qR9n/mtrfgW9qY+NFNu81wXxdElQFusHuiKiv3CxI6c9z70v/z0kUfSW3p7PzlSKl2qtme+OYrxWxiutNW9qU8F4AbgX0X8B4SY2ytwwVZiUzL/fvIfUYyiUlsmfUXa9x9Iqg5TG9K+xwJb3Zv6lWVsta8avx7IVOKEblUcPd1rvvS2gULxC7FzuaRrMdVpfmsrK+Z22+reNII+4EugnwPZrTM4t5/4HLyq0pZt+nY2CG4RuzudOYx04LOw3Vb3pmF0Au8H+arA01sGszM2vpl44IsIzrmh5kz6U6nA35J0Pab6zG1uoSWdttWAaSQB8DKFq0daCy8H5599283TftCqWTI943vXyda+/vcO5guXO9VM0vWY5CnQlErxlAXzaLbAN43rMeBfBL7uRIsqys/OmdroZuIr/HH9+YK2ZTP/lU2lfpR0LaY6CDCvpZkmC3vT2BYDn1D4CNDtOSHd3TmlB6qawN/ymrcSO9fbmklfng78R5OuxyRLgeZMmvltrdXzMdSY5DQDfysqnwCOe/YN35jSg1TdsXT27TfLvdt3vXeoWLw8ds5aOw1KRDhxTjcL21qTLsWYaqLAd0HfJ3iPtGby3Hrm+RP+l6tmhT9ue9+gzmtp+UY2CL5bde9GZlYo0NGUZW5Lc9KlGFNtBHg5yFeB0waLTZzbM/EJnqoL/I2vuojhUjjQms18LB0EDyddj5l9Kc9jUXsbKa/qXp7GVItzFP2iwNMi9Tin5+YJ/UtVeUSdPK+blzx15X3N6fS/BZ43knQ9ZnZ1N+foaGqyE7XGHN2Ziv6nwNOcCudMYGyzarsmT711DYI0be3t/+xwqXSx7bXTGLKpgFPmz6c1Y5M5xkzQzwS5ROE+D7j9KNssV+UKH+C+8y5kqFjMdzQ1/Vs2CH6ddD1mdsxvbaXFwt6YyXjeWHvnqSUNjzqyWbWBD7DlNW9j29aNm1sy6Y+mfH930vWYylGgLZthfmtL0qUYU4uer+gXAglWPPv6K4/4Q1Ud+AC73ncZC1vbftScSn3a97xi0vWYygg8j8Ud7WSDIOlSjKlVZwGfBF161hH6+VUf+AtEGA3DqKul5ctNqeAGEbFP+3VoTnOOrlzOWjnGTF15ZFPkMhWde7gfqPrAB9jwqjezcfe+wdZM9mPZIPhN0vWYmTO+X87ijnbbDdOY6fOAN4rK6470zZpwzinLyUfRhpZM+h9Svr8z6XrMzPBFWNTeZpujGTNzHgR+ebhv1Ezg3372K+jIZDjzxKU/aUmnP2H9/NqnQEeuiXl2otaYmbIH+LBXDO853DdrJvABNr/2rTyytzfubsl9pSkVfMMTcUnXZKYuGwQs6Wi3K2qNmRl54JMieqtLH374oeaOtN//2QUMFYqj3bnmf8mmUj3W9a1NAixoa6Utm7VWjjHTp8A1KvoVVYnveMHhb4lYc4EPsOv8d9A7Orq9JZ3+QDoIHkq6HjM5CrQ3NdlOmMbMnJ8K8k/A4B3nvvKIP1STgQ8weNFfUgij37Rm0u9P+f6upOsxE5fxfZZ0dpD2/aRLMaYe3A98ANh+rJud12zgAwxcdAknLZj3g9ZM5vLA84aTrsccmwAL29voaLJWjjEzYCfoh+aNNN+z/ih76Iyr6cAHGCwUo4VtrV9rTqe/6InESddjjq4jZ60cY2bIkMDHPeF7u1smtt6t+cC/96XnUwij0dZM+vKmVOo6uxK3emWCgKXWyjFmJhSBzyP6DVXiY7VyxtV84AM88uqLKMVxf1cu9w/ZIPiJTe5UH0+Exe1tNpVjzPQ54GpFP4NKYf25Ewt7qJPAB9j9xovJh+HW7lzug9lU6t6k6zGH6m7OMd9aOcbMhO8D/wT0rj/KRM7h1E3gA+y94GL6C8V72rKZSzNBsCXpekx5BDOXTrOks8MusDJm+n4m8Deg2++cxMp+XN01U0vr/pvhpyzb2jl/4cbQuXOdql23n6CU57Gsu4uOpqakSzGm1v0O+EsPuW+yK/txdRf4ALtv/xUPlvofeax/cE8Ux89zqs1J19SoFrW3sai9DbGdMI2Zjg3AX0kU/Hz9C18+5Qepy8/Y80XY3jfgnrZwwbXNmcw/+543mHRNjUaBzlwTizvaLeyNmZ6doB8opUs/iTPT2zOyLlf4AI9edT3Nr3m562puvrcQhWEYu+eoajrpuhpBeY/7gBVz59CcSiVdjjG1bDfo+0Fv9JyvPzvn1dN6sLpc4Y+7/+UXMJDP55d0dlzRmsl8xfeklHRNjSDwPJZ2dtCaydgIpjFTNyDwcdBrQSY8a380dbvCH9d//c3kXvOysLOp6RelOG4NXfws1fp/3kla3N7G4nZr5RgzDYOCfFSQLylEd0xhIudwGiL4+tfeTPbV55Xam7I/j5y2hc49S1Xr+tNNUrqacyzr7sK3EUxjpmpAkH8S+KJC6Y4pTuQcTsMclY++7u2EsRta3Nn+4eZ0eo3dPGVmKdCcTnNCV6dtnWDM1A0fHPYT2RBtMhrqyOy//mb0lS8pNgepnzvVRZFzT9XyBo5mmtK+z/I53bQ3ZZMuxZhaVQQ+LfAZQWY87KGBVvjj7nzd2wDd29GUfV9zOr3G92yHzenyRFjS0U5Xcy7pUoypVQPAx0T0E0Dx9gqEPTTw6nbx2q+Ry6Tn7hsZ/fBQoXBx7Gxkc6oWtrWN9e0b9uVkzHQMCPJRD77g0HCqV9FOREO1dA429O3v0PTq80a7crmfh+XpnWfa9M7kdeVyLJ/TRcpvuA+LxsyEAUE+JsJ/KFQ07KGBAx9g6Ibv0PSa84rdzc0/L8VxW+ji0y30J0aBlnSaFXO7ydnFVcZMxUB59JL/qMQJ2sNp+HAbvOGWAyObsWocxu6P7Irco1OgKQhYMbebdtvf3pip2Al8wEO+PlthDxb4QDn02173itLCtvZfjZZKxci5P3aqNm5yBOM7YHY32550xkzBNtAPKvEawY9mK+yhgU/aHs4p37mG1mwqs3Fv75uHisV/DuN4XtI1VRtPhOO7OsuboiVdjDG152Hgvc5FP/A8T+84d3p740yWnWk7yIMvv4BCGBWfe8LxV7ZmMpdmgmBr0jVVExFhYdvYdsdJF2NM7bkbuHh03uj3RWY/7MEC/0nu/bM3sml/b7z/wnde357NvrMplXow6ZqqxdzmZpZ0duDZHjnGTNZtwDsilfVNe5u48wWzH/ZgLZ0jWrnuW2zYso3Fixb+SX8+/+l8GJ7ZqCcnFejO5Vgxt5tMECRdjjG1JAZuEeTvHLrBF+X2Gdj1cqos8I/ijB/cwB/27qWjqemk3pHRT+TD8GVOtaH+zBRoz2ZZOXcOzemUTeQYM3F54Buglwne7qZUiR88/3WJFtRQ4TUVqkrHVV+iq7lp3v6R0Y+NhuFbYucaYoJnfNZ+5bw5tNne9sZMRj/wCRX9gihDM7W98XRZ4E/Q3Gu/woLWltYdA0PvGSoW/zaM446ka6okBXKpFCvnzaHDZu2NmYytwIc94boYLc3EjUtmip20naC9b7yY2LmhFXPmfLI9m31PJgg2J11TJWWDgGXdXXZhlTGT87+g7ygW/vAtoKrCHizwJ+WBl7+J4VKp9JU3vOqq9qbsW3Lp1K/r8a5Oad/nxDnddNvul8ZMVAzcCrwlKPk/zmRWcvvqVyZd05PYlbaTtPfaG7nr6U9le3//toVtbesj57qdc6dqnbx5pnyfZV2dzG1tSboUY2rFMPAlgQ8Cm+PAcWcCM/YTUX/L01nyzO+vZcfAIK2ZTPu+kZEPjJRK7wpj1550XdMxHvbz2lrthWHMxGwHPo7ot0Qlnw0ifnjWa5Ou6YjsuJ6mBdd9jeM72tObe/suGCoW/18xipbXWs9bgbTvsayry8LemIn7FfAPnng9MbFWW7/+cOqiDZGkXef/X/ry+dKeCy7+Zndz7sLmTPrHtXS/3IPDfr6FvTETUQC+BVwkyG2qWhNhD7bCnzHn3HYLd219lIXtbQt7R0f+dqQUXhzGcdU3wlMHhb0x5ph2AZ9C9SsqMtTX1ct9z3h70jVNmAX+DFt43ddZ2tmW3dzbd/5Qofh3xTg6Sau0xzPes7ewN+aYFPiFwMfw3E80FnfHC2pjVX8wa+nMsIvP/GPyYVT4yfnv+GZXc+78XCr9HU8kTLquJzr4BK0x5qiGga8IXCSe/yO0NsMebIVfMSvWXcVIqUhrNj1n3/DoX4wUS+8pxfHcpOsq9+xtGseYCdoAfBJ0jSCjqkqthj1Y4Ffc4uu/xkndC4L79+x88XCp+A+FMHpOkhuwpX2fEyzsjTmWEvA94LKszz2FWLVa9sOZDjvmZ8GqdVfz6EA/C9tal/SN5v9mpFR6WxjHszqzr5S3S7AraI05pm3A50GvFKRXhKq8anYqLPBniaqycO3XOKGrK7N5f+95Q8Xih4pR9Cw3C2d0xzdCW97dRZeFvTFHUgJ+AvxL1o9+UYgDvePcVyZd04yywJ9lp35nDQ/s3sXxnV3LBvKFvx4NwzeFcdxZqd83vsXxirndthGaMUe2BbhCRa9CZW/SNyqpFAv8hBz/7Ss5df681G8e2/GS4WLx7wph9GynOqNTUwp0ZLMsn9NFq+1nb8zhFIAfAJ9o0tKvRr1UzVxENRUW+Al69o9u4Ff3P8jy45cu6RvNv3O0FL69FMcLZ+rxu3M5TujusjtVGXN4DwFXCHqdQ3oDcfSsrs5Nz2aKBX7CTvvedfSPjLJsblewYfe+M4eKxffnw+hFsXPpqT6miDCvpZnjuzrJBoGFvTGHGgRuAD4fFUZ/n8rmFJT1dTCFcywW+FXixHX/xY6BIZbN6ezcPTj8htFi6a+KcXyyTvKkrifCovY2lnR2EHh2XZ0xB4mBXwCfU9HviUqeGp+rnywL/CryK+3nDTetY+uGTSw9cfnJg4XCJaNheEEUx3OOFfsKpDyPJZ0dLGpvw6vDG7MYMw1bgK8CV6rKThGl3iZwJsJSoQq99n9+TM+GzZx+/OLU/Tt2njVcLL23EIYvjI5w83QFmoKAE7q7mNPcjGW9MQf0ATcBX/S1dE8sGU15IT89p3r3rK8ki4Yqdtp/X8cje/dzQldHx97h4VeMhuFfFsPoj+InTPO0ZjMs6+qivSk71V9lTL0pALcrXIHobeKkINIYffqjscCvAafccjUP/v4hlp+yckl/Pv+m0TB8WymOV6JKV3OOE7psEseYMSHwW+DLoOtUvF5w1POo5WRY4NeIk79zFcXQ8bfnPF/+7bb1Jw8WChe3ZjOvWdzRviTt262JTcNTymOWVwpcF6l71BcBpaFOyh6LBX6NWX7jf1GMIk5ZNCdVKMVP88T7c+CVwKKkazMmIVuA6xS+EfvRxlQcOID1DXhS9lgs8GvUqlu+RXu2iUw6SIvKMwXeDrwa6E66NmNmyaPA9cBVou4+J16MqLVvjsICv8Y9v2cdqCCqWUSeSzn4X4IFv6lfO4HvgH5DVO9W8eJGm6efKgv8OnHWT9eBCKg2jQX/m4EXAzO2VYMxCdsC3AJ6nYjereqFosp6C/oJs8CvM+PBr6IBKs8SeAvwMuC4pGszZgoU2AzcCHq1p+4+J74TUdZb62bSLPDr1HirR8UFnnqnAa8HXgWswO5lbKpfCDys5R79jb66Bx2e88Rx+7n1vcFZJVng17Hn337TWH9f8ER8p7oceM3Y19OATNI1GvMEo8DdlIP+u7Efb/NiTz3AE6373SwrzQK/QZx9280oMLewi73Z+YsVebGUg/9MoCPp+kzD2w/cDtwgaE/oUnsCL0Jt6mZGWeA3mLNvW4ciKOChbQp/AvI64EXA8dhrwsyeGHgE+KHAjSrcjTICigjWo68AO7gb1Lm3ryN2oAh4mhInKxXOo3wR12lAc9I1mrrVD/wauFnhRz5us8OLgYbcwXI2WeAbzho/wauCoHNF+GMtX8R1NrAMO8lrpi8GNgA/UVgn6G/A62fs82ajb2o2WyzwzQEv+tlaisVMeZ5f4gD1VlIO/ZcDzwLmJV2jqTmPAXcB31H0Tl/cZqe+A+UOC/lZZ4FvDuusnptAPVQ8RONm4Bkgq4GXAicDnUnXaKrWPuA+4FbQHuB+p15RxBHYpE2iLPDNUZ1127qxC3hhqG03rYPzu4HTx8L/hcBJQHvSdZrE9QK/B24DegTuJfYG1I9RKfcE7SRs8izwzYQ9v2cdMrbpfpyJxS8G80BPAzkXOAt4KtCKva4agQMGKO89vx74qcADKrledBQBVJQ7LOSrih2YZkrGT/QCpLYtJFy6Yx7IKZR7/mcCz6C8gZtt1l8/ImAPcA9wB3An8AfVoFckGvsR681XMwt8M23l8AcQVMETbVdkOXAG5TeApwPLgaakazWTNkR5Vv53lC+MuhvRLaoyPB4egmO9bXdQEyzwzYx6wR3riCJwCIKgXuzjZIkgJwPPBp4DnAgsAdJJ12uepABsBR4GfgbcBbrB89jh3FhDTxRfoOccW8nXGgt8U1HPP2j177sU6pWyCieAnER51PNPKG/oNg9oSbreBjQE7KIc8L+k3K55WES3QhA6jRG78rVuWOCbWXV2zzp07A3AxXnx/WxWYQnIKsonfZ8+9tf5lKd/7FPAzCkCfcAO4AHgd6D3CzykeDt6M13FruJ+oLxR2e0W8HXHAt8k4pyedTjlwMinIhCnEC/MitCm6AqQFZTHPk8FVgFzKW/5kEu6/howMva1m/LNve8HNoI+KMgmRUfV+UXx4rEQEEDxPGvV1DMLfFMVXtSzjiIcmPwp94GEvlI3nel9LYI0K7p47E3gZMobvR0PnEB5GigLpGisqaAYKFFeue8GtlG+WchmlA0IGxR2ibrhUIPRlOcov7UKam2ahmSBb6paeXdPeOJL1RMXOCdtiLQC3aAngoy/CSyk/Glg/KuF8huBT23tC+Qoh3oMDAJ7x772UL6v61bQLSCbgV7QobTnBkrOd+MPUH7bVDzBWjTGAt/UngM7fSrlntBBFPA9zThHKyqt5TcE7Qbmgy4EmV/+ezqBNsotouaxv89QfnMYvzHMwQ8+nWNFD/P3eco3+8gDw2NfI5SDfT+wB3SXIDsUdin0CwyBDvmeDsXOCw/3a7yxKi3czeFY4Ju6srpnHQ4OnBge702Xjf+94gueQotTcihNiNcMZEBzlE8UB5TPFQjgy9QniJyWg9yN/fIRyiv2AkgetIjqKB6jHoyK6HDkRAV5/ATHISzUzdRZ4JuGdE7POqCcxuW+x3in5/GAPSRqdaqHih5ylB36KGNvQKrgPd5rsiA3xhhjjDHGGHNs/x/LEZkflKYTSQAAACV0RVh0ZGF0ZTpjcmVhdGUAMjAyMC0xMS0xOVQwNzo1NDowMSswMDowMEd8GaUAAAAldEVYdGRhdGU6bW9kaWZ5ADIwMjAtMTEtMTlUMDc6NTQ6MDErMDA6MDA2IaEZAAAAAElFTkSuQmCC;" vertex="1" parent="uNIfuLAKSK_sfVtjGSBY-733">
          <mxGeometry x="11.9" y="10" width="36.19" height="40" as="geometry" />
        </mxCell>
        <mxCell id="uNIfuLAKSK_sfVtjGSBY-734" value="" style="group" vertex="1" connectable="0" parent="1">
          <mxGeometry x="290" y="293" width="60" height="60" as="geometry" />
        </mxCell>
        <mxCell id="uNIfuLAKSK_sfVtjGSBY-726" value="" style="group" vertex="1" connectable="0" parent="uNIfuLAKSK_sfVtjGSBY-734">
          <mxGeometry width="60" height="60" as="geometry" />
        </mxCell>
        <mxCell id="693" value="" style="strokeColor=#dddddd;fillColor=#ffffff;shadow=1;strokeWidth=1;rounded=1;absoluteArcSize=1;arcSize=2;fontSize=10;fontColor=#9E9E9E;align=center;html=1;" parent="uNIfuLAKSK_sfVtjGSBY-726" vertex="1">
          <mxGeometry width="60" height="60" as="geometry" />
        </mxCell>
        <mxCell id="uNIfuLAKSK_sfVtjGSBY-732" value="" style="shape=image;verticalLabelPosition=bottom;labelBackgroundColor=default;verticalAlign=top;aspect=fixed;imageAspect=0;image=data:image/png,iVBORw0KGgoAAAANSUhEUgAAAUAAAAFACAYAAADNkKWqAAAAAXNSR0IArs4c6QAAFlVJREFUeAHt3Q9sndV5x/Fz7rVjp8kSEkKSbiUNiLaTVkJhncCBpYFClZZ1m7QxaVXSbeyPBkKbBhJaWVFdjQo6tXRDaKNoWzuoqEo2aRujrI5JXIh97Ri6NlmntatKoBvlTxhLm9RxiO/Z815snCaxfd/j933vec75WrLsXL/nvM/5PDc/vfe+977XGL4QQAABBBBAAAEEEEAAAQQQQAABBBBAAAEEEEAAAQQQQAABBBBAAAEEEEAAAQQQQAABBBBAAAEEEEAAAQQQQAABBBBAAAEEEEAAAQQQQAABBBBAAAEEEEAAAQQQQAABBBBAAAEEEEAAAQQQQAABBBBAAAEEEEAAAQQQQAABBBBAAAEEEEAAAQQQQAABBBBAAAEEEEAAAQQQQACBBQTsAn8P8s/N4TWuncJkcVPG2uPGucnZn+aoMfYVue2Q3Pb6z5p50ZjaQbntGbN86UG76blX25mfbRBAQLdA1AHo2xprzWEZ+x0JyP3GuAPG1febXrvfXvLCy75zMg4BBMITIABz9ESC8Vnj7B45gtxt7JLddvN//0+O4WyKAAKBCRCAi2iINfbbxjoJQwnFnvoejhAXgclQBDogQAAWhC5Hh/K8pP13me5xU7cP20tfahQ0NdMggEBJAgRgWbDWfkeeP3zQ1OsP2ktffKak3TAtAggsQoAAXAReO0NbR4bO7jU1CcPuFQ/bd383O8HCFwIIBCBAAFbYBHnO8Jix5p/l5TYPmM03PWZtf7PC3bMrBBA4RYAAPAWkqn9aa/9LnjW80/Rs+IJ999OvVbVf9oMAArMCBOCsRUd+kwY8J2eR/8y8ednf2PMOHutIEewUgUQFCMBAGi9HhC/IWeRPm5XuPvszLx8JpCzKQCBqAQIwsPbKSZP/lZL+wixdfo+9+OD/BVYe5SAQlUAtqtVEsBjnzGr5/riZOHLQjZxzk3PX1SNYFktAIEgBjgCDbMtsUfLQ+GvG1m60fS+Ozd7KbwggUIQAR4BFKJY4h3PuEuOmGm5kzWfdyFtWl7grpkYgOQECUEHL5SGxle/fM27yW/Kw+HoJRZVH7gqoKTExAZX/kdq9HmCsvZSHxSPyfuMb5f3G34h1jawLgSoEOAKsQrngfcgR4GZzovm0a5xzG0eDBeMyXVICHAEqb7e8vW5Arma9w17+4kvKl0L5CFQuwBFg5eTF7tAZ9z5jml93jfVbi52Z2RCIX4AAjKDHEoJvNs0Tg3Km+Hbn+ulpBD1lCdUI8BC4GufK9iLvJBk0tdp2e9lL8kFPfCGAwHwCHC3Mp6Pwb/JymatN033dja6/UmH5lIxApQIEYKXc1exMzgyvl4fEX3Gja7dXs0f2goBOAQJQZ98WrFqOBLtNs/mAa6y5ecGN2QCBRAUIwIgb33oHSdN82g2v+WTEy2RpCHgLEIDedHoGysfV3Spvofu8c1u79FRNpQiUL8BZ4PKNg9mDvIXuUWN6rpMPdJ8IpigKQaCDAhwBdhC/6l3LyZFrjZkcdPs3rKp63+wPgRAFCMAQu1JiTa33ER+ZeIIQLBGZqdUIEIBqWlVcoRKC7zRHJv5Fri+4tLhZmQkBfQIEoL6eFVJx60jQTO7kxEghnEyiVIAAVNq4IspuPSfY+OZfFzEXcyCgUYAA1Ni1AmuWEPwNXidYIChTqRIgAFW1q5xiW68T5B0j5eAya9ACBGDQ7amwOGc+xXuHK/RmV0EIEIBBtKHzRWRvm5P3Dv8tV5HpfC+ooDoBArA66+D39PoFFKYekiPBdcEXS4EIFCBAABaAGNMUclJELqXV/AJXlo6pq6xlLgECcC6ZhG+XI8GrTePeP0mYgKUnIkAAJtLo3Mt05mN80FJuNQYoEyAAlTWsqnLlpTF105TnA4fXra1qn+wHgaoFCMCqxRXtr/Vpc6b5oDwvqPKyaYqoKbVDAgRgh+C17Lb1ucOja2/TUi91IpBHgADMo5Xqtk33cTe29qJUl8+64xUgAOPtbWEraz0feML9FQ+FCyNlokAECMBAGhF6GfJQuM801l4fep3Uh0AeAQIwj1bq2zpzl1xEdXXqDKw/HgECMJ5elr4SOQpcY9zxu0rfETtAoCIBArAi6Gh2Y5u/4xrrLo1mPSwkaQECMOn2519866oxrvmXzl1Xzz+aEQiEJUAAhtUPFdXI2eBLTGPoBhXFUiQC8wgQgPPg8Kf5BNwd7t82njXfFvwNgdAFCMDQOxRoffJQeKWZOPIHgZZHWQi0JUAAtsXERnMI/KH75jnL5/gbNyMQvAABGHyLwi1QjgJXm8P298OtkMoQmF+AAJzfh78uKOBucc9s7F1wMzZAIEABAjDApmgqqXUJ/e8f/W1NNVMrAjMCBOCMBD/9BZy71T31s93+EzASgc4IEICdcY9qr3K1mA1m8rntUS2KxSQhQAAm0eYKFmnNR/gkuQqc2UWhAgRgoZzpTibPBb7NjNz7/nQFWLlGAQJQY9dCrdnaD4daGnUhcCYBAvBMKtzmJ+DML7qnzl/pN5hRCFQvQABWbx7tHuV6gb3mtR/8WrQLZGHRCRCA0bW0wwtq2h0droDdI9C2AAHYNhUbtiVg3RVubN15bW3LRgh0WIAA7HADYtt964KpU1McBcbW2EjXQwBG2tjOLouHwZ31Z+/tChCA7UqxXdsC8prAC+SD1PvaHsCGCHRIgADsEHz0u51ynA2Ovsn6F0gA6u9hqCt4b6iFURcCMwIE4IwEPwsWcO90X1t/TsGTMh0ChQoQgIVyMtmMQOts8OTUlTP/5icCIQoQgCF2JZaanCMAY+llpOsgACNtbBDLcvaqIOqgCATmECAA54Dh5sULyHuD3+5G3vJTi5+JGRAoR4AALMeVWWcE3HGOAmcs+BmcAAEYXEtiK8gRgLG1NKL1EIARNTPIpVhOhATZF4pqCRCA3BFKFZCXw7yV1wOWSszkixAgABeBx9A2BY65TW1uyWYIVCpAAFbKnejO7BQBmGjrQ182ARh6h6Koz14YxTJYRHQCBGB0LQ1wQY6HwAF2hZJEgADkblCFwAVV7IR9IJBXgADMK8b2uQXkTPBKt3/DqtwDGYBAyQIEYMnATD8tcGRiIxYIhCZAAIbWkVjrsZZPiou1t4rXRQAqbp6u0psbddVLtSkIEIApdDmENTbNuhDKoAYEThYgAE/W4PfyBKxdU97kzIyAnwAB6OfGqLwCzp2ddwjbI1C2AAFYtjDzvy7AESD3hAAFCMAAmxJnSRwBxtlX3asiAHX3T0/1zizTUyyVpiJAAKbS6U6v09qeTpfA/hE4VYAAPFWEf5cj4NySciZmVgT8BQhAfztG5hHgCDCPFttWJEAAVgSd/G44Akz+LhAiAAEYYlcirMkZU49wWSxJuQABqLyBlI8AAv4CBKC/HSMRQEC5AAGovIGUjwAC/gIEoL8dIxFAQLkAAai8gZSPAAL+AgSgvx0jEUBAuQABqLyBlI8AAv4CBKC/HSMRQEC5AAGovIGUjwAC/gIEoL8dIxFAQLkAAai8gZSPAAL+AgSgvx0jEUBAuQABqLyBlI8AAv4CBKC/HSMRQEC5AAGovIGUjwAC/gIEoL8dIxFAQLkAAai8gZSPAAL+AgSgvx0jEUBAuQABqLyBlI8AAv4CBKC/HSMRQEC5AAGovIGUjwAC/gIEoL8dIxFAQLkAAai8gZSPAAL+AgSgvx0jEUBAuQABqLyBlI8AAv4CBKC/HSMRQEC5AAGovIGUjwAC/gIEoL8dIxFAQLkAAai8gZSPAAL+AgSgvx0jEUBAuQABqLyBlI8AAv4CBKC/HSMRQEC5AAGovIGUjwAC/gIEoL8dIxFAQLkAAai8gZSPAAL+AgSgvx0jEUBAuQABqLyBlI8AAv4CBKC/HSMRQEC5AAGovIGUjwAC/gIEoL8dIxFAQLkAAai8gZSPAAL+AgSgvx0jEUBAuQABqLyBlI8AAv4CBKC/HSMRQEC5AAGovIGUjwAC/gIEoL8dIxFAQLkAAai8gZSPAAL+AgSgvx0jEUBAuQABqLyBlI8AAv4CBKC/HSMRQEC5AAGovIGUjwAC/gIEoL8dIxFAQLkAAai8gZSPAAL+AgSgvx0jEUBAuQABqLyBlI8AAv4CBKC/HSMRQEC5AAGovIGUjwAC/gIEoL8dIxFAQLkAAai8gZSPAAL+AgSgvx0jEUBAuQABqLyBlI8AAv4CBKC/HSMRQEC5AAGovIGUjwAC/gIEoL8dIxFAQLkAAai8gZSPAAL+AgSgvx0jEUBAuQABqLyBlI8AAv4CBKC/HSMRQEC5AAGovIGUjwAC/gJd/kM7N/LSWzZNOefqnauAPfsJ7PEblmfUnkdcns3ZtkCBKz9oC5ytkqmUHgG645XosBMEEIhaQGUAOmcmo+4Ki0MAgUoEVAagtZYjwEruHuwEgbgFVAagcY4jwLjvl6wOgUoEdAagtccq0WEnCCAQtYDOAHTulai7wuIQQKASAZUBKK9zIAAruXuwEwTiFlAZgNaaQ3G3hdUhgEAVAioDkCPAKu4a7AOB+AVUBiBHgPHfMVkhAlUIqAxA06x9rwoc9oEAAnELqAzAuq09E3dbWB0CCFQhoDIArZ06WAUO+0AAgbgFVAbgyMjjzxvD2+HivmuyOgTKF1AZgPJeYCcnQp4tn4c9IIBAzAIqA3C6If8Zc2NYGwIIlC+gNgCtcQfK52EPCCAQs4DaAHSmtj/mxrA2BBAoX0BtANaNJQDLv3+wBwSiFlAbgOeeu+rbxlquCxj13ZPFIVCugNoA3Llz55TQfKNcHmZHAIGYBdQG4HRThmNuDmtDAIFyBXQHoKsRgOXeP5gdgagFVAegXbqEAIz67sniEChXQHUAjg99+QVr7HfLJWJ2BBCIVUB1ALaaYs1XY20O60IAgXIF9Aegcf9aLhGzI4BArALqA7Cn60275OII2Uti+EIAAQRyCagPwL17H31VVjyWa9VsjAACCIiA+gCc7uJjdBMBBBDIKxBFAHbZ2j/lXTjbI4AAAlEEYKMxeEBeDsPb4rg/I4BALoEoAjBbsZwIeSDXytkYAQSSF4gmAF1vz0OcDU7+/gwAArkEognA7F0hsvKBXKtnYwQQSFogmgDMuigflPRg0t1k8QggkEsgqgCsm7P/UU6G/CCXABsjgECyAlEFYKOxc0IC8O+T7SYLRwCBXAJRBWC28pq1PAzOdRdgYwTSFYguABuNXV+VJwP50PR079OsHIG2BaILQHkpjKsZe0/bAmyIAALJCkQXgFknz1pR/6z8OJRsV1k4Agi0JRBlAA4MDByV5wL/vC0BNkIAgWQFogzArJsrltfulVcGHk62sywcAQQWFIg2AAcHBw8bayQE+UIAAQTOLBBtAGbLXd67TB4G2x+deencigACqQtEHYBDQ48ckqPA7IQIXwgggMBpAlEHYLbannr9U/K6wMnTVs4NCCCQvED0ATg8vOt56fLnku80AAggcJpA9AGYrViOAv9UrhTzw9NWzw0IIJC0QBIBmB0FWlPrT7rTLB4BBE4TSCIAs1W/qffn75HnAg+cJsANCCCQrEAyATg01H+i7mo3Sqddst1m4Qgg8GMCyQRgtuqxscG9crGEv/sxAf6BAALJCiQVgFmXe7t7bpUTIq8m23EWjgACbwgkF4BPPvnYy3LV6NveEOAXBBBIViC5AMw6/YFtW+6Xh8LjyXadhSOAQEsgyQDs7+9v1py7gc8R5n8BAmkLJBmAWcvHxvY8bay7Pe32s3oE0hZINgCztu8b2X2XNeYrad8FWD0C6QokHYDZ54f0LundIS+Qzt4vzBcCCCQmkHQAZr1unRWumV/n+cDE7vksFwERSD4As3vB+MjuJ+Sh8Me4RyCAQFoCBOB0v+WlMXfKQ+FdabWf1SKQtgABON3/7KUxS2pd2+Wf30/7LsHqEUhHgAA8qdcjIwMvddn6h3g+8CQUfkUgYgEC8JTmjo4ODsn1Yn73lJv5JwIIRChAAJ6hqeNjuz8nH6z+x2f4EzchgEBEAgTgHM3cN7r7k3LRBPlYTb4QQCBWAQJwns7uG338Znk+8KF5NuFPCCCgWIAAnKd52TtFLt50wW/ydrl5kPgTAooFCMAFmnf//fe/tmpl96/IawT3LbApf0YAAWUCBGAbDRsYGDi6vHfZtfKc4Lfa2JxNEEBAiQAB2GajhoYeOWR6uq4hBNsEYzMEFAgQgDmaNP7EwPeWLV12BQ+Hc6CxKQIBCxCAOZuTHQmuXtF1FSdGcsKxOQIBChCAHk3JnhO8+KK3fZCXyHjgMQSBgAQIQM9mZGeH9zUe386LpT0BGYZAAAIE4CKakL1OUN4290cSgh9ZxDQMRQCBDgkQgAXASwjKZ4vY6yUQpwqYjikQQKAiAQKwIOjsAgp1U7tapuN6ggWZMg0CZQsQgAUKZ5fSWlLvfhdXli4QlakQKFGAACwYN7uo6i9s27JNHg7fzkPignGZDoGCBQjAgkGz6bLL64+P7r5DPnLqKjka5CM3SzBmSgSKECAAi1CcY47s0+aWdve8ixdNzwHEzQh0WIAALLkB2ecOy8VV329r5jYeEpeMzfQI5BQgAHOC+WwuwefGG3vutPX6ZfL7uM8cjEEAgeIFCMDiTeeccd/wrqeu3bblMvm8kRusNa/OuSF/QACBSgQIwEqYZ3eSnSCRh8T39Xb3vkOOBj8vf3Gzf+U3BBCoUoAArFL7pH1lzw3KmeLfqpv6FjlTfOCkP/ErAghUJEAAVgQ9127Gxgb3Lu/dcknN1m6Rh8U/nGs7bkcAgeIFCMDiTXPPODTUf0I+ge7uJfWun5ajwfvkezL3JAxAAIHcAgRgbrLyBgwP73r+qdHdN/TU6+dLCH7GGHu0vL0xMwIIEIAB3gemg/Dm5UuXbZQg/IQE4eEAy6QkBNQLEIABtzC7/L4cEX70rJ+ovVVeOvNRKfVQwOVSGgLqBAhABS0bHBw8LC+d+cTqld0bs5MlclT4rIKyKRGB4AW6gq+QAt8QyD6LRP5xt3PuM31917yn6dwOZ9yvyveKNzbiFwQQaFuAAGybKpwNs7fWSTVD2Xdf33U3TZlXftk5s0P+/T4Jx7r85AsBBNoQIADbQAp5k0Zj54TU98Xs++e2fmB97djkhyQEPyxHhReFXDe1IRCCAAEYQhcKqmF86MsvyFR3Z999fVdfeMI1f0mCcJt8XsllHBkWhMw0UQkQgFG1c3YxjcZg9va67PuOK664dtXkiR9dIy+n2SbvPH6PhOL5s1vyGwLpChCACfR+795HsyvPPDz9bbKHym7i+OXGNi+X27Lvi4xzPfKTLwSSEiAAk2r364udfqj8D/Kv7Nts3drfNTH15Nubr5kLrWlucsZukpvfIWdaNhCMmRBfsQoQgLF2Nse6svciy+b/Mf39pZmh8ryh3bz5vT8pJ5Y3TrnmeabWPFfONq+RS/yfPfNTXpN4toTkUvm5RLZfIhd0kCPJ1u+cjZ6B5CcCCCCAAAIIIIAAAggggAACCCCAAAIIIIAAAggggAACCCCAAAIIIIAAAggggAACCCCAAAIIIIAAAggggAACCCCAAAIIIIAAAggggAACCCCAAAIIIIAAAggggAACCCCAAAIIIIAAAggggAACCCCAAAIIIIAAAggggAACCCCQiMD/A5X3sXMNbMdKAAAAAElFTkSuQmCC;" vertex="1" parent="uNIfuLAKSK_sfVtjGSBY-734">
          <mxGeometry x="10" y="10" width="42" height="42" as="geometry" />
        </mxCell>
        <mxCell id="uNIfuLAKSK_sfVtjGSBY-735" value="" style="shape=image;verticalLabelPosition=bottom;labelBackgroundColor=default;verticalAlign=top;aspect=fixed;imageAspect=0;image=data:image/png,iVBORw0KGgoAAAANSUhEUgAABgEAAAgACAYAAAAPE5MIAAAABGdBTUEAALGPC/xhBQAAACBjSFJNAAB6JgAAgIQAAPoAAACA6AAAdTAAAOpgAAA6mAAAF3CculE8AAAAB3RJTUUH5QEWEiEEVh+nhgAAAAZiS0dEAAAAAAAA+UO7fwABCNVJREFUeNrs3XmwpmdZ5/H39J6NNFlIICTsEogBQwAXUAIYZFMuCigGhAEEBgdQYVxYS6RQVmeUbe7neRryRtxYMowOm0AgM0YYnAiJGJGEzUCAhCTP1SHp9HrOzN1OTdVYOqNgEtJXf75Vnzr/v2/SXXX96vS9yBj+JwAAAAAAUMqOjPbKhQ8CAAAAAABK2dlNGe1oIwAAAAAAANSxr3t/xnhKxnLFCAAAAAAAADWszjF8ao7xARnLdYv9+VAAAAAAAKCEb2a0x2VMGxb/Jx8KAAAAAAAc8K7NaD/drSz+73wwAAAAAABwQNvR/friH8uHAwAAAAAAB6y93VkZ0/FGAAAAAAAAqGPfHMN/mWO8R8ZyxQgAAAAAAAB1XNSdkTGtX/y/8iEBAAAAAMAB59KM9qh/8BCwEQAAAAAAAA5omdGetvjn5MMCAAAAAIADxp7u1RnLzUYAAAAAAAAoNADMMZw1x3Ts4p+bDw0AAAAAAA4IH+lOzZhWjAAAAAAAAFDDaveJjPbD/+RDwEYAAAAAAAA4YKx1n89oj1p8N/kAAQAAAADgFuv6jPGZGctNRgAAAAAAAChkjuHVGcuNi+82HyIAAAAAANwi/WF328W/JB8iAAAAAADcouzrPtKd8h0/BGwEAAAAAACAW/QA8KnugYsbIx8oAAAAAADcYnyle0LGcoMRAAAAAAAA6tg5x/DsjLZlcWPlQwUAAAAAgFuE38yYDlncmPlQAQAAAADge2pv967u2MWNnQ8XAAAAAAC+Z/Z0H+zutrgp8gEDAAAAAMD3xFp3QXdGxnK9EQAAAAAAAOq4bI7hcRlt0+KmyocMAAAAAAA3uxu652VMmxc3ZT5oAAAAAAC4We1/CPi3M9pNOwAYAQAAAAAA4Ga1u/v97ojFzZEPHAAAAAAAbhar3Z9kjPfMWK4YAQAAAAAAoI6/mGN4UEbbsLi58qEDAAAAAMBN7qvdEzOmjYubMx88AAAAAADcpL7dvTCjbVrc3PnwAQAAAADgJrOze+3ie5UvAAAAAAAAbhL7uj/M2Ha0EQAAAAAAAGr50BzDKRltxQgAAAAAAAB1fKZ7SMa0fvG9zBcBAAAAAAA3qsu6p2S0jYvvdb4MAAAAAAC40Vzd/dvFLSVfCAAAAAAA3Cj2dq/NWG42AgAAAAAAQCFzDL/Xfx67uCXliwEAAAAAgH+xj3bfnzGtGAEAAAAAAKCGte6z3ZkZbf3ilpYvCAAAAAAAvusB4NLusYtbar4kAAAAAAD4rszd8zOWm4wAAAAAAABQyBzDqzLaYYtbcr4oAAAAAAD4jr07YzxmcUvPFwUAAAAAAN+R87tTM9qKEQAAAAAAAGpY7f68+6HFgZIvDQAAAAAA/klr3Re7J2QsNxgBAAAAAACgju1zDM/NaIcsDqR8cQAAAAAA8E96TcZ02OJAyxcHAAAAAAD/Xx/IaEcvDsR8eQAAAAAA8I/a232kO6lbGAEAAAAAAKCG1e6CjPHHMpbrFgdqvkgAAAAAAPgHvjTH8ISMtmlxIOeLBAAAAACAv2d79/MZ0yGLAz1fJgAAAAAA/D1vzGiHLyrkywQAAAAAgL+z/yHgc7qNiyr5UgEAAAAA4O8eAj4vY/q+jOXCCAAAAAAAAHVcOMfwExlTnd8CMAIAAAAAAMDw5e7JGW3Lolq+XAAAAAAADmLXZbRXdIcuKuYLBgAAAADgILUno72x27Comi8ZAAAAAICD0L7ujzKWhy4q54sGAAAAAOAgdF7GeFrGtDACAAAAAABAHZ/OaD9e+p8BMgIAAAAAAHAQ+kZGe1a3eXEw5AsHAAAAAOAgcU1Ge9FB8RsARgAAAAAAAA4ie7rXZSy3LA6mfPEAAAAAAFQ3x/CfM6bbLA62fPkAAAAAABT3sYx26uJgzJcPAAAAAEBhl2S0R3TrjQAAAAAAAFDDWndZRnvKQTsAGAEAAAAAACjqqu4FGctNi4M5/yEAAAAAAFDM6hzDGzKmoxYHe/5jAAAAAACgmPdktGMXMgIAAAAAAFDKpzPaqa7/RgAAAAAAAOrY/xDw32S0B3frXP+NAAAAAAAA1BkAvpQxPiFjucHl3wgAAAAAAEAd18wx/FLGdISrvxEAAAAAAIA69navzWi3dvE3AgAAAAAAUEr7aHeMa78RAAAAAACAOlYz2me6u7r0GwEAAAAAAKhj/0PAF2WMP5KxXOfSbwQAAAAAAKCOr8wxPDVj2uLKbwQAAAAAAKCOq7sXZrQjXPiNAAAAAAAA1LE3o7Vuq+u+EQAAAAAAgDr2PwR8bncrl30jAAAAAAAApQaA4fyMbSe66hsBAAAAAACo5S/nGM/MmNa76hsBAAAAAACo40vdkzPaFhd9IwAAAAAAAHVkRnt5d7hrvhEAAAAAAIA6dme0qTvCJd8IAAAAAABAHfsfAj4nY3moK74RAAAAAACAQuYYPpEx3tMF3wgAAAAAAEAtF2a0h3brXfCNAAAAAAAA1HF5RntGt8X13ggAAAAAAEAd2zPar3beATACAAAAAABQyA3d6zKWfgPACAAAAAAAQCVzDOdkTMe72BsBAAAAAACo5U8z2smu9UYAAAAAAABquSSjPaxb51pvBAAAAAAAoI4rMtozuk0u9UYAAAAAAADq+Fb3cxnLja70RgAAAAAAAOrYNcfwpozpKBd6IwAAAAAAALW8N2M8yXXeCAAAAAAAQC0XZozf7zJvBAAAAAAAoJYrup/IaOtc5o0AAAAAAADUsNZd3j0x46wNrvJGAAAAAAAA6rhmjuHFGdMRLvJGAAAAAAAA6tjZvSljPM413ggAAAAAAEAt78sYT3SJNwIAAAAAAFDLZRntbq7wRgAAAAAAAOrY/xDwlzLGH8l4+4orvBEAAAAAAIA6vjrH+NSMabMLvBEAAAAAAIA6ru5emjFudX03AgAAAAAAUMfO7j9mjMe5vBsBAAAAAACo5fyMdryruxEAAAAAAIA61jLa5zK23c7F3QgAAAAAAEAhcwyXzDE+JGNacXE3AgAAAAAAUMdl3TMyxkNc240AAAAAAADUcU338oxxq0u7EQAAAAAAgDr2dO/IaEe7shsBAAAAAACoY/9DwB/MeNtRLuxGAAAAAAAACpljuChjupPruhEAAAAAAIBa/iZjfES34rpuBAAAAAAAoI6vdc/MGLe4rBsBAAAAAACo47ruVRntCFd1IwAAAAAAAHXszGhDxrYjXdSNAAAAAAAAFDLH8N6M6XjXdCMAAAAAAAC1fDpjPNkl3QgAAAAAAEAtl3aPyBgd0o0AAAAAAAAUck337Iy22RXdCAAAAAAAQB3bu5dlbDvMBd0IAAAAAABAHTfMMbwpYzrK9dwIAAAAAABAHWvdORnjHV3OjQAAAAAAANRyUcZ4squ5EQAAAAAAgFquyGgPczE3AgAAAAAAUMtV3VMztm10MTcCAAAAAABQxzVzDL+SMR3uWm4EAAAAAACgjh3dmzPG413KjQAAAAAAANSx1r03Y7yTK7kRAAAAAACAWr6c0e7mQm4EAAAAAACglPbNjPFBruNGAAAAAAAAavn6HOOTM6aNruNGAAAAAAAA6ri6e0nGeKTLuBEAAAAAAIA6dnRvyRiPdxU3AgAAAAAAUMda99GMdgcXcSMAAAAAAACltC9mTHdyDTcCAAAAAABQyBzDVzLGB7iEGwEAAAAAAKjlG90zMsZNLuFGAAAAAAAA6rg6o72iO8oV3AjgfwgAAAAAgDp2db/T3d4FXEYAAAAAAIA61uYYPpkxnZixXHEBlxEAAAAAAKCIOYbPZkx3cPmWEQAAAAAAoJa/zWiPdvWWEQAAAAAAoJbLM9pzus2u3jICAAAAAADUcV336u4oF28ZAQAAAAAA6tg3x/AHGdNxHgKWEQAAAAAAoNYA8EcZ020zlo7dMgIAAAAAABRyUUa7jyu3jAAAAAAAALV8KaM9yoVbRgAAAAAAgFqu6Z7XbXLhlhEAAAAAAKCOPXMMv5Gxbat3AGQEAAAAAACo44Y5hrdkTEcbAGQEAAAAAACoY1/3vox2d1dtGQEAAAAAAGr5HxntdBdtGQEAAAAAAGq5onuUa7aMAAAAAAAAtezKGJ+d8bbNrtkyAgAAAAAA1HHtHMOLM6bDPQQsIwAAAAAAQB07uimj3d4VW0YAAAAAAIA69nbvzWgnu2DLCAAAAAAAUMtfd/d1vZYRAAAAAACgkDmGGzLGMzKW612vZQQAAAAAAKgzAFwzx/iUjGmDy7WMAAAAAAAAdWT3yoy21dVaRgAAAAAAgDqu61pGu72LtYwAAAAAAAB17Ov+pLuHa7WMAAAAAAAAhcwx/G3GdGrGcp1rtYwAAAAAAAB1BoArM8YHZCxXXKplBAAAAAAAqONbGe053QZXahkBAAAAAADquCajvaLb6kItIwAAAAAAQB07u7O6E12nZQQAAAAAAKhjbY7hvIzprt4BkBEAAAAAAKCQOYa/zBhPMQDICAAAAAAAUMs3MtqZLtIyAgAAAAAA1BsAfrZb7yItIwAAAAAAQB3f7n692+oaLSMAAAAAAEAd++YYzs6YTvAOgIwAAAAAAAC1BoD3Z4x3NgDICAAAAAAAUMunM9rpLtAyAgAAAAAA1PK3Ge1hrs8yAgAAAAAA1DJ3z+vWuT7LCAAAAAAAUMee7lUZ060zlo7PMgIAAAAAABSxa45hzBhvawCQEQAAAAAAoI693fsy2t1dnGUEAAAAAACo5YKMdn/XZhkBAAAAAABq+VbG+GiXZhkBAAAAAABq2dX9QsZZG12aZQQAAAAAAKhjX/eqjHFrRnNolhEAAAAAAKDQbwBsy2i3c2GWEQAAAAAAoI493Qe6e7kuywgAAAAAAFDLZzLGH3VZlhEAAAAAAKCQOYYd/efDM5brXZZlBAAAAAAAqGM1Y/w3GW2Dq7KMAAAAAAAAdVzfvTKjHe6iLCMAAAAAAEAd+/8JoGV3kmuyjAAAAAAAAHXs7T6UMd7LJVlGAAAAAACAQuYYPt9/PtBDwDICAAAAAACU+y2A8cEZzQAgIwAAAAAAQCHfzmjPcj2WEQAAAAAAoJZru9d1t3I9lhEAAAAAAKCOG7qzM8aTXI5lBAAAAAAAqGN1juFj/ee9MpbrXI5lBAAAAAAAqOOLGeP9PQQsIwAAAAAAQC1XZbSHZEwOxjICAAAAAAAUck33ApdiGQEAAAAAAGq5rnt9xniES7GMAAAAAAAAdeztfjdjvGPGcsWlWEYAAAAAAIA6Pp4x3jOjrXMllhEAAAAAAKCGte7CjHb/jMlvAMgIAAAAAABQyNe6x7gMywgAAAAAAFBLdr/gKiwjAAAAAABALXu612dMW12FZQQAAAAAAKjlHRnjiRnNOwAyAgAAAAAAFLGv+2BGu4eHgGUEAAAAAACoY627oPsxl2AZAQAAAAAAavlaF67AMgIAAAAAANSyq3t+xnKjK7CMAAAAAAAAtby6O9IFWEYAfxgAAAAAAHXs6c7KaCdkTA7Akj8UAAAAAIBCA8AHulNdfiUjAAAAAABQx2p3QfcgV1/JCAAAAAAAFDLHcFX/+ZiM5QZXX8kIAAAAAACUMj4ro21y8ZWMAAAAAABAHbu713SHufZKRgAAAAAAoI4burO7E1x6JSMAAAAAAFDHnu6D3amuvJIRAAAAAACoY637bHdGxnK9K69kBAAAAAAA6tg+x/jIjLbRhVcyAgAAAAAAdezOaM/JmPwGgGQEAAAAAAAKub57Q7fFZVcyAgAAAAAAdezsfqe7nauuZAQAAAAAAOpY7T7S3Ttjuc5VVzICAAAAAAB1XDzH+MCM5h0AyQgAAAAAABRyZUZ7jIeAJSMAAAAAAFDLtd1zXXElIwAAAAAAUMv13b/vNrniSkYAAAAAAKCOvd07M6Y7ZiwdcSUjAAAAAABQyHlzDPf1DoBkBAAAAAAA6ljrPpvRzugMAJIRAAAAAAAo5PKM9mRXW8kIAAAAAADUcm1G+0UXW8kIAAAAAADUsqd7S8bbDnOxlYwAAAAAAEAt7+zukjGtuNhKRgAAAAAAoIb9DwGfm9F+oFvnWisZAQAAAACAGla7izLama60khEAAAAAAKjlKxntyS60khEAAAAAAKhld/cLGcuNLrSSEQAAAAAAqOWNGdNW11nJCAAAAAAA1LH/IeA/yGgndY6zkhEAAAAAAChib/fxjHZvV1nJCAAAAAAA1LHafTqj/biLrGQEAAAAAABq+XrG+KSM5QYXWckIAAAAAAAUMsfwvIzpMNdYyQgAAAAAANTypox2qEusZAQAAAAAAOrYk9HO6Y7vHGIlIwAAAAAAUGcAGD6a0e7lAisZAQAAAACAOta6izLGMzOW611gJSMAAAAAAFDHlXMMT8qYtri+SkYAAAAAAKCU9tzOACAZAQAAAACAQnZntG3diqurZAQAAAAAAOrY1b0no93GxVUyAgAAAAAAdax2H8sYT8tY+i0AyQgAAAAAABTyV3MMP5ExbXJtlYwAAAAAAEAdV2S0J3YGAMkIAAAAAAAUckNG++VunSurZAQAAAAAAOrYkdEG11XJCAAAAAAA1LK3e3fGdILrqmQEAAAAAABq+dgcw/0ypvWuq5IRAAAAAACo47MZ7cxug8uqZAQAAAAAAOq4PKM9zUPAkhEAAAAAAKhle0b7RddUyQgAAAAAANSyp3tzxnKza6pkBAAAAAAAanlXxngnl1TJCAAAAAAA1PKxjHaadwAkIwAAAAAAUMdad3FGe7gBQDICAAAAAAC1BoAvZ7Sfdj2VjAAAAAAAQC3Xdy/IWG5yPZWMAAAAAABAIXMMv50xHelyKhkBAAAAAIBa3pnRTnQ1lYwAAAAAAEAdq90nMtpp3YqrqWQEAAAAAABq2Nd9JqM9xLVUMgIAAAAAALVcljE+OWO5wbVUMgIAAAAAAHXsmmN4UcZ0uEupZAQAAAAAAGoZMsatrqSSEQAAAAAAqGM1o32o/7ytC6lkBAAAAAAA6tj/EPCnulNcRyUjAAAAAABQx1r32e7hGcv1rqOSEQAAAAAAqOMbcww/kzEd4jIqGQEAAAAAgDp2Zowv7o5wFZWMAAAAAABAHfsfAj4rY/QbAJIRAAAAAAAoZG/30e5WrqGSEQAAAAAAKPUbAMP5GeO9M5YrrqGSEQAAAAAAqOPiOcZHZ0wbXUIlIwAAAAAAUMfXM8Zndoe6gkpGAAAAAACgjh0Z7RUZ4xYXUMkI4A9FAAAAAKhjT7d0+ZRkBAAAAACAWvZ1H8jYdozLpyQjAAAAAADUcn7GeP+MaZ3LpyQjAAAAAADUcXHG+JPdJldPSUYAAAAAAKjjmxntOQYASUYAAAAAAKjl2u5XXTolGQEAAAAAoJa9Ga1lLLe4dEoyAgAAAABAIXMM78sYT3TllGQEAAAAAIBazs8Yf7BbceWUZAQAAAAAgDouzWg/lTFucOGUZAQAAAAAgBrWusu7p7tsSjICAAAAAEAt2zPaSzKWm1w2JRkBAAAAAKCQOYa3ZEy3dtWUZAQAAAAAgFrenzGe6KIpyQgAAAAAALV8prtvxrjioinJCAAAAAAANex/CPiS7qEZzTFTkhEAAAAAAAoNAJd1T8tYbnDJlGQEAAAAAIA6vj3H8JKM6QhXTElGAAAAAACo5c0Z4zEumJKMAAAAAABQSvtvGeNxrpeSjAAAAAAAUMdqd2H3fR4ClmQEAAAAAIA69j8EfHH34xnLdS6XkowAAAAAAFDH1+YYfiZjOsTVUpIRAAAAAADquLZ7acZ4pIulJCMAAAAAAJTS3p4xbnWtlGQEAAAAAIA69nWfyGhbXColGQEAAAAAoI7V7lMZ48kZS4dKSUYAAAAAACjk4jnGR2VMG10pJRkBAAAAAKCOr2aMz+oOdaGUZAQAAAAAgDquy2ivzBgPd52UZAQAAAAAgDr2PwR8dkbb5DIpyQgAAAAAAKUGgHZuxtI/ASTJCAAAAAAAxXwyY7yPi6QkIwAAAAAA1PJXGeNPdhtdJCUZAQAAAACgjm90z8kYD3GNlGQEAAAAAIA6rutek7HtcJdISUYAAAAAAKhj7xzDWRnLLa6QkowAAAAAAFDIHMO5GdNxLpCSjAAAAAAAUMtfZLQHuj5KMgIAAAAAQC2XZrTHdBtdHyUZAQAAAACgjiu752ds8w6AJCMAAAAAABSyfY7h1zKWm1wdJRkBAAAAAKCO1TmGIWM6ysVRkhEAAAAAAGo5N6PdybVRkhEAAAAAAGr5TEa7n0ujJCMAAAAAANRyWcb42IxtG1waJRkBAAAAAKCGte6bc4zPyFgaACQZAQAAAACgkO1zDL+aMd3KhVGSEQAAAAAA6tjXbctoJ7guSjICAAAAAEAp7dzu9i6LkowAAAAAAFDLFzLG010VJRkBAAAAAKCOtTmGr8wxPiRjuc5VUZIRAAAAAADquHyO4VkZ0xYXRUlGAAAAAACoY3v3qox2jGuiJCMAAAAAANSxN6NN3XEuiZKMAAAAAABQywUZ0wmuiJKMAAAAAABQx+ocw+fnmO7ogijJCAAAAAAAtVwyx/CIjGm9C6IkIwAAAAAA1HF5Rnted7jroSQjAAAAAADUkRntld2tXQ4lGQEAAAAAoI593bszptu4GkoyAgAAAABAHfsfAj4/Y3moi6EkIwAAAAAAFDLHcGHGeIproSQjAAAAAADUcklGe3y3wbVQkhEAAAAAAOq4PKP9bHeYS6EkIwAAAAAA1LGj+w8Z061dCSUZAQAAAACgjt1zDMuM5RYXQklGAAAAAAAoZI7hQxnT8a6DkowAAAAAAFDLhRntB10GJRkBAAAAAKCWSzPaY7r1LoOSjAAAAAAAUMfcvSBjOtRVUJIRAAAAAADq+PYcwysyztqcsXQUlGQEAAAAAIAids8xtIzpaNdASUYAAAAAAKjlQxntbi6BkowAAAAAAFDLRRntPq6AkowAAAAAAFDLFRnj47r1roCSjAAAAAAAUMNad/Uc49Mz3r7RQ8CSjAAAAAAAUEfOMbw8YzrC9U+SEcBfCgAAAADUsavbltFOdPmTJCMAAAAAALV8IKPd2dVPkowAAAAAANTy1YzxNBc/STICAAAAAFDIHMMVc4xnZLx9nYufJBkBAAAAAKjjW92zMqbNrn2SZAQAAAAAoI7t3Wsy2jEufZJkBAAAAACgjt3dO7qTXPkkyQgAAAAAQC2fzJju5sInSUYAAAAAAAqZY7g8o52csVxx4ZMkIwAAAAAAdVyeMT4sYzIASJIRAAAAAIBCruh+LqMd5rInSUYAAAAAAOrY3r2uO9ZVT5KMAAAAAADUsad7Z8Z0ooueJBkBAAAAAChkjuGTGe0kDwFLkhEAAAAAgFq+nDHd2SVPkowAAAAAANRyWUZ7fOc3ACTJCAAAAABAIVd2L+gOc8WTJCMAAAAAAHVc3/1mxniMC54kGQEAAAAAqGPvHMM7+8/jPQQsSUYAAAAAAGo5N2O6rcudJBkBAAAAAKjl0oz2A652kmQEAAAAAKCWy7ondo52kmQEAAAAAKCQuXthxnioi50kGQEAAAAAqGPnHMMb+s9bZywd7CTJCAAAAABAEbu7szKmo1zqJMkIAAAAAEAda92HM9rdXekkyQgAAAAAQC2f7+7nQidJRgAAAAAAarkiY3yC65wkGQEAAAAAqOX6OYafzxgPdZ2TJCMAAAAAAHVc170iYzrcZU6SjAAAAAAA1LGzW2a0E13lJMkIAAAAAEAda92Hu1Nc5CTJCAAAAABALV/OGO/rGidJRgAAAAAACpn/9zsAj8lYrnONkyQjAAAAAAB1ZMb4tIxpo0ucJBkBAAAAAKhje/fqjHa0K5wkGQEAAAAAqGNnd3Z3Rxc4STICAAAAAFDHWndexnhP1zdJMgIAAAAAUMgcw1X95709BCxJRgAAAAAAarkqY/xRVzdJMgIAAAAAUMu3uudntC2ubpJkBAAAAACgju3da7tjXdwkyQgAAAAAQB27ut/LGO/g2iZJRgAAAAAA6libY7ig/7x7xnLFtU2SjAAAAAAA1PHljOmOGc2hTZKMAAAAAAAU8vWM9lMubJJkBAAAAACgliu7F3ZbXNgkyQgAAAAAQB3Xda/PGI9xXZMkIwAAAAAAdeybY3hP/3mSh4AlyQgAAAAAQB2r3XkZ7S4eApYkIwAAAAAAtVyS0U53UZMkIwAAAAAAtVyZ0Z7imiZJRgAAAAAAapm7X+42u6ZJkhEAAAAAgDr2zDG8NWM6LmPpmCZJRgAAAAAAqgwA3e9mtBMyJoc0STICAAAAAFDEavfRjHayC5okGQEAAAAAqOWSjPZg1zNJMgIAAAAAUMuV3RNdziTJCAAAAABALbu6l2RsO8TlTJKMAAAAAADUsbN7bUY7ykPAkmQEAAAAAKDWbwCcndFu72ImSUYAAAAAAOrY152X0U53LZMkIwAAAAAAtXyue5BLmSQZAQAAAAAoZI7hhozxiRnL9S5lkmQEAAAAAKCOG7rnd5tdySTJCAAAAABAHdd3v5HRtrqQSZIRAAAAAIA6dmW0d3Z3dR2TJCMAAAAAAHXs687tTnMZkyQjAAAAAACFzDF8NWM8I2O5zmVMkowAAAAAANSxI6M9MmNa7yomSUYAAAAAAOq4NqM9t9vgIiZJRgAAAAAA6rguo72xO8Y1TJKMAAAAAADUsbP7/e7OLmGSZAQAAAAAoI61OYb/njGe7iFgSTICAAAAAFDLVzLaD3kIWJKMAAAAAADUMme0h7l+SZIRwF+KAAAAALVkRntZ5zcAJMkI4C9GAAAAgEKu636rO9rlS5JkBAAAAACoY98cwzkZ410zlisuX5IkIwAAAABADWvdn2W0UzOmda5ekiQjAAAAAEAdF2e0+7p2SZKMAAAAAAC1XJ3R/pVLlyTJCAAAAABQy9y9pPNPAEmSjAAAAAAAhezp3pwxHZuxdOiSJBkBAAAAAIpY7d7V3SljWnHlkiQZAQAAAABq2Nd9OKPd3XVLkmQEAAAAAKjlrzLamS5bkiQjAAAAAEAt3+oe76olSTICAAAAANSyq3tpxlkbXbUkSUYAAAAAgDr2PwT8W92xGZOjliTJCAAAAABQxO7urIx2O9csSZIRAAAAAKCOvd3HM9p9XbIkSUYAAAAAgFou6h7qiiVJMgIAAAAAFDLHsCNjfFzGcr0rliTJCAAAAABQyy9lTJtcsCRJRgAAAACAOnZ2r8poh7teSZKMAAAAAAB17O7ek9Hu7HIlSTICAAAAANSxrzu/u7+rlSTJCAAAAABQyBzDF/rPh3sIWJJkBAAAAACoZW/G+KSMaaOLlSTJCAAAAABQx46M8d91K65VkiQjAAAAAEAdOzPaW7sjXaokSUYAAAAAgDr2dO/t7uJKJUkyAgAAAADUsdr9WfeDGct1rlSSJCMAAAAAQB1fzRgfkTFtcKGSJBkBAAAAAOqYM8bHeghYkmQEAAAAAKhlR0Z7uauUJMkIAAAAAFDLzm7qjnSVkiQZAQAAAADq2Nv9p4zxbhlL/wyQJMkIAAAAAFDIn2eMP5wxrXeRkiQZAQAAAABqWOv+OmN8SLfONUqSZAQAAAAAqOPqjPYkVyhJkhEAAAAAoJYd3a+5QEmSjAAAAAAAtezphozpKBcoSZIRAAAAAKCWP84Y754xrbhASZKMAAAAAAA1rHbnZYz36QwAkiQjAAAAAEARa91fZ7SHuTpJkowAAAAAALVc1T3dxUmSZAQAAAAAqGVX97KM5UYXJ0mSEQAAAACgliljPNa1SZJkBAAAAACoY2/3rozxzh4CliQZAQAAAADq2Nf914x2uiuTJMkIAAAAAFDHWve57lEuTJIkIwAAAABALdd0T81YbnBhkiQZAQAAAABqeWnGdIjrkiTJCAAAAABQx/6HgN+aMR7psiRJMgIAAAAA1LGnOyejneSqJEkyAgAAAADUsa87v7ufi5IkyQgAAAAAUMda97nukRnL9S5KkiQjAAAAAEAd355j/NcZ02bXJEmSEQAAAACgjr0Z4690m1ySJElGAAAAAIA6dme0odviiiRJMgIAAAAA1LGn++PuDi5IkiQjAAAAAEAdq92fdvfPWK5zQZIkGQEAAAAA6vjCHOOjM6aNrkeSJCMAAAAAQB3XZIxP7QwAkiQjAAAAAEAhOzPai1yMJElGAAAAAIBadnVnd5tdjP4Xe3fibXlZ3/l+FSCCoq22LZqbpDuaoWPS6bv69tn7zHOdeXiYp4ISUMYSmaEYqpipYiqKovidfcCcJGoc4myck6CmnUVFkqgok8gM+7kxoDLV9/7Ojro0yXWCgjq/er3Xev0P+3k+67cfSZIRAAAAAKA6Hi+9O6fGK3NacGEkSTICAAAAAFTIp3NqdOY0v6PbIkmSEQAAAACgOr6RU2OytJObIkmSEQAAAACgOu7JqVjhhkiSZAQAAAAAqJbvl9a4HZIkGQEAAAAAquWx0rU5Xfd8t0OSJCMAAAAAQLV8uPSHOc0vczskSTICAAAAAFTHF3Mqeks7uhmSJBkBAAAAAKphS+kfcipG3QhJkowAAAAAANXyQOmInBZ2diMkSTICAAAAAFTHo800tyanhee4DZIkGQEAAAAAquXNOc2/yE2QJMkIAAAAAFAtH8up+MOSiyBJkhEAAAAAoCKeLH0qp+L/NgBIkowAAAAAANWxpfTNnBopp4Wd3ABJkowAAAAAABXRTHP3lo4wAEiSjAB+GAAAAADVGwHW5DT/fDc/kiQjgB8GAAAAQKUUby+9yK2PJElGAAAAAKA6nii9L6fiNzwELEmSEQAAAACojidLn82p0ZHTwg5ufCRJMgIAAAAA1bClmea+3kyN2ZwWdnTbI0mSEQAAAACojoeaae6onOZ3ddMjSZIRAAAAAKjQVwA5FeeVXuCWR5IkIwAAAABQHY/nVPxZaSc3PJIkGQEAAACA6lh8CPjDOc3/jtsdSZKMAAAAAECFBoBmmvtsMzXqOS0sc7sjSZIRAAAAAKiOm5tpbs+c5nd2syNJkhEAAAAAqI4HcypWlZ7nVkeSJCMAAAAAUB0/zKk4w0PAkiQZAQAAAIBqeaL0lpwWdnWbI0mSEQAAAACojsebae4jzTT/W25yJEkyAgAAAADV8vlSd07zO7rJkSTJCAAAAABUx7dyKvYtPdctjiRJRgAAAACgOu7JqTjcQ8CSJBkBAAAAgGr5YemcnBZ8ASBJkhEAAAAAqJDHmmnuzQYASZKMAAAAAED1fCSnxu+6tZEkyQgAAAAAVMsXcyr6Sju6tZEkyQgAAAAAVMOW0tdzKqYNAJIkGQEAAACAarm3dFROC89xWyNJkhEAAAAAqI5HmmnunJwWdnZTI0mSEQAAAACokGaa+/Oc5l/klkaSJCMAAAAAUC0fz6n4Azc0kiQZAQAAAIDqWHwI+HM5FW2lZW5oJEkyAgAAAADVGQC+mVNjNqeFHd3OSJJkBAAAAACq465mmjsyp4Wd3MxIkmQEAAAAAKrj0WaaW5vT/AvcykiSZAQAAAAAquVNORUvdSMjSZIRAAAAAKiOLTkVHy/9ptsYSZKMAAAAAEClBoC5L+bUaMtpYZnbGEmSjAAAAABARQaAZpr7RjM1pnNa2NFNjCRJRgAAAACgOu5tprmjcprf1S2MJElGAAAAAKA6Hi1dllPxYjcwkiQZAQAAAIAK/Q1Q6V2lF7p9kSTJCAAAAABUx5OlT+R07SvcvEiSZAQAAAAAquWGZprryKnYwc2LJElGAAAAAKA6vlXaO6f5nd26SJJkBAAAAACq44HSSTkVu7lxkSTJCAAAAABUxw9Kl5cMAJIkGQEAAACACll8CPgtOS08z02LJElGAAAAAKBCmmnuEzkVv+WWRZIkIwAAAABQLV8udeY0v4NbFkmSjAAAAABAddxaOjCn4rluWCRJMgIAAAAA1fFg6aTSrm5XJEkyAgAAAADV8XDpwpwWfAEgSZIRAAAAAKiSZpp7U07Ff3KrIkmSEQAAAAColk/m1PhtNyqSJBkBAAAAgGr5Wmkgp2IHNyqSJBkBAAAAgOq4o7R/6TluUyRJMgIAAAAA1XFv6Zic/nRnNymSJBkBAAAAgOp4pJnmLsyp2M0tiiRJRgAAAACgWv4ip/mXuEGRJMkIAAAAAFTLZ3IqftftiSRJRgAAAACgWr5e6iktc3siSZIRAAAAAKiGLaVbcmrM5vTGndycSJJkBAAAAACq475mmjs2p2IXtyaSJBkBAAAAgOp4pHRRTvMvdGMiSZIRAAAAAKiWv8ypeIXbEkmSjAAAAABAtXyp9FtuSiRJMgIAAAAA1bH4EPBNOTX+d05vXOamRJIkIwAAAABQHbc001zKqdjJLYkkSUYAAAAAoDruLR2b0/yubkgkSTICAAAAANXxcOnSnIr/7HZEkiQjAAAAAFAtby+9zM2IJElGAAAAAKA6Fh8C/kJO1/0XtyKSJBkBAAAAgAppprmbSv87p8KliCRJRgAAAACgQm4p7ZHT/HPciEiSZAQAAAAAquO+0ok5FS9wGyJJkhEAAAAAqI5HSpeXXuwmRJIkIwAAAABQHYsPAb81p+sMAJIkGQEAAACAKmmmuc/lVLzUDYgkSUYAAAAAoFq+llOjze2HJElGAAAAAKBabi3tn1Oxs9sPSZKMAAAAAEB13F86sbSbmw9JkowAfhwBAABAdTxcujSna1/o1kOSJBkBAAAAoDq2NNPcm3IqXuTGQ5IkGQEAAACgWj6d0/zubjskSZIRAAAAAKrlppyKXjcdkiTJCAAAAADVck/poNLObjokSZIRAAAAAKrjwdKJOc0/zy2HJEkyAgAAAEB1PNxMc5fnNP8SNxySJMkIAAAAANXxZOlNORWvcLshSZKMAAAAAFAtX8qpeKWbDUmSZAQAAACAarktp2LArYYkSTICAAAAQLV8N6fGvjnNP8ethiRJMgIAAABAdTzQTHMn5jT/fDcakiTJCAAAAADV8b3S+pyKl7jNkCRJRgAAAACojidK78ip+E03GZIkyQgAAAAAlVJ8tfT7bjEkSZIRAAAAAKrl1pwaHW4wJEmSEQAAAACq5bvN1Ngnp/md3GBIkiQjAAAAAFTHfaU35FQ83+2FJEkyAgAAAEB1PFzakFPxUjcXkiTJCAAAAADV8UROxXtKv+3WQpIkGQEAAACgWr6c0/x/c2MhSZKMAAAAAFAhzTR3S06NmtsKSZJkBAAAAIBqub20d07FTm4rJEmSEQAAAACq44GcipNLL3BTIUmSjAAAAABQHY/kVFxd2t0thSRJMgIAAABAdTxRendOjf/LDYUkSTICAAAAQIU009wXcpr/rzktuKCQJElGAAAAAKiQb+RUtLmZkCRJRgAAAAColu/mVBxQ2snNhCRJMgIAAABAdTRzKlaXXuhWQpIkGQEAAACgOh4pbcyp8VI3EpIkyQgAAAAA1fF4M829I6f5V3gIWJIkGQEAAACgWj6VU/E7biIkSZIRAAAAAKrl2zkVHW4hJEmSEQAAAACq5Z6cipWlndxCSJIkIwAAAABURy6dklNjNzcQkiTJCAAAAADV8UgzzW3Iaf4/ewhYkiQZAQAAAKA6Hiu9OafiFW4eJEmSEQAAAACq5dM5Fb/v1kGSJBkBAAAAoFpuz6nodeMgSZKMAAAAAFAt95YOzKmxoxsHSZJkBAAAAIDqyM00d1JO87t5CFiSJBkBAAAAoDq+V1qXU/ESNw2SJMkIAAAAANXxWOmtORW/5ZZBkiQZAQAAAKBSis+W/ocbBkmSZAQAAACAavlOTo12twuSJMkIAAAAABXSTHMP5NTYP6drd3S7IEmSjAAAAABQHQ+UVuVUPM/NgiRJMgIAAABAdfxL6bKcipe6VZAkSUYAAAAAqI7HcireWXqVGwVJkmQEAAAAgGr5TE6NP3SbIEmSjAAAAABQIc00d29OjbacFpa5TZAkSUYAAAAAqI67cipSyQAgSZKMAAAAAFAhD+ZUnFB6vlsESZJkBAAAAIDq+H6pyKl4uRsESZJkBAAAAIDqeKL0gZwar3R7IEmSjAAAAABQIc00d0NOjVd7CFiSJBkBAAAAoFruzKlRc2sgSZKMAAAAAFAtd5cOyanhCwBJkmQEAAAAgAr5XumsnIrd3BhIkiQjAAAAAFTHD0tFTo3d3RZIkiQjAAAAAFTH4800976cGq/0ELAkSTICAAAAQLV8OqfGq90SSJIkIwAAAABUy+05NTrdEEiSJCMAAAAAVEszp+IwtwOSJMkIAAAAANXycOmsnBq7uR2QJElGAAAAAKiOHzbT3DU5NV6e04LLAUmSZAQAAACAinis9I6cGv/VrYAkSTICAAAAQHVsKX0yp8afuBGQJElGAAAAAKiWe3IqetwGSJIkIwAAAABUy/9bOtRNgCRJMgIAAABAtXy/mebOyml+NzcBkiTJCAAAAADV8UhpQ06Nl7oFkCRJRgAAAACojh+W3pZT41VuACRJkhEAAAAAqmNL6fM5Ff/L6V+SJBkBAAAAoFKKe3Nq9Dr5S5IkIwAAAABUSPNf3wFYmdPCDk7+kiTJCAAAAADV8b3SSTk1dnXqlyRJRgA/DgEAAKiOfyltyKnxMid+SZIkIwAAAADV8VjpPTkVv+e0L0mSZAQAAACgOrbkVHwhp8b/ctKXJEkyAgAAAFAhzTT3YE6NXg8BS5IkGQEAAAColpxTY5+c5h3yJUmSjAAAAABUSLN0ak6NXZ3wJUmSjAAAAABUx/dLm3Mqdne6lyRJMgIAAABQHY+V3ptT4/ec7CVJkowAAAAAVMeWZpr7ck6N/yenhWVO9pIkSUYAAAAAquPOnBrtOc0bACRJkowAAAAAVMj9OTX2d5qXJEkyAgAAAFAt3yudnVOxq9O8JEmSEQAAAIDq+EGpyKmxu5O8JEmSEQAAAIDqeKKZ5j6QU+P3PQQsSZJkBAAAAKA6tpQ+k1PjTzwELEmSZAQAAACgWr6VU6Pb6V2SJMkIAAAAQLXknIpDnNwlSZKMAAAAAFTLw6U1OTV2cXKXJEkyAgAAAFAdjzXT3FxOjZfntODgLkmSZAQAAACgIh4vvTOnxqs8BCxJkmQEAAAAoDqeLF2fU+N/Oq1LkiQZAQAAAKiW23IqhpzUJUmSjAAAAABUyw9zaqx0SpckSTICAAAAULEBoJnmzs3p2uc5pUuSJBkBAAAAqI7HStflVPxGTvMO6ZIkSUYAAAAAqvMXQHPvzKn4fadzSZIkIwAAAADV8WTps6V2J3NJkiQjAAAAABXSTHP35NQYzWlhJydzSZIkIwAAAADVGQC+30yNlTkt7OhULkmSZAQAAACgOh4tXVja1YlckiTJCAAAAEB1PFLanFPxMqdxSZIkIwAAAADV8VjpvaU/cBKXJEkyAgAAAFAdW0pfyqnR4R0ASZIkIwAAAAAV0kxzdzZTYyynhR2cwiVJkowAAAAAVMejORWH5zTvCwBJkiQjAAAAABXyzzkVa0s7OX1LkiQZAQAAAKiO75caORUvc/KWJEkyAgAAAFAdT5Y+kFPj1TktLHPyliRJMgIAAABQDVuaae4LzdTo8BCwJEmSEQAAAIBquTunYtpDwJIkSUYAAAAAqiXnVBzkpC1JkmQEAAAAoFoeLp2fU+ELAEmSJCMAAAAAFfJ46dqc5n8jpwUHbUmSJCMAAAAAFfFEM829v5kaf5jTwjKnbEmSJCMAAAAA1bCl9JWcip6c5ndwwpYkSTICAAAAUB3fzKkYdbKWJEkyAgAAAFAt/5xTcYhTtSRJkhEAAACAanmsdEFOf7qLU7UkSZIRAAAAgAoNAM00d20zze+e04JDtSRJkhEAAACAilh8CPijpT/OaX6ZE7UkSZIRAAAAgGp4ovSpnIo2J2lJkiQjAAAAANVyc07FhFO0JEmSEQAAAIBqeTSnxiE5LTzHKVqSJMkIAAAAQHX8sJnmLsxpYScnaEmSJCMAAAAA1fLm0m/kNO8ALUmSZAQAAACgIh4rvTOn4lVOzpIkSUYAAAAAquOJ0v/Jqag7NUuSJBkBAAAAqJbbc2pMewdAkiTJCAAAAECFNNPcI83UOMQAIEmSZAQAAACgei7Laf65TsuSJElGAAAAAKrjhzkVReklTsqSJElGAAAAAKrjsdJ7cip+1ylZkiTJCAAAAEB1bCl9PqdGd04LOzolS5IkGQEAAACoiGaau6WZGtMGAEmSJCMAAAAA1fJ4TsUROc3v7HQsSZJkBAAAAKA6vp9TcW5pBydjSZIkIwAAAADV8YPSfE7Fi5yKJUmSjAAAAABUxxOlD+TUeHVOC8uciiVJkowAAAAAVMcNzdToymnB3wBJkiRtD71l+Qnxy/jU+DnxxYkLt6pvTV/uBzkAAMDWc1dpn5zmn+M0LEmStJ3UUavHL6Or1r7Vddc6oucXGK73xGu6puK1XTM/15q+FXHpwOH/oSsGXtcaNt4/evrP+PjY2XHT1CXxzenLfsbiOHHr9IafcdvMhvjOzMb47sxVP+OumU1x7+zmuP+nPJQKhw0AAODZ9r3S0TkVOzoJS5IkbUe1tbUFP9/i8LBvx8jPOLBzLI7r2StO7z3gZ5zdd1BsGjwyGkPHtrxx+PXx3tFT42NjZ7X8zfjZ8fcT58ZnJ85v+Vzpq5MXxz9OXfITt0z/68DwYw/MXuPAAgAAPBWPlC5xApYkSTICsJW1t9VjtN4bM+2DLbPtQ3FI12Qc1b3HT6zuOyDO6z/kJ64eOiquG171E3+5/ITWsLDoA6Ont/6q6dMT57V8ferSuHn68vj29BVxz+zVDjsAAMDjpTflNL+7E7AkSZIRgCWgt9bZGhIWjbf3x76do3FA51jLUd0pju3ZM17fs1ec2rt/68uERZcPvjYaQ8e0vHX5CfHB0dXxodEz4u/G18RNU+t/oumviwAAoGo+1Exzf5xT4SFgSZIkIwBVtfjmQl+ts2Xx740Wx4OJ0nT7YOzdMfITi18lrCwd3jUdp/fu3/oS4cL+lfFnw8fFW5efGB8ePSM+P3FB3DB5cdzrSwMAANjWfaU0kNO8dwAkSZKMAPCz6m21aG+pR+e/ebx58WuE/npXy2T7QBzWNdX6CmFt/4rWw8uLXxy8d+S01tcGi39TtPj3RItum7ky7igtvnVw1+ymlvtaDyhfEw8mbx8AAMDT6NbSvh4CliRJMgK48OYZ0dFWb72BsF/HaLyuezZW9x3YsnHwiNZbB28bOSn+dvzs+MT42taDyV+YuCD+aerS1jsHt05viDtnrmqNBQ5zAADwCz1UOsqJV5IkSUYAtjmLXxtMtve3BoNjuveIVT17xZl9B8aF/a+JzUNHxcLw6+Mty09oPYr80bEzW18aLA4G35q+Im6Z3tD6ssChDwCA7dhjpfU5LTzXiVeSJElGAJbsGwdj9b6YaR9sPYh8cNdkHNezVxzfs3drMDin/+DWYHDd0LHxtuUnxkfGzoxPjZ/Tevx4cSxwMAQAoML+vPRyp11JkiQZAai0nsV3C2pdsbze23q3IHUMxb6do3Fg53gc1jUdJ/buG+f3HxLF0NHxVyMnt/6K6EuTF8XdHjwGAGDp+njpf+Q0v8xpV5IkSUYAPHz8o0ePu3/qsePBeneM1Hvj8MWhoGefWD9wWMwNHRMfHD0jPjl+Ttw2syFu//HjxjNXxT2zV7f+guiB2WuimQoHTwAAng1Plm4oDeRU7OCkK0mSJCMAPAXD9Z7Yp2MkjupOcXbfQXHF4GvjT4dfHx8aO6P1sPHnJy+Ir0xe3HrY+MePGj9kIAAAYOvYUrq5tIcTriRJkowAsJXVSot/P7Rf52hrJDij78C4aOA1cd3wqnjr8hNbDxpfP74mPjdxfnxj6rK4Y2ajgQAAgKfin0tH57SwsxOuJEmSjADwLFr866HFvxras2N5HNQ5Eat69oxTeveLc/sPjo2DR8Qbh1e1RoLFrwlunFzXGgj8xRAAAD9PM81dkFPxPKdbSZIkGQFgG9ZVa289ZDzR3t96xHjxS4JDuibjtd0zsbb/4Ngw+Lp4y/IT4mNjZ8UXJy70gDEAAIvemlNjdydbSZIkGQFgCfvxA8Y9tY7WULD4ePHyem/s0TEcJ/zo8eI3DR8ffzu+Jm6evjzu/DePFj+YPFoMAFDBh4D/pvRHORXLnGwlSZJkBIDtyEC9q/Vw8cm9+8XFA4fGm5cfHx8dO7P1DsENkxfFN6Yvaz1YfPfsJu8RAAAsPU+UPlfqdKKVJEmSEQD4qXGgO2bbh+LYnj1jdd8BccXg6+JPh18f7xk9NT48dkZ8ZuK8uHFqXdw2c2U8MHuNAzYAwLZnS+mW0t45LezkRCtJkiQjAPAL9df/9S2CAzrH4oju2dZjxef1HxJXDR7Z+orgQ6NnxOcnLmh9PeDLAQCAZ9XDzTR3RE7FLk6zkiRJMgIAT/mx4uF6T0y1D8Q+nSOxsmsyjupOcenAYXHt8KrWXwwtPlJ8v68GAACeKetzmn+ek6wkSZKMAMBW8+NHihffHlgcCcbb++M1XVNxdt9Bcd3wqvjg6Or4p6lL467ZTT95nHjx74V8RQAA8JTeAXhn6aVOsZIkSTICANvMlwSLXw8s/r3QNUNHx9tHTorPTpwfX568OP5x6pLW3wt9d+Yqh3oAgJ/v8dKHS690gpUkSZIRANimddTqMd0+GCu7puK03gNi3cBh8baRE+O9o6fG9eNr40uTF8W3pi/3MDEAwL96svSFnBp9OS3s4AQrSZIkIwCw5NRKfbXO2KNjuPW3Qif07hMX9K+MzUNHxV+NnByfHD8nbppaH01/JwQAbH9ua6a5vXIqdnZ6lSRJkhEAqNzfCY3We2PPjuWxonMiVvXsGWv7VsT80LHx4dEz4quT6wwDAECV/UtpVU7zuzi5SpIkyQgAbB9/J9RWbz1KPFjvjtH23pjtGIrjevaO9QOHtb4a+PTEea0HiX/8GPGDqTAUAABL9SHgK3MqdnVqlSRJkhEA4Ke0t9XjkK7JOLl3v9ZfCr1v9LT43MT5rb8Uunn68vjOzEZvDgAA27JHS39ZMgBIkiTJCADwy6i31WLfjpE4pmeP1nsDbxx+fbx75JS4fnxNfG1qXdw6vcEwAABsKw8BfzSnxn/PaWGZE6skSZKMAABP4c2Bxb8TOrI7xWm9+8fFA4fGXyx/Q3xs7Kz44uSF8d2Zq1xEAADPtC8201xfTsWOTquSJEkyAgA8zRbfGlgcBg7oHGuNA2v6V8TVQ0fFX4+ujq9PXeZrAQBga7q9tG9O8zs7qUqSJMkIAPAMvS+w+BDxUL0nJtr7Y//OsXhDz95RDB3d+iuhW6av+NEDxNfEQx4hBgB+fd8rnZxT8VynVEmSJBkBALYhY/W+eH3PXnHFwOviXSOnxJcnL4p/mrokvj19Rdw1s6k1DrjYAAB+jh+WLnQ6lSRJkhEAYAnornXEfp2jsapnz7hk4PB46/IT46NjZ8bnJs6Pb05fFvfObnbZAQD82BOlt+V03YucTiVJkmQEAFiC6m21WF7vbb0zcHzPPnHRwGviuuFVrXcGbpi8KO6e3eQCBAC2Xx9pprlX51QsczqVJEmSEQCgInprnTHVPhAruibi2J494/z+lfEXy9/Qemfg1ukNLkQAYPtwQ2kgp/kdnUwlSZJkBACosI5aPfrrXTHa3hszHYPx2u6Z1hcDfzVyctw4ue4njw43XZYAQFV8p3RwTsXOTqWSJEkyAgBs50bqvbGqe8+4YuC18f7R0+PGqXWt9wVun7ky7pm92jgAAEvL/aWjnEYlSZJkBADgP9RT64iDOyfi9N4DYtPQkfGe0VPjU+PnxNem1sV3Zja2vhxwwQIA26THSxfltPBcp1FJkiQZAQD4pR8fTh1DcWT3bKzpWxHF0NHx7pFT4wuTF8YdMxtduADANqKZ5t6SU/ESJ1FJkiQZAQD4tXXV2mOsvS8O6hyPY3r2iHP6D44/Gz4urh9f2/pSwCUMADwrPl56dU7zy5xEJUmSZAQA4GnT3laPgXpXaxjYq2N5rOrZK64ePCr+dmxN3D+72aUMAGx9N5WW51Ts6BQqSZIkIwAAz4jaj/5KaPGLgQv6V8ZfLj8xvjB5QXxj+rLWFwOLA4FHhwHgKdlSurmUSg6gkiRJMgIA8OzqbGuPPTqG44y+A+O64VXxwdHV8ZmJ8+Kfpi6Nu2c3ucwBgF/Ng6VVOS3s7PQpSZIkIwAA25zeWmfrL4Re37NXXDRwaCwMHxcfGj0jbpxcF3fPXu1yBwB+/kPA5+ZUPN/JU5IkSUYAAJbE3wf11Dpiun0wXtM1Fcf37B0bB4+Ivx5dHf8wtT7u874AAPy0d+Q0/2KnTkmSJBkBAFiyFkeB0XpvpI6hOKxrOtYPHBYfGzsr7pjZ6PIHgO3Zl3Iq/mfJoVOSJElGAACq9LVArfXYcFetPfbuGInz+g+J94yeGv8wdUncMn1F3DWzKR5MhcshAKrqydKNORXdpWVOnJIkSTICALBd6KjV45Cuybigf2W8Y+Sk+LvxNfHVyYtbXww8ZBQAoBq2lG7JqbFvTgs7OW1KkiTJCADAdmuo3hOHdk3F2v6D49rhY+P9o6fF5ycuiDtnrnKJBMBSlZtp7sSc5l/gpClJkiQjAAD8yOJfB42398dBneNxQu8+cfnga1tfC9wweZHHhgFYSi7MqXiRU6YkSZKMAADwC0aB5fWemO0YipVdU7Fu4LD48NgZcevMBhdMAGyjik+UXuyEKUmSJCMAAPyKFh8aXnxToK/WGQd1TsT6gcPiI2Nnxs3Tl7feFLh39upoelcAgGfHE6VP51S8suSAKUmSJCMAADwdaqXhek8c27NnbBw8svWlwJcmL4xbpjfEA7PXuJQC4Jl6CPjLOTV6clrYwelSkiRJRgAA2Ep6a51xQOdYrO47MK4ZOjre+6OHhr8zs9ElFQBby23NNLcip/ldnSwlSZJkBACAZ0h7Wz1G2/tiRedE66HhKwdfF+8bPS1umlwf9/tKAICnR7P0hpyK3ZwqJUmSZAQAgGdRd60jxtr7Yq+O5XFUd2qNAtePrYk7fSUAwK/9N0DFXOmFTpSSJEkyAgDANvaWwOKXAl219tabAkd0z8amwSPjE+Nr49bpDfHdmau8KQDAz/N4TsVHS891mpQkSZIRAACWkMn2gTi1d7/4i+VviOvH18ZNU+tbo4ALLwB+5MnS9TnNv8pJUpIkSUYAAFjCBuvdcXj3TKwbODTePnJSfHJ8bXxj+rJ4MBUuwQC2X19pprmRnOZ3cpKUJEmSEQAAKvL3QX21rtincySO6dkzLh44NN45cnJ8ZfJifxsEsH25pXRgTsUuTpGSJEkyAgBARXXU6jFS7429O0bi2J49Y+PgEfGp8XOj6QsBgCr755yKs0vPd4KUJEmSEQAAtpuvBGqtUaC31tkaBhbfE/irkZPja1Pr4zszG+Pe2c3xkHEAYKl7NKdik4eAJUmSZAQAAFo629pjZddkXD7w2vjr0dVxw+RF8a3py+O+2c0u0wCWlidK785p4XlOjpIkSTICAAD/TletPfbpGImTe/eNTYNHxl+Pnh5fnrw47p692uUawDaumeY+kVPjT5waJUmSZAQAAH4p4+19cWjXdJzVd1DMDR0Tfzu2Jm6fudJlG8C254aciqHSTk6NkiRJMgIAAL/yewJ9tc6YaR9s/XXQRQOvifePnm4QANg23JVTcZh3ACRJkmQEAACeFj9+YHis3hfHdu8Zbxo+Pm6cXBffnbkq7p/dvPiXFC7lAJ4ZD+VUnF7a2WlRkiRJRgAAYKu+J3Bw12RcOXhE/M342fG1qXVxx8zGeCgVLukAto4fltbntLCLk6IkSZKMAADAM6azrT1WdE3Euf2HxJuXHx9/N74mbp6+3CAA8PQ+BPyunOZ3d0qUJEmSEQAAeFa/ENijYziO69k71g8cFu8fPS1umlofD85e4xIP4Nf3dzkVf+SEKEmSJCMAALDNaG+rx0R7fxzQORYn9u7b+krgxql1LvMAfjXfzKkYLe3ohChJkiQjAACwTaq31aKn1hHD9Z44rGs6Ng0eGZ+ZOC++M7Mx7pvd7K+DAP69LaU7cyoOLj3H6VCSJElGAABgyZluH4y1/SviPaOnxg2TF8W3pi+PB/x1EMCi+0vH5bSws5OhJEmSjAAAwJL/UmC6fSBO6Nkn3ji8Kj46dlZ8fepSbwkA26vHmmnuspzmX+JUKEmSJCMAAFC5twQm2wdiVc+ecdnA4fG+0dNag4C/DAK2I2/LqXiZE6EkSZKMAABApXXU/vVx4RVdE3FK737xjuUnxa0zG1wQAlV2Q07FHzkNSpIkyQgAAGx3fxnUV+tsjQLHdu8Zb15+fHx7+orWw8IP+koAqMZDwDfnVAyUdnAalCRJkhEAAKB0ZHeKNw6/Pj49cV58Y/qyuGf2apeJwFIcAG7JqbFXTgs7OglKkiTJCAAA8G8sfiVwRPdsXDV4RHxg9PT4yuTFca9BAFgaHmymuZNzmn+BU6AkSZKMAAAAv8BgvTsO75qJC/pXxpuWHx+fmzjfw8LAturR0rqcipc4AUqSJMkIAADwK6i11WKo3h37dY7GG3r2joXh4+KLExf6QgDYhhQfLr3M6U+SJElGAACApzQItEVvrTNG671xcNdkFENHx02T6+P+2WtaXwk0XUYCz/g7AMWNpVc5+UmSJMkIAACwFdTbarGyayrmho6JT46fE1+futTDwsAz9RDwV3Nq1HNaWObkJ0mSJCMAAMBW1lPriJVdk7Fp6Mj46NiZcdPU+rhvdrPLSmBruLWZ5lbkNL+LU58kSZKMAAAAz/DfBo3Ue+Po7j1i/cBh8faRk+Irkxe7tASeLveXTsipeIETnyRJkowALiIAgGf574IWB4EVnROxtm9FvHvklLhl+gqXmMCv69GcimtKL3bakyRJkowAAMA2pL2tHoP17phqH4gTe/eNd42cEt+ducqjwsCv8hDwxw0AkiRJkhEAAFgi+mqdcWrv/q1B4KuTF8dtMxvigdlrXHYC/9aTpU/ndO0rnPIkSZIkIwAAsARNtPfHKb37xZuXHx9/P3Fu62+DHkyFy09g0deaqTGU0/wOTnmSJEmSEQAAWOJ/G7Rnx/I4rXf/mBs6Jj4xvjbumtnkEhS2X98uHZBTsYsTniRJkmQEAAAqpKfWEXt3LI/je/aOPx8+Lm6ausTXAbB9aeZUnFF6gdOdJEmSZAQAACqq1laL/npX61Hhk3r3jXeOnBx3+zoAqu6xnIprS//JyU6SJEkyAgAA2+FXAotvCCw+KnzT1Pq4Y2ZjPOQrAajSQ8Bvz2nheU51kiRJkhEAANjOzbQPxZl9B7UGgS9MXtgaBJoGAViymmnuMzk1/sCJTpIkSTICAAD8REetHgd1jsfZfSviTcuPj89OnB/3zW52qQpLy1dyKgZKOzjRSZIkSUYAAID/0GC9Ow7oHIuz+g6Kd4+cEjdPX+5yFbZ9d+ZUrCw912lOkiRJMgIAAPxC7W31GK73xN4dI3F230HxwdHV3g6AbdM/51SsKT3fSU6SJEkyAgAA/MpqLbUYqffG2v4V8dGxM+Nb05fHPbNXu4CFZ9cPcio25fSnuzrFSZIkSUYAAICn7SuBAzvHY+PgEfHxsbPiH6cuiQdmr3EhC8/8Q8DvyWn+5U5wkiRJkhEAAGCrGKr3xDHde8Q1Q0fHx8bOilumr1i8mHRBC1vf53Nq/LHTmyRJkmQEAADY6jpr7ZE6hluDwHXDq+KLExfG/b4OgK3lm6XxnBo7OL1JkiRJRgAAgGdUf70rZtoH4w09e8c7R06OO2eucmkLT59m6XU5Fc91cpMkSZKMAAAAz+qDwu1tteivdcXJvfvFR8bOjG9PXxF3z26KZipc5sKvNwCcmtMbDQCSJEmSEQAAYNvS0VaPfTpGYv3AYa1BYPFB4ftmN7vYhV/OD5ppbmNO8y9xYpMkSZKMAAAA2/iDwt1xbM+esWnwyB89KLwhHvJ1APw878yp8dtOa5IkSZIRAABgSX0dkDqGYtWPBoFPjq912Qv/3ldyarzaSU2SJEkyAgAALFm9tc6Ybh+M43r2ircuPzFund7g8hfS3D2lkZyKZU5qkiRJkhEAAKACDwrXoqNWj5F6b5zYs0/8zdjZcdvMhtb7AU0Xwmw/tpTuLu2f03U7OaVJkiRJRgAAgIqOAm1xQOd4FENHxyfG18Y3py/zfgDbgwebae60nOZ3c0KTJEmSjAAAANuF8fb+OKF3n/iz4ePiMxPnxb2zV7sspoq+X7oqp8buTmeSJEmSEQAAYLvTU+uIAzvHY03finjnyMnx7ekrounrAKrjvTk1ftvJTJIkSTICAABs19rbaq23A/brHI1LBw6Pz09c4AKZpe6OnIpXOpVJkiRJRgAAAH5mEKhHb60zVnROtP4u6B+mLom7Zjf5QoAl9BBwcVtOja6crlvmVCZJkiQZAQAA+DkWvxBY3XdAfHjsjPja1Pq4x/sBbNvubKbGQTnN7+xEJkmSJBkBAAD4JXXW2uOwrunYMPi6+PDoGXHz9OUunNnWPFBanVPjRU5jkiRJkhEAAIBfQ72tFpPtA7GqZ69oDB8bX5y8MB6YvcYFNM+275c259TY3UlMkiRJMgIAAPA06Kt1xV4dy+P0vgPi/aOnx92zm1xG82y5PqfiN5zCJEmSJCMAAABb4euAnlpH7NExHJsHj4obJ9e1BoGHPCbMM/MQ8M05XfsKJzBJkiTJCAAAwDNgoN4dp/fuH+8bPS2+Orku7vWYMFtJM83dnFOjP6d5BzBJkiTJCAAAwDOpo60eB3WOx9WDR8bfjJ0d356+wtcBPJ3uKL0mp8YuTl+SJEmSEQAAgGfx74JSx1Cc1LtvXDe8Kr4yeXE0jQE8NQ+Wzsyp8SInL0mSJMkIAADANqDWVouBelfs2zka5/YfEp+ZOC/un93sQptf1aOlhZyKlzp1SZIkSUYAAAC2xb8KqtVbg8DBXRPxF8vfEN+Yvizum928+B/vLrn5RQ8Bfyina/+LE5ckSZJkBAAAYIkYrHfH+f0r4/rxtfH1qUtbg4ALb/6Dh4BvzGn+t522JEmSJCMAAABLUE+tI47uTjE/dGx8avycuHPmKpff/Ng3cmqMOmlJkiRJRgAAAJa4rlp77NMxEmf2HRjvHjml9XWAS/Dt2p2lQ3Nq7OKkJUmSJBkBAACo0GPCY+19sbJrMi4dODxumLwoHkqFS/Hty7+Uzs2peKFTliRJkmQEAACgojpr7TFc74nX9+wZHxo9I+6e3RQPzF7jkrzafpBT0cjp2hc7YUmSJElGAAAAthP1tlrs2TEc1wwdFZ+dOD9un7nShXn1bGmmuXflNP9ypytJkiTJCAAAwHZqvL0v1vStiA+Oro5/nLrE1wHV8aWcGv/dyUqSJEkyAgAAQCyv98Yx3XvE3NDR8fmJC4wBS9u3SiNOVZIkSZIRAAAAfkZfrSv27RyN03r3j/8zfl7cN7vZpfrS8lDp8JyKnZ2qJEmSJCMAAAD8h9rbajFS743Xdc/E20ZOittmNvg6YNv3vdJZOc3v5kQlSZIkGQEAAOCXNtM+GOv6D40bJi+K26Y3xIOpcOm+bXmkmeY25jT/EqcpSZIkyQgAAAC/lqF6T6zuPSDeNXJK3Di5ztcB24YnS3+VU+O/OUlJkiRJRgAAAHjKBuvd8bru2dg4eET8/fi5xoBn1w05Nf7QKUqSJEkyAgAAwNOqq9Yee3eMxBl9B8YHR1fHnTNXuZR/Zt2bUzHsBCVJkiQZAQAAYCs+JFyPoXp37N85Fn82fFzcPnNl692Apkv6remh0iE5zT/HCUqSJEkyAgAAwDNmuN4T5/YfEp8YXxu3TF/hIeGnX7OZ5k7Oaf75Tk+SJEmSEQAAAJ6lh4S74w09e8dbl58YX528OO6b3ewC/6l7uHRVTo3dnZwkSZIkIwAAADzrOtrq8drumbiy9ZDwOXH37CaX+b+eJ0rvyqnxO05NkiRJkhEAAAC2uYeE9+kcidV9B8QHRk/3N0G/um/mVPyBE5MkSZJkBAAAgG36IeHFdwMO7ZqK942eHvfMXu0R4V+ouD+nRp/TkiRJkmQEAACAJWWmYzCKoaPjy5MXxZ0zV7nw//fubabG/jnN7+S0JEmSJBkBAABgSZpqH4jz+1fG9eNr4pbpDfGQvwta1Cydm1PxYiclSZIkyQgAAABLWq2tFpPtA3FG34Hxl8tPiK9PXRrN7XcMeLh0TU7FbzolSZIkSUYAAACojHpbrfVuwOHd03HV4BHxtcl129sA8GTpY6Xfd0KSJEmSjAAAAFBZPbWO2KNjOC7uf018dXJdPLgdfBnQTHP35DT/ezkt7OCEJEmSJBkBAABgu9BVa49juveIj4yd2Xo34P7Za6o4ANyZU6Oe04LDkSRJkmQEAACA7U97Wy2O7t4j3rz8+Lhh8qK4b3ZzVUaAe3Iqjirt7GQkSZIkGQEAAGC71l3riEO6JuOKwdfG9eNr4u6ZTUt5AHgwp2JN6cVORZIkSZIRAAAA+KkvA/bqWB6r+w6Ivx5dHXfMbFxqA8APSgul33QikiRJkowAAADA/88YMNLeG0d2p3jL8hPi3tmrl8IAsKWZ5v4+p/n/mtPCMiciSZIkyQgAAAD8AvW2Wky2D8TVg0fFTVPr4+7ZTdFMxbb4EPBXc5p/pYeAJUmSJCMAAADwa4wBM+2DccnAYa13A7axvwq6I6di3ClIkiRJMgIAAABP0UzHYKztPzg+OLo6bp+58tkeAL6bU3FEaWenIEmSJMkIAAAAPE2m2gfilN794u0jJ8Udz84Y8L3SBaUXOwFJkiRJRgAAAGAr/E3QcL0nDuuajjcvPz7ueeYeEX6imebelNP8yz0ELEmSJBkB4P9j776D5CzvfG/3jLIQAoRtcs7BZHX35EdCgMgiB4OJxmYJNsZEGwRG2CCEekZppJlRBBEE6OnBgDGop/d913v2eN/d9VnvOttggQCRREagdJ9nsHgX6MEGoTDh+lRdpf3nVJ2qU1unnu+PnhsAgHUoncgOzYRR2UNDy4hLw38efVtYfPyk9gd719UBIP/aqKZtPQQsSZIkOQIAAAAb4N2AhuEXhX88cnR49rgJa/sI8B+vjWo8yFePJEmS5AgAAABsQEdlo/CjYeeGx0ZeH546Nrc2DgBPvTaqcaQvHkmSJMkRwEcXAAB0kncD2h8R/l7taSE+/Oqw8LiGNT0AvJr4h0QfXzySJEmSI4APLgAA6GTHgCMyteGcqqPDQ4dfFRYfP/nzHACWLRk19ZbXRjVt6h0ASZIkSY4AAADQiVWms2FUxaFh+ohLw2+OueODR4T/xgHg3SWjpk56bVTTlx0AJEmSJDkCAABAF3J8xaHhzuEXhl8cdUtHfypoeeLh10Y17uErR5IkSZIjAAAAdFEnVRwWxkTnhJ+N/EH4y3H1YcmoxvYjwL+8NqrxEF84kiRJkhwBAACgi8sOTYfjs4eGq2pPC/OPvO69trMmneHrRpIkSZIjAAAAdCNV6WwYevHlK/o15v53qqn+3FRjbrCvHEmSJEmOAAAA0MWlM9lwwDnnhY0mjA2p5vpViaWJf0s11X89Na1+y9TUXG9fPJIkSZIjgA8oAADoYjKZbKg8+Yzw5Tt+3H4A6MgvUk31ZyV2SjXm+vjykSRJkhwBAACArvALgHQ6VB55bNjyh6M/7QDwoWWJR1NN9Rcl9kw1OQZIkiRJjgAAAECnFkWHhe1uuP7vHQA+akmikBidas7t5StIkiRJcgQAAAA6ocp0Nux01fdCr2m5z3ME+NBbif9IXJdqzm3na0iSJElyBAAAADrRQ8D7XXxJ6DV1/JocAD6q/QHh3yWuTeyQas719WUkSZIkOQIAAAAbSDZbESrPviAMmnDHFz0AfNIfE99L7JVqbhjkC0mSJElyBAAAANbnASCTDZkTTwmbjR2ztg8AH1qR+NfETYnaVEvDRr6UJEmSJEcAAABgHcuk06H6yOPCV8aMXlcHgI9alvivVFN9Q6qlodrXkiRJkuQIAAAArMtfAdQOC9vccH0oX7OHgNfU+4nfrj4G7OurSZIkSXIEAAAA1vZDwNls2OOaa0PZ+j0AfPIY8ExiQqq5YY9EP19QkiRJkiMAAADwBVVkK0PlRZeFsqYNdgD4uKb6Jcm/45N/90u1NAz2JSVJkiQ5AgAAAGtyAMhUhEPOPDsMmDC2cxwA/seqxJ8St3pAWJIkSXIEAAAAPqfKdDZkTzw1bHLHmM52ACh9QLi5/pZUc+6rvqokSZIkRwAAAODvvQEwNB2GjjwqfOWW0aG8qb4zHwE+9FbiPxLXpZpz2/u6kiRJkhwBAACATxMNDzveeEPneQfgs3sn8d+Jq1PNuW0TvX1pSZIkSY4AAADAh+8AVFSFg66+vquN/x35c+LaxG6p5twAX1ySJEmSIwAAAPRoVdmqcPD53+gOB4CP+tfElYkDU825/r68JEmSJEcAAADocaozleGQr3099J84trsdAT78M0H/nLgx1ZzbP+EDTJIkSXIEAACAniEzNB0OPPHksOnYMaGsqb47HgE+/oBwU/1lqcbcJr7CJEmSJEcAAADo9g456uiw1Zibu+JDwGvqzcT/TjXVfy01LbdZalp9earRrwMkSZIkRwAAAOhmKg89POx5w+ieMv535N9TTfXnJrZLNeZ6+zKTJEmSHAEAAKBbqKmoDntdcWVPPgD8j6b6xxPnJP/z9qmZuXJfaJIkSZIjAAAAdFm12apw0AUXGf8/7rXEvMRZqZb6L6Vm+hNBkiRJkiMAAAB0MdmhmXDwmWeHQQ23G/5LrUwsSjySam4Y5UtNkiRJcgQAAIAu5eCTTgmbj701lDUZ/f/OMWBxqql+dqql4YDkf+6V/OvDTZIkSXIEAACAzimdTofqo0eF7W+9xcj/+byVuDuRSTXnBvl6kyRJkhwBAACg8z0EPOzwsMt11xr119xTiZscAyRJkiRHAAAA6FSiitqwx3evNOR/ccsTv0z8MDWt/qupxlxvX3OSJEmSIwAAAGwwFUMz4cALvxl6T80Z8deetxO/SDXV35CamtvKF50kSZLkCAAAABvEQWedEwY13G64X3fvBfwq1dxwUmpGbsAHjwfPzPnAkyRJkhwBAABg3cqkM6Hm5DPD5nfeZqxf91Yk/jVxdmKbVFNDua88SZIkyREAAADW2QGg+shjw9Y/vNFAv369n3gk1VR/XKqlYUtfepIkSZIjAAAArHW1w48IO1x/nVF+w3k5MTPVVH9iqiW3mS8+SZIkOQL4UAMAgLWiMlMZ9rryytB7moeAO8GfCPpLoiURpZpzvX35SZIkyREAAAD4Qg646OLQp3G8Eb5z/YmgRamm+vpUY+5Lvv4kSZLkCAAAAHxu2Uw21J51QRgweZzhvXNalXgh8b1US/1OiX6pmTkfg5IkSXIEAAAA/s4BIJ0NVaNOCZvdcauxvfNbnvhF4uJUS8POvgYlSZLkCAAAAPyNA0AmVB91fNjiltEG9q7lrUQ+1VR/Sqo5t7mvQkmSJDkCAAAAJSqGHRp2uv660MtDwF31TwQ9m7gr1VR/aKox19fXoSRJkhwBAACAv8pmw17fuyr0nuoh4C5uWeKZVFP9tNTU3O6+ECVJkuQIAAAAPf4h4IpQc9HloazJiN6NrEy8lGpuuD7VUr9zqqXBLwMkSZLkCAAAAD1NZaYiVJ12Vug3eZzhvPseA36Z+GaqqX7nVHOul69GSZIkOQIAAEBPOACks6HihFPD4HG3Gsu7v3cTP0mcl2rObenLUZIkSY4AAADQjaWHpkPmyGPC1j8cHcqbPATcg7yYuD/VVD8y1Zgb6AtSkiRJjgAAANANHTJseNjp+9eHXtMcAHqg5R88HtxcPy3V0rBXamau3JekJEmSHAEAAKCbqKiqCQdfeW0o8wuAnm5FYkmquaEx1VS/Vaol188XpSRJkhwBAACgKx8AMhUhc/5FBnA+rqn+N8m/Fyd2TjXl+viylCRJkiMAAAB0tQNAOhsOPu3M0GfyOKM3HXkr8Uiqqf6cVEv9kNTMnA9MSZIkOQIAAEBXkBmaDoeccFLYbOyYUGbs5m97PnF3qrlhuC9MSZIkOQIAAEBXeAh45JFh65tuCOUeAuazvxfwh1RT/dhUS25HX5qSJElyBAAAgE6qcvhhYY/rrvcQMGtieeL3ictSTfVbp2bkyn11SpIkyREAAAA6ywGgqibs9+0rjNmsDf8r1VJ/ZKq5YUtfnpIkSXIEAACADawqXRH2u+BC4zVr06uJllRT/YhUS25jX6CSJElyBAAAgA0gOzQTDj7ja2HgxDsM16yLPxH028S4VFNuv0SZL1FJkiQ5AgAAwPp8CHjUiWHz224JZU1Ga9aZdxK/TjXVX56amRvga1SSJEmOAAAAsI6l0+lQfeSxYbubRzsAsD6PAf+cam4Ylfw7KNXi8WBJkiQ5AgAAwLp5B2D4YWHX6641TLMhvJ2YmxiWavJegCRJkhwBAABg7R4AqmrCbt/5tjGaDe2ZxC2ppvqDUjNzvX2lSpIkyREAAAC+oIqhmbDfNy4KfaaON0LTGSxL/DxxeaqpYStfqpIkSXIEAACAL+Dg088MG00Ya3ymM1mVeDXVVP9Iqjk3MtHLF6skSZIcAQAA4HM+BFx7/Clh87G3Gp3prFYk3kg11U9ITa/fOtXc0NeXqyRJkhwBAADgMxwAqkceG7a6ZbShma7yy4A/Ja5INdXvkGr2XoAkSZIcAQAAoOMDQPs7AMMPC9ted7Vxma5maeKRVFP96ampuU19xUqSJMkRAAAAPvkQcGVN2P073wm9p+aMynRVzyUmp5ob0r5kJUmS5AgAAAAfsf+FF4V+U+40JNPVvZf4Zaqp/tpUS24rX7SSJElyBAAAoMe/AzDslLNC/0l3GJDpTm8FvJv4Raqp/tjERqmZuTJft5IkSXIEAACgR8mkM6H2uJPD4Dt/ZDimG2uYkfx7SKolt5EvXEmSJDkCAADQMw4AQ9MhO/Lo8KUxNxqJ6Qm/DPht4ppUU/0eqcZcL1+6kiRJcgQAAKD7/gmgRHb4iLDDddeEXtM8BEyP8XbiicSFqen1m/ralSRJkiMAAADd8whQWRX2vfzboU/jeMMwPdHiRJxqaRjqi1eSJEmOAAAAdLuHgKvP/5YDAD3disRTiRtSTbltUi315amZOR/AkiRJjgAAANB1ZdOZMOKkr4VeUx0A4CP+I3FWqqVhS1/AkiRJjgAAANBlDwDZ404MG43/kdEXSr2XmJOoSjXm+vsSliRJcgQAAIAu9BBwOlSOPCZsffONobzJ4AufYlXiV4nrUi0Nu6Zm5nr5IpYkSXIEAACATi8z7NCw+9VXhz7+DBB8Fm8knkw11Y9KNef6+iqWJElyBAAAgM77Z4CqqsNBl34n9HYAgM9jZeKVVFP97NTU3LappoZyX8eSJEmOAAAA0KlUpLOh5rxvGXThi3kq1dTwrVRT/dap5lxvX8mSJEmOAAAA0CkOANmTTw9l03JGXPji3k7kE8emptdv7EtZkiTJEQAAADbcGwDtDwEff1IYcsetxltYu/6QGJ9qadjL17IkSZIjAAAAbJh3AEYeHbYffUPo5VcAsC4sS/xj4uupxtxGvpolSZIcAQAAYL2pGjYi7HnVNQ4AsO4fDn41MTfV0nBAanqud6o55wNakiTJEQAAANad6uracNBlVxhoYX1q+uAYcG3y7zapRg8HS5IkOQIAAMA6UJnOhv0v+IZBFjbcMeCJxImppobNfUlLkiQ5AgAAwNp7A2BoJlSecmboP+VOQyxsOKsSz6Sa6hsSFanmXF9f1JIkSY4AAADwhVUcd2LY4rYxRljoHJYm/k/iitSM3EBf1ZIkSY4AAACwxmoPPzpsP/qGUN7kIWDoZF5P/DTVktvPl7UkSZIjAAAAfC7pRN2ww8Pu115rbIXO7aVUU/0PE7ukmho8HCxJkuQIAAAAn+Eh4Oq6sPvllxtYoWtYligkTkg15TbxpS1JkuQIAAAAn/4GQDoTDrrwW6Fv43jjKnQtzyXGpZob9vW1LUmS5AgAAAAd/wrglDPCxhPGGVSha3o/8Y+ppvrzU825TX11S5IkOQIAAMD/b9gxJ4Yv3T7GkApd28rEK4mWVEv9LqmZuTJf35IkSY4AAAD06IeA02H44ceErcbcZECF7mNVqqn+hVRz7hvJv5s7BkiSJDkCAADQQw8AlcMPC9tef7XRFLqn9xL3JepSTQ0b+xKXJElyBAAAoCe9AVBdF/a+/Nuh99ScsRS6958I+n3ihlRT/Y6pRr8KkCRJcgQAAKD7S6fDwRd+M2w0yUPA0EO8kViQam44zhe5JEmSIwAAAN3c8BPPDAMcAKAnWphqqr8t1Zzbzpe5JEmSIwAAAN1MJp0Ohx91Ytg4d5sxFHquFYn/kzgt1ZzbLOFPBEmSJDkCAADQ5Q8A7Q8BH3FUGHLraCMo0O7NxMRUU/3Q1Mxcb1/qkiRJjgAAAHRR6faHgIcfFna69prQa5qHgIGP+WVZS/0FG901eUtf65IkSY4AAAB0xSNAdU3Y97LLQ/8pdxo8gU9a1X/WpGeGPj4vF7Xla6Ji3MdXuyRJkiMAAABd5QCQTofK874Z+k/2EDBQqldLw/J9Hp77u7pC/q2oLf/bqNh6ZaK/L3dJkiRHAAAAusBDwCNHnelPAAEdKmupX7Hz/Nm/jtryKxNhtWWJJ6JiviIqtg7wBS9JkuQIAABAJ5RNZ0LV0aNC/wm3GzuBDg4ADcu+cm/zc7WF+KMHgI96MXFdYqeoGHs4WJIkyREAAIBO8wuAoelQOfKYsOUto0NZk7ET+MQBoLl+xeZzp71Y8cSDb0Rt+VWfcgRo93bi4aiYPz4qtvb1NS9JkuQIAABAZzgCDB8Rdrv66tBn6niDJ1Bi4zmNSw756bzno7b88r9xAPioPyRujorx9r7oJUmSHAEAANiQfwaoujYccMnloe+UO42dQIn+Mye9ecCj9z5V99e//R8+h/aHgwtRoXVkVIz9KkCSJMkRAACA9X4AyGRD7TkXeQgY6FDv6ROW7v3w3D984iHgz6P9/9zLiTs+eCugLd/LF74kSVIHtf+NVh+pAACs7YeAK046zdAJdKi8peH9HR6YuWgNx/+O/DxxQlSMN/aVL0mS9ImOykY+VAEAWKsPAVcde2LYZPxtxk6g9CHgloblW97X8lxtIX53LR4BwupfBdwSFfIHRcXYrwIkSZI+7GuVI32sAgCw9n4FMPLosP3oG0J5kz8DBJTafO60xRVPPPhS1JZftZaPAO3eS/xT4utRMR7si1+SJMkRAACAtahq2GFh96uuDr2njjd2AiU2njNl8dCfzns2asuvWAcHgA+1Hxeejwr5luTfbX31S5IkRwBHAAAA1oLqqtpw0D9c7iFgoCOrBsyatGT/R+9d+AUeAv68lieejoqtpyT/DoqKcZkFQJIkOQIAAMCavAOQyYYDzrsglE2909gJlOgzY8Ibe7bevXA9jf+f1P72wF2J9rcC+loBJEmSIwAAAHyeNwCGZsIhJ58W+k/xJ4CADh8CXrbzQ7P/FLXl399AR4Cw+s8P/XPivMSmlgBJkuQIAAAAn1Hl0ceHLW6/1dgJdGir+1qeri3Er23AA8BHLU40R8V4d2uAJElyBAAAgL+jZsTIsN2N3w/lTd4BAEptPnfa0xVPPLh49WO9oZNofyvg51Ehf4Y/DyRJkhwBAADgUwyrGxF2v/rqUO4hYKCDh4A3njPl+UMen/diJzsAfKj9/05LEo1RW7xr8m8v64AkSXIEAACA1Sqqa8Mel14ayqZ5BwAoPQAMmDXplf0euXdxJxz/O/KbxClRMd7YQiBJkhwBAADwEHC2Inz1/AtD30YHAKBUnxkT3tmr9e6/RG35ZV3kCNCu/c2CG6NC655RMfarAEmS5AgAAEDPVX3yGWHThjuMnUCHdpk/5491hfxbXegA8KGlicdW/ypgkLVAkiQ5AgAA0OMcOvK48OXbxhg6gQ5tdV/Lb2sL8etd8ADwoRWJhYmxiW2jYmw0kCRJjgAAAHR/6cThw48M29x8YyhrMnQCpe8ADJk77amKJx58rQsfAD75q4D/jIpxdVRo7esYIEmSHAEAAOjWqqJDw3bXXhXKmnLGTuBjyprrV2w8Z8rzhzw+7/VucgD4qDejQuutyb+7RMW4twVBkiQ5AgAA0P0eAq6pC7tddlnoPdUBACj9BcCAWZNf2//Re59f/ad0Qjf0buLhqJg/Niq2DrAiSJIkRwAAALrPnwHKZkP63AvDoInjjJ1Aid7TJ7y/V+vcp+v+OpSHbu4PiZujYryVJUGSJDkCAADQLQw74fQwuP52YyfQoV3nz/6vukL+rR5wAPjQ24kHomJrxpogSZIcAQAA6NIPAR992HFh8PgfGzqBDv8M0Ffubf5NbSFe2oMOAB9anvh94tKoGG+SKLMsSJIkRwAAALrUAaB2xMgwZMyNhk6go4eAl29299SnK598qCceAD7q/cRdiUOiNo8GS5IkRwAAALrIASA7bETY7rqrQ69pHgIGSqwcPKfxxaGPz3s5asuv7OFHgA/9NnFGVIw3szBIkiRHAAAAOrVsdW3Y75LLwoDJdxo7gRIDZk16c/9H7n1m9X8F7wDwPxYnxkWF1r2tDJIkyREAAIBOKZPNhoqvnx8GTbjD2AmU6D19wtK9H77793Vt+XeN/h16J/FE4pioGPezNkiSJEcAAAA6lSOPPz30n+QAAHT8EPBOD83677pC7BcAf9uKxMtRsXV0YqBHgyVJkiMAAACd4B2AdIiOODb0nXCboRMofQi4pX7Zl+9p+r2B/3P7x0RFVIgHWh4kSZIjAAAAG+wAkD1sZPjyrTeFMmMn8MkDQHP9iiFzpz1T9eRDrxv1P7dViT9GhfwViW39KkCSJDkCAACw3lUOGxH2uOqq0GfqeIMnUGLwnMZXDvnpvOdX/5kbw/6aWZKYm8hGxbjcCiFJkhwBAABYPweA6tpwwLcuCf0njzN2AiUGzJr02v6P3vtU1Jb3DsDaeSvgl1Gh9dyoGPe3REiSJEcAAADWqYpMRag76/zQzwEA6EDv6RPe3aP1rj/WFeJlBvy16sVELirGW0XFVoOEJElyBAAAYN28A1B90umhvNEBAChV3tLw3k4PzfqDwX6d+lVUbD0h+XdQVIwNE5IkyREAAIC1I9P+EPCRx4RBE+4wdgIdPgS8xb3Nf4ra8ksN9etc+1sLP4yKrXtaJiRJkiMAAABrRfVhR4YdR98YypqMnUCpIXOnPV/5xEMvGujXm/b3Fh6NCvkRUTHuY6GQJEmOAAAArLGaukPDnldeGfo0jjd2AiUGz5nywtDH5z27+hFbA/36s/KDPw/Ulr8sKsZDrBSSJMkRAACAz622sjYc/K1LQp/GO42dQIn+Myct2e+RexfWteWXG+U3iFWJ1xItUbF1W0uFJElyBAAA4DPLZivDgedeEMqnOgAApfrMmPDGnq13P2OI7zR+kzg6KsYDLRaSJMkRAACAv/sQ8EGnnh76T/EngIBS5S0Ny3aZP7v9IeD3jO+dypLE96JC6/ZRMS63XEiSJEcAAAA6/jNARx4XvjLuNmMn0KGt7p/+XF3hgz9DY3jvfN5M3JWoiYpxP+uFJElyBAAA4GPqDh0Zdrzh+6GsydAJlPrSPU2Lqp586BVje6fW/guNX0TF/IVRsbW/BUOSJDkCAADwgUNrDg17fO97odc0fwYIKDVo9pTnDvnpvBejtvxKQ3un1/7/Ri9HhfwE7wRIkiRHAAAAQlVVbdj90ktD+VQHAKDEqoGzJr9ywKP3vWxc73JWJP4pKubr/CpAkiQ5AgAA9FDZisqwz/kXhL6NDgBAqb4zJr69z8Nzn43a8suM6l3WnxOXJ7aOinGZVUOSJDkCAAD0IJWnfi1sVn+HsRMoUdbSsGqX+XOerSt88OCsMb1reyMxMyrGB1g1JEmSIwAAQA8x/Ihjw5fH3mrsBDq0zbwZT9UVPhiPjejdw/IP/jxQIX9SVIz7WjckSZIjAABANzay7oiw7U03GDqBDm1699Q/Vz750GuG825nVeKpxHVRMR5i4ZAkSY4AAADdUG3t8LDttVeFsmk5Yyfw8T8B1Fy/cvCcKc+nH3/AnwDq/r8K+GnU1ppO/u1j6ZAkSY4AAADd5SHg6tqwy+WXhd5THQCAEqsGzpq85MBH71scteVXGMp7hN8lzouK8SbWDkmS5AgAANDFZSoqwyHnXRg2njjO2AmU6DNj4nt7tc59rq4t/45xvEd5N/GjqNi6u8VDkiQ5AgAAdGE1J58ZNht/m7ETKP0zQC0NK3eL57Q/BPy2UbzHHgJ+kjjSo8GSJMkRAACgCzp2+DFhcM4BAOjYFvc2/2dtIfYLAO8E/DFxcVSMB1o/JElyBAAAoIsYFh0ehoy50dAJdPgQ8JC5035fvWD+UiM4q70XFVrvSv7dPCrGZVYQSZIcAQAA6KTS7Q8BR8PDNt+/NpQ3eQgYKLFyk7saX8j87IFXorb8KuM3n/DzREVUjAdYQiRJcgQAAKATqqipC1+95LIwYPKdxk6gxMBZk9/a/9H7FkVt+fcN3nRgZeLXiYuiYuvm1hBJkhwBAADoTAeAbGWoOPv8sHHDWGMnUKLvjInv7v3w3IV1f30Q1uDN3/J8oiGxbVSMjSKSJDkCAADQGRx+whlh4/rbjZ1A6TsALQ3Ld35w9n/VFWLvAPBZvfPBnwcqxvtYRSRJcgQAAGADvwMwYvhRYbOcAwDQ4UPAK7a6v+W/6wrxcsM2n1P7uxELo2LrOcm/Az0aLEmSIwAAAOv9AJAOFcMPC5vfdouxE+joALBy87nTFtYsmP+mQZsv4PVELrFbVIx7WUkkSXIEAABgPampGxH2vOrq0HtqzuAJlBg8p3FJ+vEHnlv94Ksxmy+i/Zckj0bF1iMSfhEgSZIjAAAA61p1dV04+JuXhIGTxhk7gRIDZ09+/YBH71sUteWXGbBZi/47cWFUjPtZSyRJcgQAAGAdqcxWhqqzzw8DJ95h7ARK9Jk+4c0983f/sa6Qf99ozTqwODE+KsZbW0wkSXIEAABgHbwDUDvqtDC4YayxEyhR3tLw3s7zZ/+urhCvMFazDrUfmJ6Iiq2Z5N/eUTE2nkiS5AgAAMAXlWl/CPiIo8LASXcaO4GOHgJesc390/8cteWXGqlZT36fODsqxoOsJ5IkOQIAAPAF1R06Mux4803GTqBDQ+ZOe7F6wfzFhmnWs9cTN0bF1h0tKJIkOQIAALCmB4C6Q8O+V1wZek8db+wESmxyV+PL6ccfeD5qy680SrMBtP/65J6okK+KinFvS4okSY4AAAB8DjUVNWH/b14c+k0eZ+wESvSfOenF/R+5d2FdW365MZoN/E7AvyVOjYpxf2uKJEmOAAAAfAaVmYqQ/tq5YeDEO4ydQIm+Mya+vlfr3U/XFfIeAqYzWJV4I2qLR0eF/OCoGJdZVSRJcgQAAODTpNPhwFNOCwMmOAAApXpNb3hv1/lzno7a8u8Zn+l0CvkHk3+/6s8DSZLkCAAAwKeoGnlM2OLO242dQIe2vn/6orq2/CsGZzqp9l+n/FPi6KgYD7SuSJLkCAAAwEcMiw4Lu/7gB4ZOoEObz216rnpB/JKhmU6u/aHq3yQuj4qtm1pYJElyBAAAoP0AUDUs7Hbld0OvaeONnUCJQbOnLBz6+AMvrP7764ZmuoIXo0J+UtQWD7GySJLkCAAA0KPVVNSE/b55ceg35U5jJ/BJq/rPmrR4/0fvfaHur/+FtXGZrqT97Yq2qBjvGRXiXtYWSZIcAQAAepx0RUXY+7zzQr/J44ydQIl+Mya+uc/DcxdFbfllBmW6qPZfr/w6KuRPjwqtG1tcJElyBAAA6DkHgHQ6pE85IwypH2vsBEqUtzSs2Pmh2c/WteVfNyTTDSxMXJ/YMirGZZYXSZIcAQAAuv87AIcfE7b58a3GTqBD286bsbCukF9iPKYbeTMxOyrGO1leJElyBAAA6NZG1IwI247+gaET6NCmd039ffWC+Q4AdEfLE4Wo2FplfZEkyREAAKB7/gKgsi7sfuWVode0nLETKHkIeKPZk58e+vgDrxqL6cZWrn4n4KyoGA9MGGIkSXIEAADoHjJVNWHnyy4NvRvHGzuBkgPAwFmTXznosftfjNryKwzF9ACvJe6MivHOiXJrjCRJjgAAAF37AFBRGQ4894Kw8cRxxk6gRN8ZE5fu1Tp3UdSWf8c4TA/yfmJeVGw9xBojSZIjAABAl5VOZ0LNiaeFr9zxY2MnUKLX9Iblu8yf0/4Q8JtGYXqo/zdxfFSM+1hlJElyBAAA6HoPAY84Omw+doyxE+jQtvNm/L62EDsA0JOtSvwhcVlUjDexzEiS5AgAANBlHFY5LGx3042GTqBDm82d+ofqBfPfNQLDB4eA1xMTo0K8dVTIG2gkSXIEAADo3Cpq6sI2118Typpyxk6g5CHgwXMaX6h44sElxl8o8b8Sh3gwWJIkRwAAgE4rW10b9rn0stB/ynhjJ1Bi4KzJbx/46H0vR2355QZf6NCfEiOjYjzQUiNJkiMAAEDn+gVARWXInHVe2LT+dmMnUKLfzInv7P3w3Oejtvx7hl74m38e6I8fvBNQiL9irZEkyREAAKBTyKQzoeaE08Kmd/7Y2AmU6NXS8P4u8+f8qbYQv2Pkhc90CFicaIgKrdtabCRJcgQAANjwDwEPOzJ8eeytxk6gQ1vPm/672kLsFwDw+bwTFfIPJf9uHxVjw40kSY4AAAAbRmXd8DDktlsMnUBHVg65e+rCurb82wZdWGO/jYrx8ER/640kSY4AAADr9wBQOyzsfs01oXxaztgJlBg8p/H17M8efMWIC1/Y04lvRMXWzSw4kiQ5AgAArBdVVbXhoG/+QxgwaZyxEygxcNbk1w987P72v2u+3IALa8WixOio8MGfByqz5EiS5AgAALDufgGQrQxDzzo3bNRwu7ETKNF3xsQ3926d+5c67wDA2rYkcU9id0uOJEmOAAAA60QmnQm1x50cNr3zx8ZOoESv6Q3v7Tx/9p9rC/H7BltYJ9r/d+vfo2K8ozVHkiRHAACAtX8EGHlUGJTzCwCg44eAt5s3o/1vl79rqIV17tmoEJ8aFfKDrDqSJDkCAACsnXcAokPDDmNuMXQCHVmx2d3TXqkrxK8ZZ2G9aX9344bElt4JkCTJEQAA4AupqRkW9vvOlaF8Ws7YCZQYPKfxhezPHlxslIX17s3E1KgY72bdkSTJEQAAYM0OAJU1Yb9vXhz6TR5n7ARKDJw1efGBj973TF1bfrlBFjaIpYlHo0J8sIVHkiRHAACAz/cngDIVIX3mOWGjhrHGTqBE3xkTX9374blP1RXiZYZY2KBWJP4jKrQea+WRJMkRAADgM0mnM+GAk08NAx0AgA70nj5h6a7zZz8TteXfM8BCp7AqsSgq5L+d/DvEOwGSJDkCAAD8Tdmjjg1bjrvN2Al0ZPk282a8FLXl3zC8QqezJFEfFeOdE0YfSZIcAQAASkV1I8JuN95o6AQ6NOTuaQvrCh8MjQZX6JzeT9wfFeLdrT6SJDkCAAB8/ABQFYU9vvvdUNaUM3YCJQbPaVyY+dkDzxtZoUt4NCrkR1h+JEmOAI4AAAAfqM1Wh/0vujj0nTzO2AmUGDBr0qIDH7vvubq2/ErjKnSZB4P/LSrkj42KcW8LkCTJEQAAoAfLZCvCfuecGwZNvMPYCZToN2PiG/s8PLf9FwDLDKvQ5R4Mfi5xaVSMN/FOgCTJEQAAoAdKZzLhkFPPCENyY42dQIle0ye8t8v8Oe0PAb9jUIUu673EmKgQb2UJkiQ5AgAA9DDDRh4Xtrt1jLET6Miq7ebNeKqukH/DiArdwrSo2LqHNUiS5AgAANBDHF59aNhh9A2GTqBDm8+d9oeaBfNfMZxCt/pFwINRIZ/1ToAkyREAAKCbG56tDXt998pQ1pQzdgIlNp4z5U+Znz34stEUuuUh4BeJEVExLrcMSZIcAQAAuqFsRVXY+x8uCf2m3GnsBEr+BNCAWZNeOeix+1+M2vIrDabQbR8MXpQ4JyrGA6xDkiRHAACAbiRTURn2P/+CMGjiOGMnUHIA6Dtj4jt7Pzz3pdX/tbCxFLq3dxNXR4V4iIVIkuQIAADQHQ4AmWyoOen0sMXYHxk7gRK9p094b9f5cxbWteXfMY5Cj/FW4vaokN/NSiRJcgQAAOjiDj3iuLDVj35o7ARKlDXXr9zugZm/qy3ErxtFocd5OzEvcaB3AiRJjgAAAF3UYRVR2O7m0cZOoEND5k77dfWC+W8YQ6FHPxhcTKSjYlxmMZIkOQIAAHQhlZXVYferrwrlTTljJ1DyDsCg2ZOfr3jiwVeMoNDjtT8G/kJUjIdFhbiv1UiS5AgAANAFZKuqwz6XXR76No43dgIlB4ABsya/edBj978YteVXGECB1d5MXBIVWz0YLElyBAAA6NS/AKioCtmzzwub1I81dgIl+s2Y+OY+D9/z7Oo/A2L4BD7qpcQPo0J+e+8ESJIcAQAAOuMvANLZUHPiaWHzO241dgIlek+f8O6u8+f8qbYQv23sBD7Fq4k5iV29EyBJcgQAAOhkhh92TNjix7cYO4ESZc31K7Z9YMavaxY4AACf6cHgn0fFeG8rkiTJEQAAoJOoqqwJ2916SyhrMnYCpe8AbHb31GdqC/Ebxk3gM1qV+FVUjDNRIe5tTZIkOQIAAGxAFdW1Yc/rrjd0Ah39AmDloNlTXq96cv5bRk1gDTydODMqtg6yKEmSHAEAADaA6sqaMPSiS0L/yXcaPIESG82e8urBP533XNSWX2HMBNbQU4lvR4X8plYlSZIjAADA+jwAZKtC5qxzw8b1txs7gRL9Z056Y5+H71lYV4jfM2ICX9DziR8lHAIkSY4AAADrQzadCdWjTg1D7viRsRMo0Xv6hHd2i+c8VesAAKw9byamRMV4gHVJkuQIAACwro8Ahx8ZtrztVg8BA6XvALQ0rNjm/untDwG/bbQE1rJ3E/dExXinRJmVSZLkCAAAsC4eAq4bFra/zS8AgI4fAh5y97Qlq4c6gyWwLrS/MfJo1BYfEhXivpYmSZIjAADAWlRXHYUDv/M9YyfQocF3Nb5Q9eT8xUZKYD34l8SRUbG1t7VJkuQIAACwNg4AFTXhoIsuDn2n3GnsBEpsNHvyywc9dv8zq/8rXQMlsD78Mirkv2ZtkiQ5AgAAfEHVmcqQ/to5YVDD7cZOoET/mZOW7PuTe56tK8TLjJLAevZ0VMhfEBXjflYnSZIjAADAGkin0+GQE04Om4/7cfvf+zZ4Ah/Ta3rDuzs/NHtRXSFeaowENoBViRcS10XFeCMPBkuSHAEAAD7vEeCY48KW424zdgIlylsalm8zb0b7Q8DvGSKBDez1RH1UjHdwCJAkOQIAAHxGUd2IsMfom4ydQIe+fE/zs3WF/KvGR6CTeD8xLSrE+1igJEmOAAAAf/ch4Nqw73e+a+gEOrTJXY3PVzzx4HNGR6CTaX+b5NGoEO9phZIkOQIAAHzaASBbHfb/xrdCnyl3GjuBEhvNnvzCQY/d3/43uFcaHIFOaEXiiaiQP8wSJUlyBAAA+IRsOhMOPPOssHHOOwBAqT4zJryx98N3P1/31//a1tgIdOZDwP8XFfJHRcW4b8IoJUlyBAAASGcy4aBTTw9D7nQAAEr1nj7hvV3nz3ktcgAAuo6XEhdGxXiQVUqS5AgAAPRw6VBz5LFhhzG3GDuBEuUtDSu2f2DmM3WF/BtGRaCLeTFxVVSMB1umJEmOAABAjxVVDw87/uD7xk6gQ1+5t3lh9YL5LxkTgS7q7cT1UTHe1DolSXIEAAB6nOHZ2rDnFd81dAIdGnxX418qnnjwFSMi0MUtSdRHhXgHC5UkyREAAOgxKtLZsN+FF4V+k8cZO4ES/WZOfOXAx+57IWrLrzIgAt3Au4mpUSHeOiq2GqokSY4AAED3lslWhP3PPT9sNOEOYyfwSav6zpj4zr4/uef1qC2/wnAIdDOPJva1VEmSHAEAgO57AMhkQ+VJp4Utxv7I2AmU6DN9wru7x3c9U9eWf8dYCHRT/xwVHAIkSY4AAEA3lB6aDjVHHBO2umW0sRMoUd7SsHz7B2b+qXZB/KqREOjG2v/M2ROJYVEx7m21kiQ5AgAA3cahNYeG7W/8gbET6NAW9zb/sXrB/CUGQqAHWJ7418TRUTHuZbmSJDkCAABdXmU6G/a64opQ3pQzdgIlBsyc9HzlEw+9ZBgEepD2d09+tfoXAeXWK0mSIwAA0HXfAaioDPteclnoPXW8sRMoeQi4/6xJL6cff2DJ6j+RYRgEepr2N1C+GRXjvhYsSZIjAADQ5VRkK0P2rPPC4Iaxxk6gRP+Zk9746iP3Phu15d83BAI92NuJc6JivJkVS5LkCAAAdBnZdDZUnHBK2Pz2W4ydQIk+Mya8s1s858+1hfhNAyBA/sXEDVEh3sKSJUlyBAAAOr300HSoO+LYsMWYm4ydQInyloZlOzw48881C+Y7AAD8j1cSt0SF+MvWLEmSIwAA0LkfAq6sCTvd8AMPAQMd2uzuqc9UL5i/xOAHUOL1qJCfFhVav2TRkiQ5AgAAnfMh4MqqsMc114YyQyfQwUPAA2dPfqG2EL9l6AP4VKuiQv7xhEOAJMkRAADoXKoqqkL2oktCn8bxxk6gxMBZk18Z+vgDz34wcBn5AP62Qv7+5N+vRsW4l3VLkuQIAABs+ANApjJkzjg7DKq/zdgJlOg/c9Jr+/7knj/XFfLvGfcAPpPlibZEpUOAJMkRAADYoCrS2VB5wqlhs7FjjJ1AiT4zJry1Wzzn6dpC/K5RD+BzeT9RSIyIinFfK5ckyREAAFjv0u0PAY8YGXa6+aZQ1mTsBD6urKVh+db3tzxTsyB+05gHsEaWJX63+hBQZumSJDkCAADr9yHgaFjYfbQDANDxQ8Cb3zPtubpC/I4RD+ALWxIV42GJftYuSZIjAACwXtRU1ISDvnuNoRPo0MZzprxQsyB+wXAHsNYsSlwQFeJNLF6SJEcAAGDdHgCyVWHo+d8IvaeON3YCJQbOnvzSwY/N+1PUll9ltANY64eAy6NCvKnVS5LkCAAArBPVmcow9GtfDwMbbjd2AiX6z5z06r4/uWdhXSFeZqwDWCeeSVwWFeJBli9JkiMAALB23wAYmg4Vx50UtrxtjHcAgBK9pje8s/NDs5+tLcTvGukA1qkXo0L8rUQv65ckOQIYLACAtSOdDpmjjgnbj7nFAQAoUd7S8P72D8xcXFeIlxrnANaL96Ni6w+iQn5jC5gkOQIAAHxhtdGIsOcNo42dQIe2vK/lubpC/hWjHMB69W5UyNcntrSCSZIjAADAGqvL1oT9vn2FoRPo0CZ3NS6uXjD/OWMcwAbxWlTI35nY2hImSY4AAABrcACoDgde+M3Qa+p4YydQYqPZk1845Kf3OwAAbFhLokJ+fOJL1jBJcgQAAPjMskMzoeL0s8MmuduNnUCJPtMnvL7Pw3NfqSvEKw1wABvcG4m5UTHezCImSY4AAAB/VzqdCemTTg1bjP1RKDN2Ap/Qe/qEd3bP3/VSXSG/zPAG0GmsSDyW2CoqxmWWMUlyBAAA+JQDQDrUHHVc2GHMLcZOoESvloblOzw4q/0h4DcMbgCdzvJEa2KPqBiXW8ckyREAAKD0HYC6EWG3664zdgId2uq+lkU1C+KXDG0AndbSxLzE3g4BkuQIAADwMcOyNWHPK75r6AQ6NPiuxmeqn3zIAQCg83s3kU8MdQiQJEcAAIAPVAzNhOx5F4W+U8YbO4ES/WZMfOWgn96/xLAG0GW0v9vy71Ex3ttKJkmOAABAT38HIJMJ6bPODYPrxxo7gRJ9Z0x846uP3PtKXVt+pVENoEtZlfhVVIy/6hcBkuQIAAD0UNl0NlSfdHr4yh0/NnYCJfrMmLB0j/zdi+r++qclDGoAXfMQ8G+JqqgY97GYSZIjAADQg2TS6VA78tiw7c03GjuBEr1aGpbt8ODMZ2sL8WtGNIAubUXinxPHRoV4oNVMkhwBAIAeIooOCzt+/3pjJ9CRVVve1/J09YL53gEA6D5+GxXi0xK9LWeS5AgAAHRzlelsOPA73wu9puWMnUCJAbMmvVD55ENvGswAup2/RIX4GMuZJDkCAADd+iHgbMh84x9C38bxxk6gRP+Zk14d+vg8vwAA6L4WRYX4aL8IkCRHAACgG6rIVISqs84PgybcYewESvSbOemt/R+579moLb/cSAbQ7X8R0P6ngQZY0STJEQAA6C4HgHQ2VI86JXzp9jHGTqBEnxkT3t0jf9czdYX4HeMYQI95I+AMjwVLkiMAANANZNLpUHPkcWHLH442dgIlek1veG+HB2f+pWbBfO8AAPQsv1n9i4A+1jRJcgQAALqwqpphYc/rrg/lHgIGSq360txpz1c9Od8vAAB6pqeiQnycNU2SHAEAgC77EHAmHHDlNaG3AwDQwQFgo9mTX6r2CwAAjwUX4pGJXlY1SXIEAAC6kMpsZaj+xqWhrMnYCZQaMGvya9mfPfis8QuAxDNRIT7VY8GS5AgAAHSVPwGUqQiVp58dBk4Ya+wESvSfOenN/R659y9RW3654QuA1X7nsWBJcgQAALrCLwDS2VBxwqlh07FjjJ1AiT4zJr61e/6uhbWFeKnBC4AOHgs+PdHXwiZJjgAAQGd8A2BoOlQecVTY4abRobzJOwDAx5W3NCzddt6MZ2oWzHcAAODT/DkqtF5iYZMkRwAAoDMeAeqGhT2v/0Ho5SFg4BPKmutXfvmepqdrFsx/y8AFwN/xalTIfyfR29ImSY4AAEBneQcgWxUOvup6YyfQocFzGl+qLcQvGLYA+IyWRIX89YnB1jZJcgQAADaw6kxVqDznQkMn0KGBsya/mvnZg38yaAHwOb0QFfLXJDazuEmSIwAAsMEOAJUhfcbXQ/+JY42dQIn+Myct2e+Re56ua8svN2YBsAaejwr5axMDrW6S5AgAAKxnmfaHgI8/OXzltjGhrMnYCXxcr+kT3tg1nvNcbSFeZsQC4At4qf0XAVY3SXIEAADW9xFg5FFhx5tvCuVNHgIGPq68pWHpdg/MeKamEL9rvAJgLXgtKuQvT5Rb3yTJEQAAWB9/Bmj44WGvG0YbO4ESZc31K7e4r+X5ukL+FaMVAGv5EOCxYElyBAAA1rXabHU44NvfNXYCHdrkrsbFNQvihcYqANaBxR4LliRHAABgXR4AMlXh4PMvMnQCHRo4a/KL6cfn/cVIBcB6eCx4I0ucJDkCAABrUXZoJlSefnbYuP52YydQos+MCS/v+5N7Fte15VcaqABYx15sPwRY4iTJEQAAWJtHgFEnhy1vGxPKmoydwMf1mt7wxm7xnEW1hXiZYQqA9fhGwGWJMoucJDkCAABfQDqdDjVHjwrb33qLsRMoPQC0NCzb8cFZz9UV8m8YpABYz16PCvnrokI80ConSY4AAMAaqo5GhN2vvdbYCZQoa6lfueV9Le2/AHjBEAXABrIwKsTnOwRIkiMAALAmB4BsVdj9O98xdgId2vTuqYuqnnzoOQMUABvYr6NCfHqin3VOkhwBAIDPqGJoJqTP/UboMzVn7ARKDJg1afEhj897xfAEQCfxh6gQn2SdkyRHAADgM6o7+cywae52YydQou+Mia/u98i9i+va8iuNTgB0Is9FhXiYhU6SHAEAgL8hk86EaNRp4Stjf2TsBEr0mT5h6Z6tdy+qa8svNTYB0Ak9HxXik/1pIElyBAAAOjoADE2HmiOOCdvefKOxEyjRa/qEZTs9NPv5ukL+TSMTAJ38TwOd7rFgSXIEAAA+oSoaEXa47hpjJ1CirKVhxVb3tTxTsyB+1bgEQBd6LLi/xU6SHAEAgERlpjJ89dtXhN7TPAQMlNrkrsZFFU88+LpRCYAu5FdRW1wRFWOjnSQ5AgAAdWd/I/SbMt7YCZToP3PSC+mfPfCyMQmALqb9Afv/iorxTlY7SXIEAIAeK5vJhuGnnRMGTrzD2AmU6Dtj4tsHPHrfwqgtv8KYBECX/UVAMT440ct6J0mOAADQsw4A6UyoPe7kMGTsrcZOoESfGROX7tU6d1FdW36pAQmALv6LgH9J1ETFuI8FT5IcAQCgR8gMTYeKkUeHLX54g7ETKNFr+oSlOz4065naQvym8QiAbqD9F23/T6I2Ksa9rXiS5AgAAN3/IeDo0LDbNdeEXh4CBj6hrKVhxZb3NS+qfPKht4xGAHSzQ8DPo2Kc8ViwJDkCAEC3ls5kQ/rSK0LfRg8BA6U2uavx2conH3rNWARAN/3TQP8ZFeNdLHmS5AgAAN33IeBzLw7lfgEAdKDfzElvVDzx0EIjEQDd2KrEvye2iYpxmUVPkhwBAKDbqEhnQ90pXwv9Jo8zdgIdHQDePuix+/+y+r+SNBIB0J0tS8xP7BEV43KrniQ5AgBA1/8FQDoTMsefGAbfMcbYCZToM2PCW3u23v2XukL8nmEIgB5iaeK+xF5+ESBJjgAA0LXfABiaDpUjjw7b3nRDKG/yZ4CAj+s1vWHpDg/OfK56wfx3DUIA9DDt/3/fvMTOHguWJEcAAOi6vwKoGxb2/d41oc9UBwDg48paGpZveV/zoqoF898yBAHQQ7X/Cu6RRB/rniQ5AgBA13sHoLI6ZC+70kPAQIcG39X4avWC+c8bgADo4VZGhXx9YpCFT5IcAQCgy6hMV4Tqcy4ydAIdGjBr8ptVT85faPgBgNV/GqiQzyW2+L/s3Yd7ndWBLvpHkivGFEPovYUSSsDaW12fsU3HBAIhQBISAiQkhAATIBlCCb0Y23K3LLn3ok8QitvWvufeM+feMyd35p45yaRAIBgbY7DBNu6Wte6nDM+cSFtJMLio/N7n+f0Pa73v/vbS8omIGAEAoAMMAEUh9bUbQvcxQ5WdQI6ek0d9dN4rc96KGuqblD4A8J8+ijL1j0eZuJ+mT0TECAAA7Va6MBWKr/pqOPTZJ0KeshNopfukkRtOq5/+bkUm3q7sAYAcKxN3RZnYXwOJiBgBAKB9Kr3osnDyQw+FAu8AAK0U1FRtPn7B5JXly+q2KHkA4K9aFWXi7ycKNH4iIkYAAGhXygYMCmff/7OQX20AAFrKq6naedjsiavLl8VrlDsA8GneCIi/E2UNASIiRgAAaC8DQEl5OP9H9yg7gTYdPGPC2opM/K5SBwA+teWJS6Ns3FPzJyJiBACAffsXQKmi8OXv3KroBNrUe8roD0qWLHxbmQMAu6Qp8evEV6Js3Ev7JyJGACMAAOwTRYXpUPy1m0Kfkc8rO4EcPSePWnv2L2e9+0mRodABgF2zM/E/P/kioJsGUESMAIoYANjryq+8Jhz51OMhr1rZCbTUvXbk+i/WT3+3IhPvUOIAwOcaAv4pcU6UjfO0gCJiBAAA9opUYSpUXnxFOOmRh0Oeh4CBVvJrqrYfN39y8wCwXnkDAJ9bY+JfE6cYAkTECAAA7IUBoDCUDxgcvvjAT5WdQI68mqqdR86tfb8iE69R2gDAbvWrKFN/uiZQRIwAAMCefQi4pDycftddyk6gTf1mTFhetqxulaIGAHa77VGmfm7iFG2giBgBAIA9orgwHQpvuT10HzdM2Qnk6D1l9DupRfPfVdIAwB6zMTHFECAiRgAAYI+ovPbGcOCI55SdQI4ek0atPefl2SuUMwCwF4aATP20xDFaQRExAgAAu+cdgFQqDLzy2nDYs08oO4EcBbUjt36xfvqfKjPxFsUMAOwV2xKPR5l4f82giBgBAIDPJV2YCpUXXxGOfuwRZSfQ1gCw/aSFU1dUZurXK2QAYK9rHgIO0g6KiBEAAPhsXwA0PwQ8YFA4/qf3KzuBHPk1VduPmlv7dvmyurVKGADYJzYnHoyycR8NoYgYAQCAXVZSUh6+dNfdodv44QpPIMfBMye8VbxkwfsKGADYp1YmbjMEiIgRAADYZWXfvj3sN+YFZSeQo9fk0e+lFy94T/ECAPtcU+KtxE1RNu6hKRQRIwAA8KkeAr7omptCn1HPKzuBHN1qR24675U5b3xSOihfAKB9DAG/TQyIsnGBtlBEjAAAwF9/CDiVDhde+dVw4AtPKTuBtgaAbWe9NKv514ZbFS4A0O68kyjXFoqIEQAAaHsAKEyFkosvD194/GFlJ5CjoHbk5pMWTn2rIhN/rGQBgHbr/44y9WdrDEXECAAAtPwLoOaHgAcMCic/cH8omOAhYKCl/JqqbUfOqXmrdOnCj5QrANCuNSZ+GWXic7SGImIEAAD+91cAJaXhgh/+OPQaO0zhCbTWdPCM8SuKlyxYq1gBgA5hS2JKlImP1RyKiBEAAAipwlS48ObvhR5jX1B2Ajm6Txq1sWTJwlUeAgaADmVzYlyUiY+MsrECUUSMAADQVRWl0mHwNTeGggm+AADaHAC2FC6a/44iBQA6rMejbHywBlFEjAAA0EUHgJIrrw59hj2l7ARy9Jg06uMzX5r5x8pM/TYFCgB06L8G+nmUjftqEUXECAAAXewvgEouuSIc/YuHQ361shNoqVvtyE0nLpy6vHxZ3WblCQB0eOsT34uycXdNoogYAQCgiyiOBoYzf3J/6D7e3wABLeXXVG0/cm7NytJldRuUJgDQKTS/6/N64luGABExAgBAVxgASspC0Q9+HLqPMwAAuQ6YNu6j0qUL13gIGAA6lZ2J3yUujzL1eRpFETECAEBnHQBSRWHAt7+v6ATa1Gvy6E0VmXilogQAOq3/FWXqB0WZuECrKCJGAADodANAOpRcc33Yb9xwZSeQo+fk0esueG3u68oRAOj0/keUib+sVRQRIwAAdCLpwlQoHXJN6Pf8k8pOIEePSaPWnf7ijLcrM/EOxQgAdAkvR9n4BM2iiBgBAKCTqBx8eTjloZ+Hggm+AgBaKqit2nTCwikrypfVbVGIAECX0ZiojrLxodpFETECAEBHHwAqB4bz770/dB/vIWCgpbyJIxoPmz1xbdmyunUeAgaALufjxNAoG++vYRQRIwAAdFBlpRWh/513KzuBNvWbOWFdZSb+QAkCAF1W8w8BHkz01TKKiBEAADqYklRRuOA7t4WeExSdQK4+U8euKVm68C3lBwB0ee8lbo0y9T01jSJiBACADqKoMB3Krr0h9BrrL4CAXL2mjF5z3itzlis9AIBP/DHKxF/RNIqIEQAAOogLL78mHPX0E8pOIEf32pHrT39xxorKTNyo8AAA/sKvo0x8gbZRRIwAANDODR50eTjt5w+F/AnDFZ5Ay4eAa6q2H79g8uqKTLxJ0QEAtNKU+D+ibHySxlFEjAAA0A6lElE0OJz+wE9DnrITyB0Adh41t3ZtZSZep+QAAP6K5i8FX46y8amJPM2jiBgBAKAdKS2tDGfdeVfo7iFgoPUAMHFE0yEzq1eVLat7V7kBAPwdOxI1iaMNASJiBACAdqI4lQ79v/u90GOch4CBXPtPG7sqvXiBAQAA+LQ2JIYmDtQ+iogRAADawzsAV98QDhg5VNkJ5OgxadTa816ds0KZAQDsoo+iTP0D2kcRMQIAwD522aXXhKOefkLZCeTIr6nadnr99HcrM/F2RQYA8BmsjTLxtRpIETECAMA+eQg4FQYNvjwc/dgjyk6grQGg8eS6aasrM/WbFRgAwOewPMrEV0bZuJsmUkSMAACwN98BiAaGkx94IBRUKzuBnAFgx9FzJ71Tvixeq7gAAHaDf01EUTburo0UESMAAOyNAaCsInzxzjtDt/HDFZ5AC3kTR+w8dFb1iuIlCz9QWAAAu0lj4rXE2VE2ztNIiogRAAD2pFQqlH/r1tBntIeAgVx9po5ZnVo8f7WyAgDYzZr/YnBO4jCNpIgYAQBgTz4EfPl1oW/Vc8pOoK2/Adry5VfnrEwu5zsVFQDAHrA1ytRXaSRFxAgAAHtAujAVLrnk6nDgC08rO4EcBTVVO770y1krksv5DgUFALAH7Ygy8R2JnppJETECAMBukipMhdLBl4ajH30o5Fd7BwBoNQDUjtx6ct20Nysy8UbFBACwF3wQNcTfjrKGABExAgDAbhgACkPRgEHh+AfuCwUTDABAzl8AbT163qQ/lS6tW6+QAAD2kqbE/0xcHGXjfA2liBgBAOBzKC4tD/2/f2foPeYFhSfQQt7EETsPmTlhZfGShR8oIwCAvaz5DaJsor8hQESMAADwWb8CSKXChTfeEvqMel7hCeToOXn0x+nFC1Z5CBgA2Ee2J+IoU3+kllJEjAAA8BkeAr5syNdDt3HDlJ1AWw8Br08tmr/8k8/xlRAAwL7SGGXiGYn9NJUiYgQAgF14CLjssqtCv+efUnYCObpPGrnxS7+c9fs/X7oVDwBAuxD/LMrG+2srRcQIAACfYgAouujScPhjD4e8amUn0FK32pEfn1Q39fXyTLxJ2QAAtCMfJm6PsnEfjaWIGAEA4G8oiwaGM+/9Sejhb4CAVvJrqrYdNbf2ndKldesVDQBAO9P8F4W/TVwVZeMCraWIGAEAoA0lJWUhfdsPQq8xQxWeQGtNB04f/1HxkoUfeAcAAGindiR+lSjWWoqIEQAAWilKF4Xom7eFbuN9AQDk6j159NrSpXXvGgAAgHZuZyITZepPjTKx8lJEjAAA0Czd/BDw1deH/ca8oOwEcvSYNGp9atH83ykVAIAOZE6Ujb+gvRQRIwAABoDmh4AvHxIOfOFpZSeQOwBMHrXuzJdm/r7yP35Vp1AAADqSJ6JsfIAGU0SMAAB0aZWDLg0nPfTzkF89XOEJtFBQW7XppLqpyysy8VYlAgDQATW/ZfTDKBt312KKiBEAgK45AFRcGM6++97QfZx3AICW8iaOaDxyTs26smV1m7wDAAB0UM1nmDcS12oxRcQIAECXU15aEfrf8SMPAQNtDQA7D51V/X7Z0ro1BgAAoBMMAb+KMvVlUSbO02aKiBEAgC6hKF0UCm/+bug11gAA5Oo7bezakqUL31QaAACdyEtRQ/zFKGsIEBEjAACdfQAoTIXCa683AABt6jV59JrCRfMMAABAZzQ5ysYHaTRFxAgAQKc24JKrwhHPPqnsBHJ0qx254cyXZr7lL4AAgE5qW+JnUTbuodUUESMAAJ3SwAsvCac8+I8hf8JwhSfQ8h2AmqrtJy6c8mFFJt6iIAAAOrGVUab+W1pNETECAND5vgCoGBhO/8l9BgAgR35N1faj501aVb4sXq8YAAC6wEPB/xZl4sGJfO2miBgBAOgUSkorwpd+cGfoMc47AEDrLwBG7Dx0VvWqsmV17yoFAIAu5L9FDXFRlDUEiIgRAICO/hBwUXE4+5bvGgCANh04fdyqoiULVigCAIAuZkdiZuK4KBsrOUXECABAxxVdfUM4qOp5ZSeQo8ekkR/2f23e20oAAKCL2pwYleip5RQRIwAAHdLFFw0JRz79uLITaOsdgG1nvDhjzSe/glMCAABd1cYoU3+nllNEjAAAdDgXDbgkHPPoQyGvWtkJ5AwAW0+um7aiIhNvcfEHAKh/J8rEF0bZOE/bKSJGAAA6hLLKgeHk++8LBROGKzyB1gPAjmPmTXq7fFn8oQs/AMB/+k2UjUsTBRpPETECANC+HwIuqwin/ujO0G28AQBoKa+mqvGw2RNXlCxd+L6LPgBAC42JlxNn+iJARIwAALRb6XRRKP7WraHvqKEKTyBH32ljV6cXz1/lkg8A0KZNidFRpv4wraeIGAEAaJcuHXJ9OHjYs8pOoK2/AdrS/7V5az75lZtLPgBA29ZGmfieRA/Np4gYAQBoV6668Mpw8AtPKzuBHAU1VZvPemnWn5JL7U4XewCAv2tdlP3zQ8HKTxExAgCw76US0YWXhKN/8UjIq1Z2Aq0GgNqR206Jp71emYk3u9ADAHxqbydO036KiBEAgH0+ABQPGBhOfuD+0H2Ch4CB1gNA1dZj50/6U9myuvUu8gAAu/xQ8CtRpv4EDaiIEUAJBcA+U1JWEb58x52h95gXFJ5AC3k1IxoPnVX9bvGShWtd4gEAPpOPE8OiTPwFLaiIEQAA9rqidFEYcOMt4YCq5xSeQI79poz5OLV4/ofeAQAA+FzeT3w/ysa9NKEiRgAA2KuuvOL60GfU88pOoK13ADalFs1fbgAAANgtViSiKBvnaUNFjAAAsBfeAUiFgYOvCAcNf1bZCeToVjty6zkvz/61yzoAwG5+KDhTf6Y2VMQIAAB7VLowFYoHXRyOfezRkFet7ARyBoBNp8bT3qjIxFtd1AEAdrtFUSY+QiMqYgQAgD2mLBoYzvjJfaH7+GEKT6CF/JqqrUfPq32nbFndxy7oAAB7RPMPLZ6MsvEBWlERIwAA7HblpRUhfdsPwn6jhyo8gdZ29ps5YX3xkgXrvQMAALBHrUzcHmXj7ppRESMAAOw2xenicOENt4TeBgCgDX2mjv0ovXjBquRC2uRiDgCwRzWft/49MVgzKmIEAIDd9hBwdPXXQ5/RLyg7gRzdJ43aXLR4wb+7kAMA7FX/PcrEqUS+hlTECAAAn+8h4EsuD4cOf17ZCeToMWnUhrN/Oet3LuEAAPvEgqghPlpDKmIEAIDPrHLgpeHERx4OedXKTqClgtqqTSfXTX2rIhNvcwEHANgnms9hz0TZuIeWVMQIAAC7bEDFwHDO3feG7uOGKTyBFvImjmg8am7tR6VLF270DgAAwD61NsrUf0NLKmIEAIBd+wKguCKkbv9h6DHWOwBAzgCw85CZ1R+ULFm41gAAANAuHgr+n1EmrtSUihgBAOBTKS4qDulv3hJ6jzEAALn6Thu7tnjJwjdduAEA2tUQsCzKxqcn8jSmIkYAAPibDwH3v+76cOBofwEE5Oo1efSHqcXzf+uiDQDQ7uxIjEocojEVMQIAwF914cVDwuFDn1F2Ajm61Y7ccNZLM99wwQYAaLfWJH4cZeJeWlMRIwAA5Bg84JJw6j8+GPKqlZ1AS/k1VZtOWjhldUUm3uJyDQDQri2PsvFAramIEQAAWg4AZReGs+79Seg23t8AAa0eAq6p2nH03Envli2r2+BSDQDQIfwqysaHak5FjAAA8GdlJRXhnDt+GHqMMwAArQaAiSN2HjqremXZ0rqVLtMAAB1GY2J2lKnfX3sqYgQAoIsrKi4J53znltBnjAEAyNF00Izxq4qXLHjLRRoAoMNZH2XqH4kycV8NqogRAIAurOLaG0O/Ec8pO4EcPSeP+qj/a/PedYEGAOiw3kh8LcrGPbSoIkYAALqgSwddEY585kllJ5CjW+3Ij898aeZqF2cAgA5tZ+K/JM6PsnGeJlXECABAF3JZxcXhhIcfUnYCOfJrqradXDdteUUm3uriDADQ4W2LMvXTEgdrUkWMAAB0EZXlA8Kp990XCiYMV3gCrQeAxmPnT15evixe58IMANBp7Igy8VNRNu6mTRUxAgDQ2R8CLqsIp//oR6HXOAMA0FJeTdWOI+ZMXFG2dOEHLsoAAJ3O9sSQKBsXaFRFjAAAdNYBoKgkpG++NfQdNVThCbTWdOD0cR+kF883AAAAdE5NiX+NMvVpjaqIEQCATmrw1TeEQ4c+rewEcvScPGrd+a/OXeNyDADQyd8HaKifF2XiU7WqIkYAADqZyysvCf1eMAAAbb4DsOVLv5z1VnIhbHQxBgDo9DYmnoyy8YGaVREjAACdxMCKQeHYRx9WdgJtPgR8Wjz99cpMvNWFGACgy1if+Eaiu3ZVxAgAQEd/B6ByQDj5/vtCtwkeAgZaKqip2nb8gslvli+r+9hFGACgy3kzUaJdFTECANCRB4CyinD2D34Yeo95QeEJtJBXU7XjC7Or3ytesnCdCzAAQJeVibLxYRpWESMAAB1QcVFxKL3x2+HAEc8pPIHWmg6YPm5t4aJ5BgAAgK5tZ+K5KBv30LKKGAEA6GAGXXldOHD4M8pOIEePSaM+7v/avHc+ufS5/AIAdG3vJb6tZRUxAgDQgQwecEno94IBAGjzIeAd570y57fJRa/RhRcAgERT4l+jTBxF2ThP2ypiBACgvf8N0IWDwrGPPaLsBHIfAq4dueX0+um/q8zEO1x2AQBoZX7iBEOAiBEAgHaspPLC8MX77gvdxg9XeAKtvwDYdsy8SSvKltVtdsEFAKANmxKPR5n6vhpXESMAAO1QWUl56H/bHWG/0UMVnkALeTVVO74wq3pN0ZIFm1xuAQD4m+8DZOIbNK4iRgAA2tsXAOniUHLjzaFP1XMKT6C1pr7Txn2YXjx/tYeAAQD4FH4TZeNjta4iRgAA2olUYSpUDrkuHDjiWWUnkKPHpFFbUovmv24AAADgU2o+N86MGuKDNK8iRgAA2sNDwBddGg4dZgAAcnWrHbnp/Ffn/LuLLAAAu+jjKFP/aJSJ+2hfRYwAAOxDpRcODif84lFlJ5CjoKZq8yl1U/9UmYkbXWIBAPgM/pj4apSNu2lgRYwAAOwDUfmAcPbd94Zu44cpPIEW8muqth49r/b90qV121xeAQD4HH8LlEl8SQMrYgQAYG8PAMXl4YLbvh96jhmq8ARayJs4ovHQWdXvFy9Z+GFyYWtyeQUA4HPYmhgbZeJ+WlgRIwAAe0lJujgU3Xhz6DPyeYUnkKPvtLHrihYvWO4hYAAAdpPNUUP8wygb52liRYwAAOxpqVQouuZr4bBhBgAgV+8poz8qWjz/dRdVAAB2s02JczWxIkYAAPb0Q8AXXx6Ofe5ZZSeQo1vtyI1nvzzrLRdUAAD2kIYoE5+ojRUxAgCwhwyuGBxOe/Dnyk4gR0Ft1eaTFk55rzITewMAAIA9+LdA9VVR1vsAIkYAAHa7QSVROOvue0PB+GEKT6DlQ8A1VTuOmTdpZdmyuo0upgAA7GGrE7dH2bibVlbECADAblJRVBbOu/2O0HPMCwpPoLWmQ2dVv1eydGHzZcxXAAAA7GnNZ85/iTL1JVHGQ8EiRgAAPrd0UXHo/83vhINGDlV2Ai2/AJg4oungGeNXlyxZsMJlFACAveyXUUN8UpSNlbMiRgAAPqtUKhWKrv16OHzYcwpPIEfvKaM/uuC1uQYAAAD2ha2JJxIF2lkRIwAAn9FFg64Ixzz1hLITaOMh4JEbz3pp5mqXTwAA9qE1USYerJ0VMQIA8BlcWjYonPjQz5WdQI78mqptJ9dNe7uyoX67iycAAPvYP0XZ+HgNrYgRAIBdMKC4Ipx+z72hYMJwhSeQ45h5k/5UvqxunQsnAADtwLZEdZSNe2tpRYwAAHwKRSVl4dw77gz7jRmm7ARaPgRcU9V4xJyJy8uW1a1x2QQAoB35IMrU/yjKxD00tSJGAAD+hnRxSeh/8y3h4KqhCk+g5QAwccTOA6ePez+1eP77LpkAALRDv0qUR9k4X1srYgQAoK0BIJUOA75yfTjs+acVnkCOPlPHfHDeK3PWulwCANBO7UjMSRyprRUxAgDQ1kPAF14ejnjmCWUn0NZDwFvOfXnOm8mFqtHlEgCAdmxTlInvSxRobEWMAAD8hcHFUTj+kYeUnUCbTquf/sfKhvqtLpUAAHQAH0XZ+KyE0lbECABAs5KyyvClnzwQCiYMV3YCrb8A2H5S3dTXKzLxJpdJAAA6kH9JHKO1FTECAHR5RaXl4bwf3Bn2G/OCwhPIGQAOnzNxRcmShetdIgEA6GC2JIZH2fgAza2IEQCg634BUFQSSm/6djho+LMKT6CFvIkjGvvNGP9eatH8j1wgAQDooN5JfCvKxj20tyJGAIAuJ51Kh4FXfS0cMvQphSeQo9fk0RsueG3eOx4CBgCgA9uZ+G+J/tpbESMAQNd7CHjAJeHwZ55UdgJtOv/Vua8nl6XtLo4AAHRwzWfasVEmPlSDK2IEAOgySssHhFN/8biiE2jrHYBtZ70089fJRanJhREAgE6i+Wz7Y38LJGIEAOgSiiuicPZPHggFE4YrPIEWCmqqth47f9Jb5cvqtrooAgDQyayMGuJSLa6IEQCgU6soqQiFt90Reo8eqvAEcr4AOGLOxHeLlyzY6IIIAEAn9WqUjQ/T5IoYAQA6pbJ0SSi98eZwwIhnFZ5Aa00HTh+/Jr14/upPHk9zQQQAoDPanHjc3wKJGAEAOp10Kh0qhlwb+g19WtkJ5Og5edTWwkXz304uRDtcDAEA6OTejDL1V2tzRYwAAJ3rIeCLLgvHPvuMshPIfQegtmpratH833gIGACALvRI8OIoG5+RyNPqihgBADq8kmhgOO2xx5WdQBsDwMjNp8TT/uAiCABAF7M98XSUqT9QqytiBADo0AaUDQjn/fgfQv6E4QpPoOUAUFO1+bj5k1aUL6vb7hIIAEAXtDLK1N8QZeJuml0RIwBAhxQVl4f+t30/9BozVOEJtJA3cUTjYbMnripZuvAjfwMEAEAX9i9RQ3ycZlfECADQ8d4ASBeH9I3fCn1HPKvwBHIcMH3c+vTiBauSS0+jix8AAF1Y83l4jGZXxAgA0KGkUulQdPV14fChBgAg135Tx6wrWrzgj74AAACAP1sXZeKbomycr+EVMQIAdAjFl14ZjnvuGWUnkKP7pJEfn/vK7Ddc9AAA4D81/zjm/0l8ScMrYgQAaPcGVQwKpz30sLITyNGtduTHp8TT3nbJAwCAHJsT46JMfISWV8QIANB+B4CSKJz943tCfvVwhSfQ8iHgmqodx86btLx8WbzRBQ8AANr0fuL2KBv31PSKGAEA2p2KotJw3m3fDz3HDFV4AjkOmz3x/ZKlC9d4BwAAAP6mf0mcpekVMQIAtCvpdHHo/41vh4NGPK/sBFprOnjGhNUlSxa+awAAAIC/a2dietQQH6jtFTECALQLqXQ6pK77ejh82HPKTiBHn6lj1lzw2tx3XOYAAGCXfEfbK2IEAGgXBl48JBz35OPKTiBHj0kj153z8qwVLnAAALDLfh9l4nM1viJGAIB96pLSgeGkhx9SdgI58muqtp0aT/tjcnnZ7gIHAAC7bEdiTpSND9f6ihgBAPaJC4sqwpl33xvyqocrPIEcx86f/E75sniDyxsAAHxmHybujbJxd82viBEAYK8qLioJ59/+g9B7zAvKTqCFvIkjdh45p2Z52bK6tS5tAADwuTQl/r8oEw+IsnGe9lfECACwV6SLS0L/b383HDRyqMITyBkADp4xflVq8fwPXNgAAGC3mRtl4+MSCmARIwDAnlWULgoV11wfDn/uKYUn0FrT/lPHfnD+q3Pfd0kDAIDdamPinigT99QAixHACACwR1100ZBw9JOPKTuBHN1qR24+5+XZb33ygJmLGgAA7F5/jBri/hpgMQIYAQD2mMHFUTj+0UeUnUCbTquf/mZlQ/0WlzMAANhjXoqycW8tsBgBFHUAu11pUWk47577Qn71cGUn0PIdgJoRO09YMOUPFZl4k0sZAADsUZuiTPyjKBsXaILFCADAblNcUhbSt/8w9B7zgsITaCG/pmrH4bMnvl2ydOEGFzIAANgr3khURtk4XxssRgAAPreSopJQduO3Q7/hzyk8gdZfADT2mzH+vdSi+etcxAAAYK9pfoNrdpSJj9YGixEAgM+lKJUO5UOuDYc++4TCE8ix35Qx685/de7K5ALS6CIGAAB71erE96Js3EsjLEYAAD6zQYMuD0c8+QtlJ9DW3wDtPPeVOW8lF49tLmAAALBP/CpxjkZYjAAAfCZlxWXh9IceCXnVyk4g9yHgM1+c+etPPkN2+QIAgH2j+Yvc2igTH6QVFiMAALv2DkBpRUjffb+yE2jrC4Btx86f9HpFJt7u0gUAAO3CLVphMQIAsEtfABTf+oPQe8wLCk8gZwA4fM7ElSVLF2520QIAgHbjjSgTn6QZFiMAAH9Xabo4FH39m6Hv8GcUnkBrOw+eMf7D9OL5HyaXjJ0uWgAA0G40/03nyCgb99EOixEAgL+qOJUO5VddF/o996SyE8jRe8qYrf1fm/f+J/876qIFAADty4rEjdphMQIA8Ne/Ahh4cTjxscc8BAzk6FY7ctv5r879nQEAAADareavdf9LlInPi7KxkliMAAC0GgDKo3D2I48pO4EcBbVVW858ceZvXKoAAKDd2/7nvwVqqD9ESyxGAAD+U0VJRUjf9RNlJ5A7ANRUbTl+weQ3KzLxDhcqAADoEFYnro2ycTdNsRgBAAgVRaXhgltuCz3GDFV4Ai3kTRzRePiciatLly5cn1wimlymAACgw8gmjtEUixEAoIsrS5eE9I3fCvuPeEbhCeQ4aMb4DenFC9Z+8t+iLlIAANBxNEaZ+uc0xWIEAOjC0oWpUHzl1eHIZ55s/rWvwhNoYb8pY9YXLpr3JwMAAAB0WB9F2bjEI8FiBADoqg8BX3plOOXJJ5WdQI6ek0dt+PIrc3/v0gQAAB3eP0cNsb8FEiMAQFcTlV8Yzv75o8pOIPch4NqqTae/OOMNlyUAAOgUPo4a4sejbNxHayxGAIAuYkBReTj7Rz9WdgK5DwHXVO04bv6kFRWZeLPLEgAAdBq/TQzWGosRAKArfAGQLgtfvvV7ofvYFxSeQI7D59SsLV26cH1yQWhyUQIAgE5jR2JalImP1hyLEQCgEytKpUPR9TeFg4c9o+wEchw0Y/zqosULVhkAAACgU9qU+EaUjbtpj8UIANAJpdLpUPLV68NRzxsAgBxNfaeNfb9w0fzlLkYAANCp/SFxlvZYjAAAnW0AKEyFykuuDKc8/riyE8jRc/Kodee+MvttFyIAAOgSan0NIEYAgE5mYNmF4eQH/1HZCeTIr6na/sX66c1fAGx3GQIAgK7yt0DxJRpkMQIAdJYBoKginPnje5SdQJuOmz95VUUm3uQiBAAAXUbzG2ANUTY+RossRgCADq64MB3S37k99B4zVNkJ5Dh89sS3S5fWfeQSBAAAXc7GxCNaZDECAHRg6aLiUPKNW8LBVc8rO4EW8mpG7Dxk5oR3ipcs+MDlBwAAuqzfR5n4sigb52uTxQgA0MEUpYpCxdXXh6OefVrhCbTW1Hfa2A8uWDTvPZceAADo8mYnjtYmixEAoANJFaZCdNEV4ZhfPKzsBHL0mDRq0zkvz16ZHPR3uPAAAECX92Hie1Em7qlRFiMAQAcxqGxgOOHnDyo7gTad8eLM5gFgq8sOAADwiX9LfFGjLEYAgA6gJFUULvjRPSF/wnBlJ5DjuPmTf1eZibe45AAAAH9hZ5Spn6pRFiMAQHt/B6CoJJTedmfoOW6YshNo9RBw1Y4j59S+Ubas7mMXHAAAoA2NUTa+2CPBYgQAaKeK08Wh4sbvhINGPKfwBFoNACMaD5k5YWV6yYKPXGwAAIC/4Z+jTHySZlmMAADtbQBIFYWyq64Nhz7zuMITaK1p/6lj113w6tzVf/5lj0sNAADw121MPBFl4z7aZTECALQTqcJUGHDxleHIxx9RdgI5uteO3HHuy7NXJQf5bS40AADAp/C7xEXaZTECALQTpSXl4cx/fDDkV3sIGMh1xosz/90AAAAA7IIdiVlRJj5OwyxGAIB9/RBwcWlI3/NAyKtWdAIt5ddU7Th+/pRfV2b8BRAAALDLNidujxriHlpmMQIA7KsvAIpKQ8V3fxi6jxum8ARaDwDbj5hb86eyZXVbXF4AAIDP6N+ihvi8KBsrmsUIALDXB4B0cSj++jfD/iOeUXgCLeRNHLHz4Bnj16QXz/8wObTvdHEBAAA+h3GJPE2zGAEA9qKSVFEo+8p1od+zTyg8gRx9po7ZfMGrc9//5H88XVoAAIDPY12Uics0zWIEANhLUs1fAQy6JJz46KMh3zsAQCvdJ43ceu7Lc94wAAAAALvRK1E27q1tFiMAwF5QXDEgnPPzRzwEDLT5DsCZL878X/4CCAAA2O1fAzTE90TZuJvGWYwAAHtQeXFZKL77AWUn0NYAsPW4BZP/kBzOm1xQAACAPeBfEoUaZzECAOwhFenSkPrObaHb+GEKT6D1Q8CNh8+euKp0ad0GFxMAAGAP2Zx4IcrEB2udxQgAsLu/AEiXhPQN3wp9qp5VeAI5Dp4xYX168fwP/Q0QAACwh72VuDTKxvmaZzECAOwm6cJUKBlyTTjy6Se8AwDk6DN1zLoLXpv3TnIQb3QhAQAA9rDmHx7NixriIzTPYgQA2C1SoeSSy8Mpjz1mAABy9Jw8asO5L8953RcAAADAXrQj8QNfA4gRAGB3vANQOSic++Ajyk4gR0FN1ZYzfznzDy4gAADAPrA8ysTHap/FCADwOURF5aH/nfcoO4Hch4BrqnYcN3/yquTgvdXlAwAA2EeqomzcXQMtRgCAzzIApEtD/1tuD73GDVN4Aq0HgHDEnJo1pUvrNrl0AAAA+9CKqCG+SAMtRgCAXVRUmA4l138jHDTsGYUnkOPgGRPeK1q84H3vAAAAAPtYYyKOsvFRWmgxAgB8SqlUKkRXXReOf/opDwEDrTX1nTZ2Tf/X5q00AAAAAO3Eh4m7okxcoIkWIwDApxgABlwyJJz+i8eVnUCO3lNGr/vyK3NWuGQAAADtzD9HmTgdZeM8bbQYAQD+hgEVg8KZD/xM2QnkyK+p2n7GizPeTQ7X21wwAACAdmZH4tmoIT5QGy1GAIC/YmC6PJx1972h+wRlJ5A7ABw3f3LzALDd5QIAAGinVkYN8aW+BhAjAEAbigvTofjbt4ceY4cpPIEcR8ypebNsWd1HLhUAAEA7tzTRQyMtRgCAFu8ApMPA628Ohwx7VtkJtJA3cUTTITMnLC9esuD95CDd5EIBAAC0+78FysS3+RpAjAAAn0g3DwBXfz0c/ezTCk+g9QCw88Dp495LLZr/nosEAADQgfwhaohP0EqLEQAwABSmQnTRFeGERx5WeAI5ek4evemcl2ev/uSBLRcJAACgo9j850eCs3FPzbQYAYCu/RBw5eBwys9+FrpVKzuBlgpqqrae/uKMVQYAAACgg/pd4kLNtBgBgC6rJFUUzv/xP4SCCcMVnkCO4xdM+W3lf/x6xuUBAADoiLYnxkbZuJ92WowAQJd8CPjim+8IPccNU3YCOe8AHDm35vdly+o2uDQAAAAdXPPfm14TZTwSLEYAoAspTheHi264JRw48nmFJ9B6AGj8wqzqt0uWLlznsgAAAHQSr0UN8YlRNlZSixEA6AIDQKooREOuC4c984TCE2itqe+0sesveG3umuSQ3OiiAAAAdBLbEt+LMnGBllqMAECnli5MhcpLhoRjf/FIyPcQMNBKr8mjPz775dkfGAAAAIBO6LdRQ3ykllqMAECnVlo+IJzx03/0EDCQ+zdANVU7z3xp5u+Sg/FWlwMAAKCTekpLLUYAoFM/BDzgR/eHbuMNAEDOOwBNJy6c8m+VmT9/IutiAAAAdFbLo2z8JU21GAGATqekqCRc+p07Q56/AAJyvwDYcfS82t+XZ2IDAAAA0Nk1//XpgigT76+tFiMA0Hn+AihdHCq/9o3Qp+o5hSfQ+guAnf1mTlhTtHjBuuQg3ORCAAAAdAErEjdF2ThfYy1GAKDjfwGQKgplX7kuHPbME81ln9IT+Es7+04bt+78V+d+lByAd7oIAAAAXUTz/SeOMvGJGmsxAgAd+w2AwlQoveiycMKjD4f8au8AAC31nDxq07kvz34zOfxudwkAAAC6mOavoW+LsnF3rbUYAYAOq7i8MvS/96ehYIIBAGgpv6Zqx1kvzfx1pQEAAADouv5H4vQoGyuuxQgAdMyHgCvuul/ZCbQ1AGw/uW7qrx34AQAA6h+LsnEPzbUYAYCO9xDwN25VdgJtPQTcePjsie+VL6vb6LAPAABQ/1GUic/TXIsRAOhQDwEXXn9jOGDEcwpPIGcA6DdzwtqixQs2JAfdJod9AACAP5vlawAxAgAdQrowFYqHXBMOe/rxkFet8ARa2n/q2LUXvDZvRXLAbXTIBwAA+E9rokx8hfZajABAu1c+6JJwxoMPhXwPAQOt9Jw8asO5L89+o7KhfocDPgAAQAs7E69G2fggDbYYAYB2qyIaFM5/4EFlJ5CjW+3IzWe/POt3DvYAAAB/1frET6Ns3E2LLUYAoN0pKyoNhT+6R9kJtPkOwPELJjf/BdAWh3oAAIC/6b8mPBIsRgCgnQ0AqeJw/s23hB4TlJ1AqwGgpmrH4bNr3i9fFm92mAcAAPi7tiYejzLxAZpsMQIA7UJRYToUf+2m0HfEswpPIEe/GRNWFi1Z8H5yiG1ymAcAAPhU3kgURdk4T5stRgBgnxtw+dXh2CceC3nVyk6gpf2njl19wWvz3kkOr40O8QAAAJ/azigTj0j01maLEQDYZ1KpVBhw8ZXh1EcfVXYCOXpPGf3hl1+d8yeHdwAAgM+kKWqIK7XZYgQA9pmKykHhzPt/quwEchTUjtx2ev30lcmhdZuDOwAAwGcVvxxl414abTECAHtdeVFpOOOuu0N3DwEDuQ8Bbz9+weT3DAAAAACf28eJazTaYgQA9qriwnRIf/vW0H38cIUnkOPwOTVvli+L1zmsAwAA7Ia3ARrqF0fZ+AitthgBgL1m0NU3hn7DnlF2Ajn6zZjwdtHiBe//x39XOrADAADsBqsTt2i1xQgA7HHpVDoMGvK1cOSzTyo7gdaaDpg+7t3CRfNXO6ADAADsdpkoG5+h2RYjALDnBoDCVKi86Ipw/KMPKzuBHL0mj9549suzmgeAHQ7nAAAAu93mxD9EGY8EixEA2EPKooHh5AfuD92qlZ1AS91qR275Yv2M5r8A2u5gDgAAsMf8U+KcKBvnabjFCADsViVFJeGcu+4J3TwEDLTh5IXT3qpsqN/oQA4AALBHbY0a4kd8DSBGAGC3G3zjraHX2GHKTiDHkXNr/li+LDYAAAAA7B3LE8druMUIAOy2h4AvufZbYf+Rzys7gRbyJo7Yeeis6rdKli7c4BAOAACw1zRFmXholI0LtNxiBAA+l6JUOgy48tpwyHNPKjyB1gNAU99pYz+64LW5HzuAAwAA7HUbooa4UMstRgDgs38BUJgKJRdfHo559KGQ7yFgoKWm3lPGbDzn5dkfJgfPRodvAACAvW5HYnKUjXtrusUIAHwmpdHAcNoDD4SCCR4CBloqqB2548yXZr5d2VC/xcEbAABgn74NMETTLUYAYJel0kWh7I67Q49xHgIGcp1cN/UPlZnYAAAAALBvNX+ZPTPKxodpu8UIAOzCOwBFYchN3w/dfAEAtPEQ8JFza35bkYm3O2wDAAC0CysTX4+ycb7GW4wAwN9VnCoKg6+5KfQaPVThCbQcAGpGNPabOf694iULtjpkAwAAtCsvJU7UeIsRAPg7XwCkQ9mV14TDnn2y+de+Sk/gL+08YPq4tf0XzWt+CHinAzYAAEC7silxc5SJu2u9xQgAtP0GQGEqlFx8eTjh4Yc8BAzk6D1l9MZzX5nzTnKo3OZwDQAA0C79X4mjtd5iBADaVFIxIHz53vtD9/EeAgZa6lY7cttZL838Q2Wm3t8AAQAAtF/bokx8t9ZbjABAjtLi0jDo+/f6AgBo6yHgxpPrpv6msqG+0YEaAACg3ftT1BAfovkWIwDwv78ASBWFgd+4TdkJtPEQcNWOw2ZXr6jMxE0O0gAAAB3C9igTPxJlvQ0gRgDgkwGg7Ks3hL6jhio8gZwvAA6ZOeG9kqULNzhEAwAAdCh/iBriQu23GAGgi0s3PwQ85KvhiKefCHnVCk+gpQOmjVvb/7V5qyJ/AwQAANDRbE4MjbJxLw24GAGgC6sYfGk47cGfewcAyNF7yuj1570y+0+VzZ+ROjwDAAB0RL9NDNKAixEAuqioclBI3ftTAwCQo1vtyM1nvjTzdQ8BAwAAdGg7E2OjbHyoFtwIoBCFLqaspDwU/eBuZSeQI7+mavsJC6ascFgGAADoFJrvdxdH2ThfE24EALqI0lRRSH/ru6HnBGUn0Ooh4JqqHUfMqVlR2VC/xUEZAACg06hJHKAJNwIAXUBRYTqUXHdjOKjqeYUnkOOQmdWripcsfN8BGQAAoFP5IMrGpZpwIwDQBQy4/Jpw9JOPh7xqZSfQ0gHTxq4ufG3eu5F3AAAAADqj6ZpwIwDQiaUKU+GiQVeEM37+cMiv9hAw0FLvKaM/PPeV2e988miUwzEAAEDnsyHKxv214UYAoFMOAIWhMhocvnTfA8pOIEf3SSM3fbF++moHYgAAgE6t+Udfs6Ns3FsjbgQAOpmykvJw7g/vCt09BAzkPgS8/aS6qc1fAGxzIAYAAOj0licu0YgbAYBOpLgwHVLfuS3sN3aYwhPIccScmrcrM/XrHIQBAAC6hOYfgNVE2fhgrbgRAOgkBl99QzhoxHPKTiDHoTMnvF28ZOH7DsEAAABdyh8Sl2rFjQBAJ3gI+IpLvxqOeeqJkKfsBFpq6jtt7Mr+i+Y1DwBNDsAAAABdSmOiNsrGh2vGjQBAB5UuTIWBg68Ix/3iEWUnkDMA9J4yet05L8/+0MEXAACgy9qQuDbKxAXacSMA0OG+ACgM5dGgcNp994du1QpPoKUek0ZtOuPFGauSw952h14AAIAu7cXEodpxIwDQwZSUlIdz7/xx6DVuuMITyHFK3bQ3KzP1HzvsAgAAdHmbokx8pXbcCAB0MBd+8/aw35gXlJ1AjiPn1LxekYnXO+gCAADwiQbtuBEA6EAPAV9z5Y2h78jnlZ1AzjsAB88Y/8eSJQvXOeACAADwF7ZEmfgiDbkRAGjvDwGn0uHiy74aDh76lLITaCFv4oidfaeN/aBw0byNDrcAAAC00pTIRJl4fy25EQBorwNAYSqUX3R5OPbRh0O+h4CBVl8A7DdlzPpzX5n9QXKoa3S4BQAAoA3vJ27SkhsBgHb5F0CFoXTAoPDF++8PPcZ7CBhoqfukkVvPeHHm8sqG+s0OtQAAAPwVzT8aWxhl4iM05UYAoJ0pKikNRXfcFXqN9RAwkPM3QE2n1E39fWUm9jdAAAAA/D3vJr6uKTcCAO3MVTfcHnqNMQAAuQ6bPfE3FZl4i4MsAAAAn8LOxIwoEx+lLTcCAO3hC4BUOlxx1Y2hYMIwZSfQ+guAxoNmjH+3dOnC7Q6xAAAA7IL1ieuiTFygMTcCAPtyAChMh4rLrw6HPv+0whNobecB08atKVw0/6Pk4NbkAAsAAMAuqk8cpjE3AgD7SLowFUovvjwc/8hDoaBa4Qm0tN+UMRvPfWXOquTAts3BFQAAgM9gY5SJh2jMjQDAPlJaOTCcc+99occ4fwMEtNRj0qitZ/1y1juVmfqtDq0AAAB8DlmNuREA2BcDQHFpGHjbXaHnWAMAkPMOwM4TF07598pM7AsAAAAAPq9tUSa+UmtuBAD28kPAg795u7ITyB0Aaqoaj5xbs8IhFQAAgN3on6NMvJ/m3AgA7KV3ACq+8rXQZ/RQhSeQ8wXAobOqV5ctq/vYARUAAIDd6IPETZpzIwCwFwaAoiu+Eg5/9kmFJ5DjwOnjPipcNH91cjDb6YAKAADAbtSYqIsy8eHacyMAsAdVDLo0nPzgg6FgwnCFJ9BCn6ljNpz3ypxVlQ31OxxOAQAA2ANWJm7QnhsBgD0kKh8QLrjr3tB9nIeAgZa61Y7cePqLM/5oAAAAAGAPav7qvDbKxodp0I0AwG5WXlIRiu64K+RVKzuBlgpqq7afXDf13eQg1uRACgAAwB62PHFJlI3ztehGAGB3vgNw862h11hfAAA5DwE3HjWvtvlzzC0OogAAAOwl1Yl+WnQjALAbFBWmQ/qar4UDRhsAgFyHzKz+oHRp3QcOoAAAAOxFqxOVUTZWpBsBgM9rwKVXhaOeelzZCeQ4aPr491OL5q/+5D8ZHUIBAADYi+KaRJ4m3QgAfA6DB1wSTvvZP4aCCcMVnkALvSaPXnPuy7NXVDbUNzp4AgAAsA9siLLx4Zp0IwDwGaQSAysGhbN/cn/IqzYAAC31nDxqw5kvzWx+B8BDwAAAAOzLrwGGRdm4QJtuBAB2UUlJeTj/+3eGHuO8AwC0VFBTte3UeNpbyWFrm8MmAAAA+9jyqCE+V5tuBAB2QXEqHVI33xoOGu0LACDX0XMnrazM1H/koAkAAEA7sCUxPMrGvTTqRgDgUxo05Guh34jnlZ1Aji/Mqn6nbGndGodMAAAA2pF/jjK+BjACAJ/KkIFDwtFPPqbsBHLsP23sisJF81Z7BwAAAIB2ZkPivigbd9OqGwGAv/oQcCpceuFl4fhHHw551cpOoIWm/aaMWXPeK3PWGAAAAABop/5rlInPi7KxYt0IALSlrHJgOP0ffhK6jfcOANBSz8mjPj7rpZkrkgPVdodKAAAA2qltiXuiBm8DGAGAHCWlFeG8O+4M+481AAAt5ddU7Ty5btqKysyfP610qAQAAKA9+z8Tx2nWjQDAX0qlQsU3bw0Hjhyq8ARyHDtv0luVmXi9gyQAAAAdwJYoE38jkaddNwIAn7jm0uvCAVXPKTuBHAfNGP/H0qV16xwiAQAA6ED+34QHgo0AQPNDwFcN/kroN/QpZSfQQt7EETv7Thu7MrVovr8AAgAAoKPZGWXim7TrRgDo4gNAYagceGk47pGHQn61dwCAFpr6TB2z9vxX565ODk6NDo8AAAB0QP89ysb7a9iNANBlB4DSaGA48x/uC73GGwCAlnpMGrX1jBdnrqxsqN/s0AgAAEAH9UHiGg27EQC6pOLS8pD63p2hz5gXFJ5AC/k1VY2nxtP/VJmp3+jACAAAQAe2IzEvysaHatmNANC1vgJIpcJl198S9h/5vMITyHHEnJrfVWRiAwAAAACdwfLEtVp2IwB0GenCVLjmsutDj7G+AAByHwI++P9n7z68677KfOEvSe5O7wkxqSSQAmnSUdfPsZ1CCpAEQoDQEiBABgh9IAVITxzbktyt4hJ3W1ukObZ1zrnve+feu2bW3HlnzdyZyzATEiducYl7L/s9YphFjhXASSxb5eO1Pn/C2fvx96v9e56d+GplW8tOQyIAAAA9xL6cGUk2nCZpVwJAL9gDUBKvvvbmeOLTjwk8gQPtO3bGhJWlixeszw1H+w2JAAAA9CCvJJlwXZINhdJ2JQD06BcAFSOuj+c/8GAsmizwBPINmjpuy2UvzlmZG4x2Gw4BAADogeqTTDhe2q4EgB6rsmZY/Oh9P4z9J4wSeAJ5+jfXb7v4uZlv1GRadxgKAQAA6KFezbksyQaBuxIAep6qsspYfde34sCxIwWeQJ7Chtrd5yyc+u816bDdQAgAAEAPtjdJh1/mFEnclQDQo5SWlMbr7rgr9ptgETDQcRHw6XMbXqlOhz2GQQAAAHqB13KOlrgrAaBH7QG4+hOfiYPGKgCAjgXAiTMnvVadDlsMgQAAAPQa6fBdibsSAHpMAVB5/c1xyJNPCDyBDo6ZMeGtkpfnr8oNQPsNgQAAAPQif5tkwwlS9y7279tVtwh14V2qGX59vODn98eiSaMFnkCewdPGbbz8xTkrcoPPbsMfAAAAvcxbSSZ8Turexf49lHxBqAvvwrCqq+MV3/l+7DdhlMATyNO3qX7Lh3/97Gs16dZdBj8AAAB6ob05C5JssBugK/37VXKnYBcO9gVAeXWs+Nq9sa8CADhAUUPtznMWTl1mETAAAAC93GtJJtySZIPwXQkA3UtpqjSW33lXHDBeAQB0XAQ8ZF7TK7lBZ4dhDwAAgF6u/Y/jxieZcKz0XQkA3acAKC6J5Z/6TDy5TgEAdHTizMnrq9rCGoMeAAAA/N6/5FRL35UA0G1cfd3Nccjjjwo7gQ6OnTFhTeniBWtzw81+Qx4AAAD83s6cnyfpMFgCrwSALu+65Lp44V//LBZOGi3wBPIMmjpu/WUvzllZ859PHQ15AAAA8Ef/O+dDEnglAHRpIyqHxY/e98NYpAAADtCvqX7LRc89u7omHfYZ7AAAAOAddwPcnWRDkRReCQBdUkVFdbzsnntjvwn2AAD5+jTW7fxQmP5GbpjZZagDAACAPyX8bwuClQDQJZWlymLxF78ajx/rBQDQ0ZB5TWtqMq1bDXMAAADwF4uAm6XwSgDocoZ+6rPx5NFPCzuBDk6cOXlFdVvYaIgDAACAg/JSkg39JPFKAOgybh52UzzjsYeFnUAHx0yfsKpk8fw3DXAAAABw0FYn6TBcEq8EgC7hxurr4jkPPhALJvsMEJBv0NSx6y97cc76mkzrfgMcAAAAHLTdOROTdCiQxisB4Iiqrh4WL/jRj2LRJAUAkK9/c/3mS56ftSo3tOwxvAEAAMC79pskHYZK45UAcMSUV1bHj33z3njUeAUAkK+osW7v+S3T19ZkWrcb2gAAAOA9af8/9eNJNgyUyCsB4LBLpUpjxZ13xePqRgo8gQ6GzG9+oybdusXABgAAAO/L3ySZcJlEXgkAh91NN90eTxj1hLAT6OCEmZOWVbWFDQY1AAAAeN+25nwjyYa+UnklABw2tyY3xhOffkzYCXRw9PTxq0penr/ZkAYAAACHzOIkE85OskEwrwSAzlWSc/XQa+OZv3woFkwWdgJ59g+eNm7dlYvmrs0NJ/sMaAAAAHDI7Mi5JcmEQsm8EgA6tQAoT4bFi37449h/okXAQL7+zfU7L3puZnsBsMtwBgAAAIfci0k6DJLMKwGg05RXVser7rk3HjX2GYEnkKeosW73+WH6ippM6zZDGQAAAHSKLUk6pCTzSgDoFGWp0jj8jq/EY8Y8JfAEOhgyr/m31elgDwAAAAB0rnGSeSUAdIpPffz2eHSdAgDo6LiZE39b1Ra2G8QAAACg072WZMMQ6bwSAA7pHoARw2+Mx416UtgJdFgEfMz0CSvLlyx8yxAGAAAAh8WOJBMeSrKhQEKvBIBDUACUxIph18YPPfSLWDhZ4AnkGzR13NYrXprbvgh4ryEMAAAADov9OdkkE06T0CsB4H2rrBkWL/3+D2P/CaMEnkCe/s312y5+btaq3OCxywAGAAAAh9WKnM9J6JUA8L5Ul1fH8ru/FQfVjxR4AnmKGut2nt8y/XfV6bDN4AUAAACHXfuL/MYkG46X0isB4D0pT5XF62//ahxU/7TAE+iwB+DM+U3/VtUWdhi6AAAA4Ij5/5JMKJfSKwHgPe0BGH7z7fEoLwCAdygATpg5cVlNpnWrYQsAAACO+G6AXyaZMFhSrwSAg5YqLok1I26IQ0Z6AQB0dPT0CRvLlixYZ9ACAACALuF/JOlwgaReCQAH7eqrr4+X/vzBWDBZ2AnkGzRt3MYrXpq7+g/fHTRoAQAAwJHXvqvvM0k2FEnrlQDwFw2rGhav+M73Y78JowSeQJ7+zWM3XfTczGU16bDTgAUAAABdSmvOUdJ6JQD8+RcAZdWx8u5vx/7jnhF4AnmKGuu2nxemvVqdDrsMVgAAANAFXwNkw4el9UoA+JPKUmWx4vNfiYPGKgCAfAUNY/YOmdf0Wk2mdbuhCgAAALqodKhPsqFAYq8EgHdUecvt8ZRanwACOjph5qT1NemwwUAFAAAAXdobSSYMkdgrAaCDoSNuiOc+8YSwE+jgmOkT1pUtWbjGIAUAAABdXvsL/u9I7JUAkOeamhHxop/+LBYIO4EDDJo6bs3lL81dnhsg9hqkAAAAoMvbl7M4yYbjpfZKAPi9EeVJvOS798U+E30GCMjXr7l+w0XPzVxekw57DFEAAADQbSxLMuETUnslAMSqsqp4+de/FfuPtwgYyNensW77+S3TltdkWncangAAAKBb2Z/TmGTCYMm9EoBeLFVaFku+8OV4fO1IgSeQp2DKmP1nzmtq3wGw2eAEAAAA3dI/JulQKblXAtCL1Xzqs/EDI58SeAIdnDhz8uqadOtbBiYAAADottpf9v8wyYb+0nslAL3Qx4deH4c8/qiwE+jgmOkTlpcuXrDKsAQAAADd3qIkE86V3isB6GVuqBgez7n/Z8JOoIOB08auvuylOW/WZFr3GZQAAACg29ua84kkGwol+EoAeomhFUPjh7//g9hn4miBJ5Cnf1P9poufm7mqJtO625AEAAAAPcaMJB2OkuArAegFyiqq4uXf+FYcPG6UwBPI07exbvf5LdM3JAoAAAAA6Gm251wswVcC0MOlSsti+Re+Ek8eM1LgCeQpaKjdd9aC5pU16dZNBiMAAADokZ6U4CsB6OGuufkz8bSnHxd4Ah2cMnvK61VtLesMRAAAANBj/SbJhmOk+EoAeqhPVl0XT3r6MWEn0MGxMyYsL12yYKNhCAAAAHr6J4HCV6X4SgB6oBGVw+NZDz0g7AQ6GDh17LorXpq7JjcI7DMMAQAAQI/W/n//RUnGgmAlAD1KRVUSL/n+j2LfiaMFnkCe/s1jd1zy/Kz2FwB7DUIAAADQK7yapMO1knwlAD1EeUV1LPn6t+MxY58ReAJ5+jbW7bogzFhVk2ndZgACAACA3vRJoNYnkmzoJ81XAtDNlZWWxZo7vhRPGP2UwBPIU9BQu/eD85uXVaeDPQAAAADQ+7Ql6XCBNF8JQDdWknP9DZ+Oxz3zuMAT6OCU2ZNfq2xr2WroAQAAgF5pdc5npPlKALqx62quiyeNVAAAHewfPG3cyvIlC98y8AAAAECvtT9nUpINJ0v0lQB0Q1XJ8HjBg78QdgIdDJw6bstVi+Zt/sNlb+gBAACA3utfk0y4KskGob4SgO6ksnpovOK+H8V+E0cLPIE8A5rHbrv0+dmrcpf8LoMOAAAAkHNvkrYgWAlAt1FdXhVL7/pmPKp+pMATyNO3qW7Hh8L016vTwR4AAAAA4L+kc06Q6isB6AYqUmWx5rNfjEfXPinwBPIUNtTuPWtB87KqtpbthhsAAADgbbYl2ZCS6isB6OJKikvisBtvi8eNUgAAHZ3w7MTXq9Jhk8EGAAAA6ChMkuorAejqi4CHXx/PfPopYSdwoH2Dp43fWNnW4hNAAAAAwJ+yKkmH4yT7SgC66h6AZES89P6HhJ1AB4OnjV9X/PK8FbnLfJ+BBgAAAPgTduZ8Q7KvBKALGlo5NF7xne/HvhNHCTyBPAOax2685PlZy2rSYZdhBgAAAPgz2v948IUkGwZL95UAdCFJaVUsvvueOGDsSIEnkKdvU93WC1pnvFadDjsNMgAAAMBBeCVJhyrpvhKALqI8VRbLP/vFeFStPQBAvoKG2j0fmNv4enU62AMAAAAAHKxtOQ8n2VAg4VcCcISVlJTE8k99Jp4y6mmBJ5BfAEwZs+/EmZPfyl3a2w0vAAAAwLuUTrLhQxJ+JQBHehHwNTfE8594QuAJdHDMjAmrKttaVhtaAAAAgPdgdZIJn0+yoVDKrwTgCBlRPSJe/Nf3CzuBDgZPG7/2ypfmLkv+c5mPwQUAAAB4L+qTdDheyq8E4Ai4pjyJl3z3vlg0cZTAE8gzoHns+kuen/VGTTrsMawAAAAA78M/5Vwu5VcCcJjVpCriFXffEweMGynwBPIUNdZuP7dl2vKadNhhUAEAAADep/Y/MPxakg19Jf1KAA6TVGlZLP7Cl+NxdQoAIF9hQ+2eM+c1tS8C3mlIAQAAAA6RtiQdTpL0KwE4DEpKSmLlLZ+NZ458SuAJdHDq7IY3atKt6w0nAAAAwCHU/seG5ZJ+JQCHYw/A8BviOY8+IuwEOjh2xoSV5UsXrjCYAAAAAIdeqJX0KwHoZB+vGBbPvf/nwk6gg8HTxq28ctHclblLeb+hBAAAAOgEryXZcLy0XwlAJxmeqo4Xf+++WDRptMATyNO3sW7jRc/NXFGTad1tIAEAAAA6ya4kHW6W9isB6ATlZZXx8nu+HQeNGyXwBPL0aazb+aEwfWOiAAAAAAA6V/vXBxYl2dBf4q8E4BAqLS2P1Z//ajxt9EiBJ5CnsKF2z1kLprYvAt5kEAEAAAAOg98lmVAp8VcCcIikSlJx2Cduj0OeeEzgCXRw6uwpyyrbWtYYQAAAAIDDZEvOAxJ/JQCHyI1Db4hnP/KIsBPo4JgZE14rX7pwneEDAAAAOMyfBPp1kg2nSf2VALxP15Um8ZwHH4iFk4WdQL7+TfVrr3hp7qo/XLwGEAAAAOBw+r9JJgyX+isBeB8qK6rjpT/4cSyaNFrgCbzd/n5N9dsvfWF2+yLgvYYOAAAA4Ai9Bng0yYQBkn8lAO9BRXlVrPravfGYsc8IPIE8fZvqtl/Y+uwbNZnW7QYOAAAA4AhalKTDhyT/SgDepfLS8lhzx5fjSaOeFHgCeQoband/cH7zsqq2sMGgAQAAABxhbyaZcEOSDYXSfyUAB6m0JBWvvekz8fQnHxN4Ah2cNqfhPyrbWjYaMgAAAIAu4vEkHQZL/5UAHOwi4OS6ePrjj1gEDHQwsHnsyoqlC9caLgAAAIAu5B9zzpD+KwE4CNWVSbzgF78SdgIdFgEPnDpua8ni+ZuS/1y6Y8AAAAAAuor9SSZcK/1XAvAXVFUmsfK7P4l9Jo0WeAJ5BjSP3fKxF+Ysz12quw0WAAAAQBc0S/qvBODPFQDlVbHyrm/Go+pHCjyBPP2a6ndc2DpjRU06bDdQAAAAAF3UmiQbTtAAKAF4B5Wp8jj0s1+KJ4x6UuAJ5ClqqN119oKpr1W1tWwzTAAAAABd2J4kHW7XACgBOEBpcSoOvfG2eNLTj8cCgSdwgBNnTlpe2daywyABAAAAdHHtOwxnawCUABz4GaDh18cPPvG4sBPosAh48LTxm6vTYYshAgAAAOgmXkmyIaUEUALwB9XVV8fiBx4WdgIdDJ42fkNq8YLlhgcAAACgG9mUZMKPlABKAHKGViax7N7vx6JJowWeQJ6BU8du/ugLs5fXtH9Lz/AAAAAAdB/7cuYn2XC8EkAI3rsLgNKqWPHVe+KgsSMFnkCevk31Wy5snfF6dTrsNDgAAAAA3dC/JpkwTAkgCO+1KkvKYvlnvxiPHf2kRcBAnsKG2t1nzmtcVdWmAAAAAAC6rV05P02yoY8SgF6npKQkln/itnja008KPIE8BVPG7D951pSN1emwzbAAAAAAdHMtSTqcpQSg16m59sZ48aNPCDyBDo6ZPmFtdTqsNiQAAAAAPcCyJBOGJ9lQoASg1xhWNSxe9rMHhZ1AB4OnjdtQ/PL85QYEAAAAoAd5MMmEQUoAeoUR5Uksufe+WDh5tMATyDOgeez6S1+YtaIm07rXcAAAAAD0IH+Tc4YSgB4vSVXEK+++Jw4aO1LgCeQpaqzddn7L9DXV6bDHYAAAAAD0MDtyypQA9GilqdKY+uyd8YRRFgED+QobavcMmd/cvgh4p6EAAAAA6JHSoU4JQI9VUpKKNZ/8TDz7CYuAgQ72nzanYVVNunWdgQAAAADowVYn2V64F0AJ0DtcPeKGeOGvHhZ2Ah0cN2PCm5VtLasMAgAAAEAPty/JhOuUAPS8RcBlSfzwX/9c2Al0MHjauFXFL89bYQgAAAAAeoH9OQ1KAHqU4anqePF3vhf7TBJ2Avn6NtVtvOT5Wetqft+CGwQAAACAXuGfkmw4VQlAj1CeKovFd30jDho7UuAJ5OnTWLftgtYZa2vSYbfLHwAAAOhF1ibpcKcSgG6vtLQsVn/uy/GUUU8JPIE8RY21u89eMHVFTbp1k4sfAAAA6GX2tH8SKMmGfkoAuq1USSomn/h0/OATjwk8gTwFU8bsP31Ow4qqtrDGpQ8AAAD0Uv8zyYSLlQB03z0Awz4ez/7lLwSeQAfHzpjwesXShQoAAAAAoDdbnXOnEoBu6brSJJ794AOxaLKwE8jXv6l+7VWL5r3logcAAAB6ub05I5NsOEoJQLdSUVoer7z3vlg4ebTAE8jTr6l+00dfmL2uJtO6z0UPAAAA0Po3STp8VAlAt1FeVhFr7vp2HDzuGYEnkKdvU/32D//62eU1mdbtLngAAACA39ucc2uSDYVKALp+AVBaFmvu+FI8adSTAk8gT1Fj7e6zF0x9ozodNrrcAQAAAPI8k2TCMUoAurTSklRMbro1nvb4IwJPIE/BlDH7Tp/T8FplW4s9AAAAAAAd/VPOWUoAurQRw26IZzz8y1hoETBwgMHTxq0qX7pwswsdAAAA4B3tyhmRZIMSgK6psrQiXnT/g7FAAQAcoH9z/fqSl+d7AQAAAADw56TDlBwlAF1PRUVVTP7qR8JO4B0KgLGbL3txzuu5i2yvyxwAAADgz1qTZMNAJQBd6wVAWWWs/uo346Bxzwg8gTz9muq3f7j12WU16bDdJQ4AAABwMMI1SgC6zguAVFmsvP0L8bhRTwg8gTxFjXU7zl4wdVlVW8sWlzcAAADAQWtQAtAllJWkYvXNt8WTn3wkFgg8gbfJnQn7Tp41eVXF0patLm4AAACAd+Wfk2w4VQnAkf8M0NXXxHN/+UuLgIEOjpo2fk3F0pZNLm0AAACAd21tkg53KAE4oqoqk1hy/6+EnUAHA6eO21C2ZOEbLmwAAACA92RXztgkG4qUABwRNWXV8epv/VDYCXQwoHns5o+9OOfV3EW114UNAAAA8J79tyQTzlICcNhVpypixZe+FgeMGynwBPL0barffGHrjGXV6bDDRQ0AAADwvryWc4sSgMP7CaCSslh1+xfjCaOesAgYyFPYULtzyPym1VVtLQoAAAAAgPdvd84vkmzoowTgsEgVl8TyGz8ZP/D4IxYBA3kKGsbsO3XOlDWVbS1bXdAAAAAAh8z8JB2GKAE4PHsArr0xXvyrRwWeQAfHzZi4rjodVrmYAQAAAA6pV5NMGJZkQ4ESgE41tHJoTP30F8JOoIPB08ZvKluycIVLGQAAAKBT3JdkQ38lAJ1XAJRWxdQ3vyvsBDoY0Dx2/WUvznkjdxntcyEDAAAAdIrZSSacogSgUySpilj2la/HwWOfEXgCefo21W27oHXGmup02O0yBgAAAOg07X+AeaESgEOutDgVyz7z+XjiM0/EAoEn8DZFjbW7zlrQvLYqHXa6iAEAAAA61b4kG+7uUXsBlABHXqokFZNPfiae9eQTAk8gT0FD7b7T5jS8WZMO61zCAAAAAIdBOrTkFCkBOCRKikvisGtuipf84mGBJ9DBCTMnra9qC2+6gAEAAAAOm/VJNhyvBOCQGFYxNF7yk58JO4EOBk0d92bpkgUrXbwAAAAAh1u4VQnA+zY8VRWvvPd7sc9kYSeQr39z/aZLX5i1pibTut+lCwAAAHDYNSsBeF/Ki1Ox9Mtfi4PHjhR4Ann6NNVtv7B1xrrqdNjjwgUAAAA4Iv41yYYTlAC8J6Wp0jj0jq/Ek0Y/JfAE8hQ11u4+e8HUlTXpsNllCwAAAHDErE3S4RYlAO++AChJxeGfuD2e/fhjAk8gT2FD7b4z5jauqU6Ht1y0AAAAAEfUjiQTnk6yoUgJwEErKS6JV4+4IZ730IMCT6CD42dOWl7Z1rLWJQsAAADQJWSSbDhNCcBBG1ExLH7kr38WiywCBg4wcOrY9cUvz1/ncgUAAADoMn6TZMIIJQAHpaKkNF51732x76TRAk8gT7/m+s0ffWF2ewGw3+UKAAAA0GVsyvmOEoC/qKy0LA776rfjwPHPCDyBPH0a63Z8+NfPvlGTbt3pYgUAAADocqYmmXCSEoA/qTxVFq+5/SvxpNFPCTyBAwuA3ecunLa6Jh22uFABAAAAuqR/SNKhRAnAO78AKCmNyU23xdMfe1jgCeQpaKjdc8bcxjeq2sIGlykAAABAl9X+x5tfSLKhSAlAnlRxSRw24sZ4zi8eioUWAQMHOO7ZiWvKlixQAAAAAAB0fU8l6XCMEoA8leVV8eKf/jz2sQgYOMCAqWM3pBbPf8sFCgAAANAdhP8n5ywlAG9bBFweh/7Vj2PhZAUAkK9fU/3Wy1+c+1ruAtnnAgUAAADoFvbmlCbZoASgOFaWVsTrv/Tt2G/CKIEnkKdvU/2Oi56buaIm07rL5QkAAADQrV4D/CKnSAnQy1WkymLNp78Qjx39hMATyFPUWLfjnIXTllWnwxaXJgAAAEC38//m9FMC9GLlJaUxufnT8YzHH4kFAk/gbQobavecNqdhefnShQoAAAAAgO5pW5INZysBeqmS9lcAw6+L5z30UCyaLPAE8h3/7MQ3ypcu3OiyBAAAAOjG0uEOJUBv/QxQVRJLfvqgRcBAB/2b6zeXL124LHdR7HdZAgAAAHRrLyTZUKAE6GWqyirjiHt/IuwE3qEAGLvtykXzXnVBAgAAAPQIryeZcIYSoBepTlXE6ju/FvtMGCXwBPL0barf8pHnZr5Wk27d5YIEAAAA6BHeSjLh80qA3vICoKQ8Vt1+Zzx+1JMCTyBPUWPt9rMWNK+obGvZ4XIEAAAA6DHa/9hzvBKgF0gVl8SKm2+JH3jskVhoETDwNoUNtbtPn9OwvGJpyxYXIwAAAECP0r7zMZtku9kngZQA71ZJrLrm4/Hih35pETDQwbEzJq6rXNqyKrEIGAAAAKAn+m2SDiOUAD1YUj0slv3kIWEn0MHAqWO3VLWFZS5DAAAAgB5ra85Pk2woUAL0xAKgtDKmvvU9YSfQQf/m+g1XvDT3FRchAAAAQI/XmGTDcUqAnlYApCpi+Ze+FgeM9wkgIF/fprpNF7TOWFGdDntcggAAAAA93n9PMuFjSoAepLQ4Fctv/0I88ZknBJ5AnqLG2m1nL5i6oqqtZYcLEAAAAKBXeDPnJiVAD1FSUhKTm2+LZz32aCyYLPAE/qigoXbvqbMb3qxqa1nn8gMAAADoNfbn/DDJhv5KgB5QAAy79uZ4yUMPCzyBDk6YOWl9dTqscvEBAAAA9DohSYcPKAG6uaHVw+OlP/qpsBPoYODUcWsrli5c5sIDAAAA6JVeSTLhIiVANzYsVRWv+Kv7Yt9Jwk4gX//m+vUffWH2CpcdAAAAQK+1J+eTSTYUKgG6ofL2RcBf+locNG6UwBPI07exbtOHW2esrE6HPS47AAAAgN4sjE/SoZ8SoBvuARj+mS/Gk0Y9KfAE8hQ21O4+e8HUtdXpsN0lBwAAANDr/UvOICVAN1JakorX3PTpOOTxRwWewIEFwL4PzG1aX5Nu3eSCAwAAAOAPrwEuVAJ0lxcAxSUxGXFDPP+BBwWewIH2nzRr8urKtpZVLjYAAAAA3lYCfE8J0E3UVF0dL/nhT2KfyQJPIN/gaePWphYvWOtSAwAAAOAALUqAbqCipDSWfvu+OHDCaIEnkKdfU/26y16cs9qFBgAAAMA7eCXJhtOUAF18EfA1n7s7Dhj/jMATyFPUULvzw79+dnVNunW3Cw0AAACAd7A+SYcblQBdVFmqNN586xfjcWOeEngC+QVAY+2e81umr6lJt253mQEAAADwJ+xMMuEpJUAXVFqSilffeGs8/fGHBZ5AnsKG2j0fmNe0oqotrHeRAQAAAPAXZJJsOFoJ0IWkiktizYiPx/MeeCAWWQQM5Nt/0qzJq8uWLNjgAgMAAADgIPxLkgkVSoAupLIqiZf98Kex/0SLgIF8g6aOXZ1aPH+dywsAAACAg9SeJd2jBOgqi4CLS2Jyz32x38RRAk/ggD0Addsvf2nuqtyhvc/lBQAAAMBBas+SxiTZ0E8JcIRVpMrirZ/7RizwCSDgAH0a63Zd+vzs9gJgr4sLAAAAgHcpnaTDRUqAI6ispDQOv/Xz8ajapwSewIEFwM7zWqYvq06HrS4sAAAAAN6D3yWZcK0S4AgpLUnF6htviWc89nAsEHgCb1PYULv7A/MaV1csXbjFZQUAAADAe7Qz5xtJNvRRAhyBHQBVI66PF97/QOw7SeAJ5Nl34sxJK8uWLNjoogIAAADgfapN0uF4JcDh/gxQZXUsue8nse/E0QJPIE+/pvotZUsWvJk7oPe7pAAAAAB4n7JJJpyrBDiMKlPl8ePf+rGwE+igb1PdztLFC1a4nAAAAAA4RDbklCbZoAQ4HCpSZfGaO+4SdgLvUADUb7v4uVmv1GRa97icAAAAADiE7koyoUgJ0MnKS0pj9a2fi8eNeUrgCeTp01i3/ZyF01ZVtbXsdCkBAAAAcGiFhpwBSoBOlCouidU33RLPeuThWDhZ4An8UWFD7a4z5jasrFi6cKsLCQAAAIBO8K85RykBOlHVsOviRT+7PxZNsggYyLP/2BkTNpYvXbg+sQgYAAAAgM6xJ8mGDykBOsnV1cNjxQ9+FguEncABBk4dt626Lax2EQEAAADQqdLhG0qATlBZWhErv3mfsBPooH/z2C3FL8/7d5cQAAAAAJ0vzFICHOoCoKQsVn/+q7HfJGEnkK9fU/2WD//62RU16bDPBQQAAADAYfCbJBsGKwEOkdLiVKy57XPx1GeeFHgCeYoaa7eds3Dqyqq2ll0uHwAAAAAOk3VJOpQoAQ6RoR//VDzr4V/FwskCT+CPCqaM2XvqnIb1lW0tmxKLgAEAAAA4fLYmmXCvEuB9KikuideOuDFe8sBDFgEDB9p/wsxJm6rTYa1LBwAAAIDDbG/OrCQbCpUA70NNzfB42Q9+IuwEOjhq2vh1FUsXvubCAQAAAOAI+dskE4YoAd6jqlRFvOpb3419LQIGDjBg6th1V7w0d5mLBgAAAIAj6D+STLhWCfAelBWnYvWdd8ejx40WeAJ5+jbWbfrIr599oybTus9FAwAAAMARtDHnPiXAezD8U3fEk555QuAJ5C8CbqjdffaCqW9Wp8M2lwwAAAAAR1j7H6lOTLJhkBLgIKVKUvGmj386fvCxRwWewIEFwL4PzG1aX50Om1wwAAAAAHQRbUk6fEQJcDAFQHFJvHrEDfG8Bx8UeAL5BcCUMftOmjV5VWVbyyoXCwAAAABdyO+STLhOCXAQqmuGxYt/+OPYZ7LAE8h39Izxq1KLF6x0qQAAAADQxezI+WaSDUVKgD+jorQ8pr79vTh4vEXAQL5+TfXrL39p7nIXCgAAAABdVF2SDscrAf6MEZ+7Ow4a94zAE8hT2FC78yO/fnZFTaZ1t8sEAAAAgC4qk2TCeUqAd1Bakoq3fvLOeGztUwJP4MACYO95LdNX16TDdhcJAAAAAF1Y+1csrkqyQQlwYAFwzQ23xlOefFTgCRxYAOw+c17T61Vt4S2XCAAAAADdwK1JNhQqAf4gVVwSa0bcEM958IFYaBEw8DYFDWP2njxr8vKyJQvXuTwAAAAA6B7Cwzn9lQB/UFkzLH7sBz+OAyZYBAzkO2ra+NUli+e/6eIAAAAAoBuVAEtzjlYC5JSkSmPVPd+NA8ePEngCB34GaMeVi+a1fwJor4sDAAAAgG5ka84Jvb4EaN8DcNtnvxH7TlQAAPn6NNbtvfT52W/kDst9Lg0AAAAAuuFrgKpeXQKUlZTG6z/5uThg7EiBJ3BgAbDzQ2H672rSYbvLAgAAAIBuKR0e6rUlQPsLgJobbomnPfFoLBB4Am9T1Fi7a8j8phWVbS1bXBYAAAAAdGOLemUJUFJcEquu+Xi88P4HYt9JAk/gjwqmjNl70qzJq8qWLNzgkgAAAACgm3s1yYZjel0JUF49NF5x349i/wn2AAD5Bk4dtzW1eMHGxB4AAAAAALq/DUk2XNmrSoCKsop4/dfvi30mjhZ4Ann6NtXvSS1e8HrucNzvggAAAACgB9iWpMO3e00JUF5SGq/73NeEncA7FAB1Oy59fvZvFAAAAAAA9CB7c2b0ihKgvQBIPvXZeHT9MwJP4MACYPv5Yfrr1emw08UAAAAAQA/zP5JsOLZHlwCp4pJ49Q23xHMeeSQWThZ4An9U2FC788x5jSsrl7ZsdSEAAAAA0AP9JsmE8h5dAgwddn289K/vj33tAQDy7Tv+2Umby5Ys3OwzQAAAAAD0UKuTTPhSjy0Brq4eFiu+95PYZ5ICAMh31LTxO8qXLFylAAAAAACgB9uV82SSDQU9rgSoKquKNfd8T9gJdNCvqX5b6eIFv3EJAAAAANALLEwy4fQeVQJUlJTG6i/cFftPEnYCHQqALRc/P/NVLwAAAAAA6CX+V5IJV/aYEqC0OBVHfOqOeMropwWeQJ6ixtpt57VMW16dDrsd/gAAAAD0Eq/n3NxjSoBrrr8lnverX8WCyQJP4I8KpozZe/rcxo0VS1u2eQUAAAAAQC/Svhfg3iQbirp1CVCSc/3VN8RLf/ZALLIIGMgvAOJJMydvrljasl4BAAAAAEAvND7JhhO7bQnQXgBcXT0iXv6Dnwg8gQ6OmT7hrfKlC1912AMAAADQS6WTdDi/25YAVeVV8apv/lXsaxEwcIABzWM3Fr88b5mDHgAAAIBebEWSCcXdsgQoK07Fq+/8Wjx2rE8AAfn6NtZtuui5ma875AEAAADo5fbk3JhkQ2G3KwE+/ok74qnPPCXwBPL3ADTU7j5n4bS3qtNhp0MeAAAAAFp/lqRD/25TArTvAfjktbfEsx59+PdLP4WewH8pbKjd/4F5Tesr21o2O9wBAAAAICcd5uQc3S1KgFRxSbxu2I3x3IceEngCB74A2HfyrCmrKttaVjncAQAAAOC/hH/LObHLlwDtLwBqaobHi37w49hnssATyHfcsxPXlC5eoAAAAAAAgI4+1OVLgMryqlh+z3fiUeMtAgby9Wuqf+uqRfNWOMwBAAAA4B1fA9zW5UuA6z7/9Xhc3TMCT+DAPQA7L/r1zLXJf246d6ADAAAAwIHS4eEuXQLcdt1t8dgxTwk8gQMLgHhey/RV1emw02EOAAAAAH/yJcBzXbIEaF8EfPO1t8QTRz4m8AQOLAD2DpnftKwqHTY4xAEAAADgz1qfZEO/LlUClBSXxOrh18dz7v95LJxkDwCQXwCcOnvKqvKlC9c7wAEAAADgL9qUZEJxlykBSnKqaobFj973wzhgggIAyLP/mOkT3ixZPH+NwxsAAAAADsr2JBPu6TIlQGlZRay++9549FiLgIF8RY11O65aNG9d7uDa6/AGAAAAgIOyO6euy5QAn7ztK3HQ2JECT+DAzwDtuOT5Wa/lDqx9Dm4AAAAAOGj7c9qOeAlQWpKKt91wRyyaOErgCRzwAqB29wVhxr/VpMNOhzYAAAAAvGv/nGTDxUesBGhfBDz0+k/EUx9/WOAJHFgA7Pzg/OZXq9paNjusAQAAAOA9WZakw41HpARIFZfE6uHXxwt/fn/sM0ngCfxRQUPtnpNnTV5RvmThWw5qAAAAAHjP2vO1vzoiJUBV9dWx+Ds/iAPH+wwQkG/wtPFbSl6evyGxBwAAAAAA3o89OfVJNvQ9rCVARWlFHP6Vb8UB454ReAJ5+jbWbS1+ef4bCgAAAAAAOCRCkg2nHbYSoH0R8E13fD0WTB4t8AQO2ANQt+tjL8z+P8l/bi53QAMAAADA+/cPSTqUH5YSoH0PwPCbPh0Hjx0p8ATy9Gms23ZBmPHvNemw28EMAAAAAIfMiiQTbu30EqC9AKi5/hPxrMceFXgCeQobaneeOa/p9cq2lq0OZQAAAAA4pHbm3JtkQ2GnlgBDh10fL/npz2PfST4DBPxRQUPtvpNnTd5UtmTBpsQeAAAAAADoDE8m2XB0p5UAQyuHxpJ774v9JowSegJvt//o6eM3pBYveDOxBwAAAAAAOktrkg5ndUoJ8NSIr8ear38nFloEDBygf3P9jrLFC3+nAAAAAACATvX3SSZc0iklwL33/DIOGO8FAJCvb1P95stenP2KAxgAAAAAOt26nMpOKQFOGlcr8ATyFDXWbjs/TH+jJh32OoABAAAA4LD4dOcsBxZ4Am9T2FC798x5TW9VLm3Z5eAFAAAAgMPmwSQdBigBgE5TMGXM3pNmTV5bvmThhsQeAAAAAAA4fNKhMedoJQDQaY6ZMWFj+ZKFKxQAAAAAAHC4hX/KOUkJAHSKgVPHvZVaPH+ZwxYAAAAAjogdOUOUAMAh16exbsulL8x63UELAAAAAEdQNpQrAYBDqqihdve5LdPWVqfDPgctAAAAABzRTwLdpwQADt0i4IbaPWfOa1pV2day1QELAAAAAEe8BJisBAAOTQEwZcz+U2ZPWVOxtGVdYhEwAAAAAHQFf6sEAA5JAXD8sxPfLFuyYJWDFQAAAAC6jE1JNgxSAgDvy4DmsRuuWjRvpUMVAAAAALqUrUkmFCsBgPe+CLixbtfFz81c40AFAAAAgC5nR5IOdygBgPeksKF213kt05fXpMMuByoAAAAAdDm7k0x4UgkAvPs9AA21+z44v3l5VVvY7DAFAAAAgC5pf87LSTYUKAGAd/MCYM9pcxpWVCxd+JaDFAAAAAC6tL9PsuF4JQBwsPYdN2PCmtTi+WsdoAAAAADQ5f02yYSUEgA4KAOax26/4qW56x2eAAAAANAtrEoy4XNKAOBgPgO049LnZ7+ROzj2OjwBAAAAoFto3+n5EyUA8BcXAV8QZrxSk27d5eAEAAAAgG6jfTnwlEO3HFhYCj3xBcCusxdMfa0qHbY5NAEAAACg23k+yYQzlADAO70A2HPK7Cmrypcu3OSwBAAAAIBu6X8m6XC5EgA40P5jZ0zYUvzyPAUAAAAAAHRfv0kyYYQSAMjTv3nslisXzVuVOyT2OSgBAAAAoNt6M+cOJQCQtwj4shfn/DZ3OOx1SAIAAABAt9b+R773HZrlwMJT6PaKGut2fPjXM35b4wUAAAAAAPQUtUk2HKcEgF6usKF255D5TW9UtbXscDACAAAAQI8xN8mEM5UA0Ms/AXTyrMkbSpcs2OZQBAAAAIAe5b8nmfARJQD0XvuPmTFhQ8nL89clPgMEAAAAAD3N/00y4SolAPRS/ZrqdxYvmv9qYhEwAAAAAPREe3KuTbJBCQC9TZ/Guu1XLpr7WwchAAAAAPRodyfZ0FcJAL1IUUPt9vPD9N/VZFr3OwQBAAAAoEd7PMmEQUoA6CUKG2p3njmv6c3KtpbdDkAAAAAA6OHSYV7OcUoA6AUKpozZe/KsKW+WLVm4IfEKAAAAAAB6gfC/ck5WAkAvcPT0CRtKFy94I/fj3+fwAwAAAIBeof0Pgs9UAkAPN2jauA2li+f/h0MPAAAAAHqdK5UA0IP1aazb+rEXZ7/qsAMAAACAXvlJoK8qAaDnFgA7zm2ZtspBBwAAAAC9VDo8rASAnrgIuKF295D5zSuq2lq2OewAAAAAoNe+BGhRAkAPdMrsKesqli5cn/uh73fQAQAAAECv9S9KAOhJLwCmjNl34sxJayqWtqx2wAEAAABAr7c1yYaBSgDoIQZPG7fhykVzlzvcAAAAAICcHUkmVCgBoAfo21S37aMvzF7jYAMAAAAA/mBXkg53KAGgmytsqN11fpi+LPej3uNgAwAAAAD+YE+SCQ8qAaCb++D85hVVbWGLQw0AAAAAeJt9OVOVANBdFwE31O49Y17j8qq2lo0ONAAAAADgHfxdkg2FSgDodgXAmH3Hz5y4JrV4/loHGQAAAADwJ/xjkg0nKQGgmzlq+vhNV7w09y2HGAAAAADwZ/w2yYQrlADQjRQ11O742ItzXk8sAgYAAAAA/rzXk3S4XgkA3ciFrTNezf14dznAAAAAAIC/YH2SCd9UAkA3UNhQu+fclmm/q06HHQ4vAAAAAOAgbEky4X4lAHSDAuDUOVNWlC9duNnBBQAAAAAcpH05k5QA0IUVNIzZd8LMSW8Vvzx/i0MLAAAAAHiX5ifZcIwSALqogVPHbbpy0dxVuR/rXgcWAAAAAPAutSXZcK4SALrmK4D9l78099XcD3W3wwoAAAAAeA/+PkmHlBIAut4egN0XPz/rN3/4bpfDCgAAAAB4L15JMuEGJQB0IUUNtbs/OL/51ap02OWQAgAAAADeh7VJJtypBICu8wJgz6lzpqwrW7JwhwMKAAAAAHifduZ8RwkAXcO+456duL5k8fx1PgMEAAAAABwijyXZMFAJAEfYgOaxO65aNG957ke5x8EEAAAAABwiE5JsOEEJAEdQn8a6ncUvz/93LwAAAAAAgENsSZIOFygB4EgtAm6s23lB64zfOowAAAAAgE7wd0k6fEwJAEekAKjdNWR+05tV6bDXYQQAAAAAdIJlSSZUKAHgMCuYMmbvKbOnvFm+dOGm3A9xv8MIAAAAAOgE23KuUQLAYXbsjImbUosXvJn7AXoFAAAAAAB0pjuTbChSAsBhMnja+PYC4HUvAAAAAACAw+DnSTYMVALAYdCvqX7bx16c/YqDBwAAAAA4LNKhKec4JQB0sj6NdTvOD9NXO3gAAAAAgMMnvJCkw0lKAOjMRcANtbuHzG9eUZ0O2x06AAAAAMBhLAH+Ied0JQB0olNmT1lbvnThW4k9AAAAAADA4bU25ywlAHSO/SfMnLSmbMnCNxUAAAAAAMAR0J5Lnq8EgE4oAI6aNn7dlYvmLnfQAAAAAABH0HAlABxi/ZvrN370hVkrHDAAAAAAwJEV7lICwCFU2FC764LWGb/L/cB2O2AAAAAAgCMqHX6lBIBD6IPzm1+vToctDhgAAAAAoAuUABOUAHAIFEwZs//0OQ3LKtta3nK4AAAAAABd5HNAWSUAvN8CoGHM3uNnTlyZWjx/nUMFAAAAAOhCfqMEgPdn/9HTx6+94qW5ax0oAAAAAEAXszPJhr5KAHiP+jbVbf/Yi7NX5n5MexwoAAAAAEAXsyvJhnOVAPAeXfTrmSt//0NymAAAAAAAXbMEuEoJAO9hEfDZC6b+W3U67HCQAAAAAABd1J4kHb6iBIB3obChds/pcxvfqFjass0hAgAAAAB0YXuTdPi+EgAO9gVAQ+2eE2dOejO1eP5mBwgAAAAA0MXtSzJhihIADs7+wdPGb7py0dw1v2/QHCAAAAAAQNe2PycoAeAg9Gms23v5i3NX/f47Wg4PAAAAAKB7+DslABzEIuCLn5v5fxQAAAAAAEA3889JNpygBIA/vQh499kLpv5HTTr4BBAAAAAA0N38NsmGjygB4J0LgF2nz21YWbF04Q6HBQAAAADQDf0uyYRSJQB0/ATQvhNmTlqfWjz/reT3W7QdGAAAAABAt7MySYdblABwgMHTxu24atG8tbkfic8AAQAAAADd1dokE76sBIC36dNYt+vyl+b+mwIAAAAAAOjmNieZ8FMlAPxBUWPtrouem/lbhwMAAAAA0AO07zt9SgkA7QVAQ+2OsxY0v16TDnYAAAAAAAA9xbNKACwCnjJm72lzGlZXLF242aEAAAAAAPQgC5JsOEoJQK92/LOTNqcWL9iQ+0F4BQAAAAAA9CSLk2w4UwlArzVo2riNxYvmLVMAAAAAAAA9UDbJhg8pAeiV+jeP3XrZ/9/e/f1WeZABHA8MNsYGOEBXNx2Cm47OwRZg6ZBx3nhj1JgYo/FmcRfGC6+8Mt6YXWqiF3KgtGs5/UHpoael7duyQoFyzokXxsQrdXOb22Bs5Ueh0BVaaGl7im9jTDQsY2OFnr7nc/H5C97nORfnm/d9DmVO+SEAAAAAAGLqH0E2fEEEoPQOAdclr67vbv7AjwAAAAAAEGP/CrLht0UASusQcCo5+diBhtOJXNeYHwEAAAAAIMYGglz4oghASSnLpC59s6/zih8AAAAAACDmhiM/FwEoGQ81vzJQcbT9fDT4034AAAAAAICYK0R+LQJQCqaXNVVd2tzbds7iAwAAAAAl5OUgHy4UAYi1JQ2Vwxt6WgQAAAAAAKDUVAX58CERgDgfAp5Y393cHw37hIUHAAAAAErMniAfrhYBiK01BxoHEtlwzLIDAAAAACXoQJANHxMBiKWyTOrUtr7OYYsOAAAAAJSoviAbfl0EIF6fANqzo7AyXXOu4mj7kCUHAAAAAErYn4Js+JQIQKwCwPKmqoubelsvWXAAAAAAoMSdDHLhNhGA2LivYdfVDT0tZ6PhnrTgAAAAAIAIIAIQI+Xd6ZkAMG65AQAAAAC6RiLfEQGIhTXtDW8lsgIAAAAAAMD/+IEIwPy+A5BKFsoyqVPbjndetdAAAAAAAP/np0E+vEcEYJ4GgB2Tq9I1AxVH20csMwAAAADATX4T5MOlIgDz0fSDTVXDm3pbB6NBnrLMAAAAAAA3+W2QCx8UAZh37q3fNbGhp+V8NMQTFhkAAAAA4CM1BNnwIRGAeeepg+k3BQAAAAAAgI+RDTORVSIA88bCVHJqzYHG13wCCAAAAADgVsJ8pEwEYL4EgIlH2+ref+F453XLCwAAAABwywjweuTLIgBFb8GeHYVV6ZqhiqPtw9HwTlteAAAAAIBbeivIhY+JABS9ZU3VVzf1tg1FQ1uwuAAAAAAAn8iVyFdFAIravfW7xp45lDkZOAQMAAAAAPBpfU0EoKjvADz96v63AoeAAQAAAABuR7kIQLEGgPF1nXvftaQAAAAAALcpH/5QBKAYDwFPlWVSF7Yd7xy1qAAAAAAAtx0BXhQBKLYAcGNVuna44mj7zNGKaYsKAAAAAHDbEeBnIgBF5cG9VR9u7m07E7gDAAAAAADwGYW/EwEoGksaKkeeOZR5TwAAAAAAAJgF2TApAlAUFtXtvPb0q/tPWkwAAAAAgFmLALUiAHN/ByCVnFzT3nA2GspxiwkAAAAAMFvCvAjAXAeAG2WZ1OC2453XLCQAAAAAwKxGgL+IAMyplemacxXH2gejgZy2kAAAAAAAs+pvIgBzZXpZU9XFzb1tM58BKlhGAAAAAIBZNyYCMCeWNlYOP3s4c8YSAgAAAADcMZMiAHfdPank9fXdzTNvAFy3hAAAAAAAd8xUkA9XiADcNQtTyRtr2hsHouGbsIAAAAAAAHc8AmwUAbhryjKpUy8c77xs+QAAAAAA7koE2CICcFcOAa9K15yuONZ+KRq8acsHAAAAACACEAML9uworNhXfeG5I20XLR0AAAAAwF1TCHLhd0UA7qglDZWjG3paLkQDN2npAAAAAADuYgTIhr8QAbhjFtXtLDzZ3XxeAAAAAAAAEAGImbUdje8kcl3XLBsAAAAAgAhAjA4Bl2VS72473jli0QAAAAAA5sR0kAv/IAIw24eApz6/v7Z/a1/HqCUDAAAAAJjTCFAvAjCrbwAsa6oa3tTbeikasClLBgAAAAAgAhAT9zdWjj/d03JRAAAAAAAAKIYI0NUsAjArFqaSU+Xd6RPRUI1bLgAAAACAovBnEYBZsbaj8c1ENhQAAAAAAACKx99FAD7bIeBUcvLR1roT27PhpIUCAAAAABABiEsA2LOjsDJdM1hxrH04+M/3pSwVAAAAAEDxeD3Ihw+IANxOALixrKl6dFNv20wAKFgmAAAAAICi806QD58QAfjUljRUXt3Y09IfDdGERQIAAAAAKEongnxYLgLwqdyTSk6u725+O5Htum6JAAAAAABEAOJzCHji8XDv25YHAAAAAKDonQzy4UYRgE96B2Dq4ZY957Znw1HLAwAAAABQ9M4G2fD7IgCf6BDwynTNhxVH20csDgAAAADAvDAQZMMfiQDc0rKmqqHNvW3noqGZsjgAAAAAACIAMbGkofLKhp6W9xO5rklLAwAAAAAgAhATi+t3XvvGq+n3o2GZtjAAAAAAAPPK+SAb/kQE4CMtTCWn1rY3nrEoAAAAAADz0nCQC38pAnDzIeBUcrIsk7qwPRuOWRQAAAAAgHlpNMiFL4sA3GR1unbg+WMdFwOfAQIAAAAAEAGIj+X7qge3HGkbiAakYEkAAAAAAEQA4mF6aePuS88ezvR7AwAAAAAAQAQgRhbX7xp/srv5vMUAAAAAAIiFsSAX/l4EYOYQ8MS6jr0zAeC6xQAAAAAAiI2MCMCNR1rrPtieDS9bCAAAAAAAEYAYWb2/9vTzxzqGLAMAAAAAgAhAjA4Br9hXffa5IwcGA4eAAQAAAABEAOJjaePukQ09Ld4AAAAAAACIr7YgHy4SAUrM4vpd19Z3N8+8ATBpCQAAAAAAYqs3yIcPiwAl5vHOpvcSua5RCwAAAAAAEGvZIB9+RQQoIY+0pk5sz4YCAAAAAACACEBcLNizo7B6f+3JrX0dIwYfAAAAAEAEID4BYHp5U/XQ5t42bwAAAAAAAIgAxMj00sbdIxt6WoaiBz5l6AEAAAAARABiYlHdzonyg+kPErmuMQMPAAAAACACECNPhE3vJLLhNcMOAAAAACAC+OM8RoeAv9iaeiORDScNOgAAAABAScoH+XCdCBDDALCy+ZWBrX0d1w05AAAAAEDJei3IhgkRIGYBYPm+6uHNR9ouRw+4YMgBAAAAAEQAESAm7m/cPbLxUOZM9HC9BQAAAAAAIAKIAHGxuH7nePnB9KlEtmvccAMAAAAAiAAiQIw+A/R42PRPh4ABAAAAABAB4hQAUsnCF1pq+w00AAAAAAAiQLzeAJhala4Z2trXMWqgAQAAAAAQAWJk+b7qoS1HDgxED3PKQAMAAAAAIALExNLG3ZefOZQ5k8h1TRhmAAAAAABEgJhYXL9ztPxg+kTCGwAAAAAAAIgA8bEwlZxa29F42gADAAAAAPAx3giy4bdEgPl1CHjy4ZbUYPTwxgwwAAAAAAAfoz/IhT8WAeaRVenaga19HYOGFwAAAACAWzgf5MKXRIB5YsW+6sEtR9qih9ZVMLwAAAAAAIgAMXF/Y+XFjYdaTicEAAAAAAAARID4uLd+17Unu5svGFgAAAAAAESAGFmYSk6s69g7cwPguoEFAAAAAEAEiJFHWuv6E9muYcMKAAAAAIAIECOr99ec3nqs45JBBQAAAABABIiRZU1Vp7ccaZv5DNC0QQUAAAAAQASIiQf27r7y7OHMZQMKAAAAAIAIECP3NewaKz+YHooezoQBBQAAAABABIiJBank9BPhvrOJbNeI4QQAAAAAQASIkS+11fdvz4ZXDSYAAAAAAHcgAvzxJebG55qrf7W1r70veiB/BQAAAACAWXA0yIbf+28C+DcpfXzW9PlmBAAAACV0RVh0ZGF0ZTpjcmVhdGUAMjAyMS0wMS0yMlQxODozMzowNCswMDowMN5c/MQAAAAldEVYdGRhdGU6bW9kaWZ5ADIwMjEtMDEtMjJUMTg6MzM6MDQrMDA6MDCvAUR4AAAAAElFTkSuQmCC;" vertex="1" parent="1">
          <mxGeometry x="304.99" y="428.5" width="30.02" height="40" as="geometry" />
        </mxCell>
        <mxCell id="uNIfuLAKSK_sfVtjGSBY-736" value="" style="strokeColor=#dddddd;shadow=1;strokeWidth=1;rounded=1;absoluteArcSize=1;arcSize=2;" vertex="1" parent="1">
          <mxGeometry x="530" y="290" width="140" height="60" as="geometry" />
        </mxCell>
        <mxCell id="uNIfuLAKSK_sfVtjGSBY-737" value="&lt;font color=&quot;#000000&quot;&gt;Engine&lt;/font&gt;&lt;br&gt;Python app" style="editableCssRules=.*;html=1;fontColor=#999999;shape=image;verticalLabelPosition=middle;labelBackgroundColor=#ffffff;verticalAlign=middle;labelPosition=right;align=left;spacingLeft=20;part=1;points=[];imageAspect=0;image=data:image/svg+xml,PHN2ZyB4bWxucz0iaHR0cDovL3d3dy53My5vcmcvMjAwMC9zdmciIHhtbG5zOnY9Imh0dHBzOi8vdmVjdGEuaW8vbmFubyIgd2lkdGg9IjMyOS45MjU5OTcyMzE3OTM4IiBoZWlnaHQ9IjM3OC4yODQ5OTAzMTEyNzg4IiB2aWV3Qm94PSIwIDAgODcuMjkyOTk5MjY3NTc4MTIgMTAwLjA4Nzk5NzQzNjUyMzQ0Ij4mI3hhOzxzdHlsZSB0eXBlPSJ0ZXh0L2NzcyI+JiN4YTsJLnN0MHtmaWxsOiNhZWNiZmE7fSYjeGE7CS5zdDF7ZmlsbDojNjY5ZGY2O30mI3hhOwkuc3Qye2ZpbGw6IzQyODVmNDt9JiN4YTs8L3N0eWxlPiYjeGE7CTxwYXRoIGNsYXNzPSJzdDAiIGQ9Ik00My43NTEgMEwwIDI1LjQ2NXYyLjU4OCA0Ni45Mmw0My43NTIgMjUuMTE1IDQzLjU0MS0yNS4xMjFWMjUuNDczem0yLjQzOCAxMS44NTNsMzIuMTAzIDE4Ljc4MlY2OS43N0w0My43MzkgODkuNzA1IDkgNjkuNzYyVjMwLjY0MWwzMi4xOS0xOC43MzZ2MTQuMTU0TDI0LjUwMyAzNi4xNTNsMTkuMTcyIDExLjUwMiAxOC44ODYtMTEuNTU0LTE2LjM3Mi0xMC4wMjR6Ii8+JiN4YTsJPHBhdGggY2xhc3M9InN0MSIgZD0iTTIyLjAyNSA0MC40OTZsLjE2NiAxOS4xNDMtMTMuMjQ3IDcuMzN2Mi43NDJsMi42MzcgMS41MTQgMTIuNjQ4LTYuOTk5IDE2Ljk2MSAxMC42MDJWNTEuOTkzeiIvPiYjeGE7CTxwYXRoIGNsYXNzPSJzdDIiIGQ9Ik02NS4zNDQgNDAuMjZMNDYuMTg5IDUxLjk3OXYyMi44NDdsMTYuODk5LTEwLjU3NiAxMi41MzkgNi45NzQgMi42MDktMS41MDV2LTIuNzY1bC0xMi43ODQtNy4xMTJ6Ii8+JiN4YTs8L3N2Zz4=;" vertex="1" parent="uNIfuLAKSK_sfVtjGSBY-736">
          <mxGeometry width="26" height="30" relative="1" as="geometry">
            <mxPoint x="17" y="15" as="offset" />
          </mxGeometry>
        </mxCell>
        <mxCell id="uNIfuLAKSK_sfVtjGSBY-738" value="" style="strokeColor=#dddddd;shadow=1;strokeWidth=1;rounded=1;absoluteArcSize=1;arcSize=2;" vertex="1" parent="1">
          <mxGeometry x="690" y="290" width="160" height="60" as="geometry" />
        </mxCell>
        <mxCell id="uNIfuLAKSK_sfVtjGSBY-739" value="&lt;font color=&quot;#000000&quot;&gt;Redis&lt;/font&gt;&lt;br&gt;DB &amp;amp; Message&lt;br&gt;Broker" style="editableCssRules=.*;html=1;fontColor=#999999;shape=image;verticalLabelPosition=middle;labelBackgroundColor=#ffffff;verticalAlign=middle;labelPosition=right;align=left;spacingLeft=20;part=1;points=[];imageAspect=0;image=data:image/svg+xml,PHN2ZyB4bWxucz0iaHR0cDovL3d3dy53My5vcmcvMjAwMC9zdmciIHhtbG5zOnY9Imh0dHBzOi8vdmVjdGEuaW8vbmFubyIgd2lkdGg9IjE5Ljk1MDAwMDc2MjkzOTQ1MyIgaGVpZ2h0PSIxMiIgdmlld0JveD0iMCAwIDE5Ljk1MDAwMDc2MjkzOTQ1MyAxMiI+JiN4YTsJPHN0eWxlIHR5cGU9InRleHQvY3NzIj4mI3hhOwkuc3Qwe2ZpbGw6IzQyODVmNH0mI3hhOwkuc3Qxe2ZpbGw6I2FlY2JmYX0mI3hhOwk8L3N0eWxlPiYjeGE7CTxwYXRoIGNsYXNzPSJzdDAiIGQ9Ik02IDZsMSAyaDZsMS0yLTEtMkg3eiIgZmlsbD0iIzQyODVmNCIvPiYjeGE7CTxwYXRoIGNsYXNzPSJzdDEiIGQ9Ik03LjUxIDRIN0w2IDZoOGwtMS0yeiIgZmlsbD0iI2FlY2JmYSIvPiYjeGE7CTxwYXRoIGNsYXNzPSJzdDAiIGQ9Ik0xNi45NyA2bDEuNS0yLjI1TDE2IDBoLTN6IiBmaWxsPSIjNDI4NWY0Ii8+JiN4YTsJPHBhdGggY2xhc3M9InN0MSIgZD0iTTE2Ljk3IDZoMEwxMyAxMmgzbDMuOTUtNi0xLjQ4LTIuMjV6IiBmaWxsPSIjYWVjYmZhIi8+JiN4YTsJPHBhdGggY2xhc3M9InN0MCIgZD0iTTIuOTggNmwtMS41IDIuMjVMMy45NSAxMmgzeiIgZmlsbD0iIzQyODVmNCIvPiYjeGE7CTxwYXRoIGNsYXNzPSJzdDEiIGQ9Ik0yLjk4IDZoMGwzLjk3LTZoLTNMMCA2bDEuNDggMi4yNXoiIGZpbGw9IiNhZWNiZmEiLz4mI3hhOzwvc3ZnPg==;" vertex="1" parent="uNIfuLAKSK_sfVtjGSBY-738">
          <mxGeometry width="30" height="18" relative="1" as="geometry">
            <mxPoint x="15" y="21" as="offset" />
          </mxGeometry>
        </mxCell>
        <mxCell id="uNIfuLAKSK_sfVtjGSBY-740" value="" style="strokeColor=#dddddd;shadow=1;strokeWidth=1;rounded=1;absoluteArcSize=1;arcSize=2;" vertex="1" parent="1">
          <mxGeometry x="597.5" y="160" width="175" height="60" as="geometry" />
        </mxCell>
        <mxCell id="uNIfuLAKSK_sfVtjGSBY-741" value="&lt;font color=&quot;#000000&quot;&gt;Suricata&lt;/font&gt;&lt;br&gt;intrusion detection&lt;br&gt;system" style="editableCssRules=.*;html=1;fontColor=#999999;shape=image;verticalLabelPosition=middle;labelBackgroundColor=#ffffff;verticalAlign=middle;labelPosition=right;align=left;spacingLeft=20;part=1;points=[];imageAspect=0;image=data:image/svg+xml,PHN2ZyB4bWxucz0iaHR0cDovL3d3dy53My5vcmcvMjAwMC9zdmciIHhtbG5zOnY9Imh0dHBzOi8vdmVjdGEuaW8vbmFubyIgd2lkdGg9IjE3LjE4MDAwMDMwNTE3NTc4IiBoZWlnaHQ9IjIwIiB2aWV3Qm94PSIwIDAgMTcuMTgwMDAwMzA1MTc1NzggMjAiPiYjeGE7CTxzdHlsZSB0eXBlPSJ0ZXh0L2NzcyI+JiN4YTsJLnN0MHtmaWxsOiM0Mjg1ZjQ7fSYjeGE7CS5zdDF7ZmlsbDojNjY5ZGY2O30mI3hhOwk8L3N0eWxlPiYjeGE7CTxwYXRoIGNsYXNzPSJzdDAiIGQ9Ik05LjkgNC44NWE1LjIzIDUuMjMgMCAwIDEgMy43NSAzLjc1aDMuNTNWMy4yNEw5LjkgMHpNMy41MiA4LjYxYTUuMjIgNS4yMiAwIDAgMSAzLjc1LTMuNzVWMEwwIDMuMjR2NS4zN3pNNy4yOCAxNWE1LjIzIDUuMjMgMCAwIDEtMy43NS0zLjc1SC4yMkExMiAxMiAwIDAgMCA3LjI4IDIwem02LjM4LTMuNzVBNS4yMyA1LjIzIDAgMCAxIDkuOTEgMTV2NWExMiAxMiAwIDAgMCA3LjA1LTguNzV6Ii8+JiN4YTsJPGNpcmNsZSBjbGFzcz0ic3QxIiBjeD0iOC41OSIgY3k9IjkuOTIiIHI9IjIuNjMiLz4mI3hhOzwvc3ZnPg==;" vertex="1" parent="uNIfuLAKSK_sfVtjGSBY-740">
          <mxGeometry width="26" height="30" relative="1" as="geometry">
            <mxPoint x="17" y="15" as="offset" />
          </mxGeometry>
        </mxCell>
        <mxCell id="uNIfuLAKSK_sfVtjGSBY-752" value="" style="strokeColor=#dddddd;shadow=1;strokeWidth=1;rounded=1;absoluteArcSize=1;arcSize=2;" vertex="1" parent="1">
          <mxGeometry x="520" y="393" width="160" height="60" as="geometry" />
        </mxCell>
        <mxCell id="uNIfuLAKSK_sfVtjGSBY-753" value="&lt;font style=&quot;border-color: var(--border-color); background-color: rgb(251, 251, 251);&quot; color=&quot;#000000&quot;&gt;Metricbeat&lt;/font&gt;&lt;br style=&quot;border-color: var(--border-color); background-color: rgb(251, 251, 251);&quot;&gt;Data shipper" style="editableCssRules=.*;html=1;fontColor=#999999;shape=image;verticalLabelPosition=middle;labelBackgroundColor=#ffffff;verticalAlign=middle;labelPosition=right;align=left;spacingLeft=20;part=1;points=[];imageAspect=0;image=data:image/svg+xml,PHN2ZyB4bWxucz0iaHR0cDovL3d3dy53My5vcmcvMjAwMC9zdmciIHhtbG5zOnY9Imh0dHBzOi8vdmVjdGEuaW8vbmFubyIgd2lkdGg9IjIwLjAwMTA0NTIyNzA1MDc4IiBoZWlnaHQ9IjIwLjAwMTA0NTIyNzA1MDc4IiBmaWxsLXJ1bGU9ImV2ZW5vZGQiIHZpZXdCb3g9IjAgMCAyMC4wMDEwNDUyMjcwNTA3OCAyMC4wMDEwNDUyMjcwNTA3OCI+JiN4YTsJPHN0eWxlIHR5cGU9InRleHQvY3NzIj4mI3hhOwkuc3Qwe2ZpbGw6I2FlY2JmYTt9JiN4YTsJLnN0MXtmaWxsOiM2NjlkZjY7fSYjeGE7CS5zdDJ7ZmlsbDojNDI4NWY0O30mI3hhOwk8L3N0eWxlPiYjeGE7CTxwYXRoIGNsYXNzPSJzdDAiIGQ9Ik00LjczIDguODN2Mi42M2E0LjkxIDQuOTEgMCAwIDAgMS43MSAxLjc0VjguODN6Ii8+JiN4YTsJPHBhdGggY2xhc3M9InN0MSIgZD0iTTcuODkgNi40MXY3LjUzQTcuNjIgNy42MiAwIDAgMCA5IDE0YTggOCAwIDAgMCAxIDBWNi40MXoiLz4mI3hhOwk8cGF0aCBjbGFzcz0ic3QwIiBkPSJNMTEuNjQgOS44NnYzLjI5YTUgNSAwIDAgMCAxLjctMS44MlY5Ljg2eiIvPiYjeGE7CTxwYXRoIGNsYXNzPSJzdDIiIGQ9Ik0xNS43NCAxNC4zMmwtMS40MiAxLjQyYS40Mi40MiAwIDAgMCAwIC42bDMuNTQgMy41NGEuNDIuNDIgMCAwIDAgLjU5IDBsMS40My0xLjQzYS40Mi40MiAwIDAgMCAwLS41OWwtMy41NC0zLjU0YS40Mi40MiAwIDAgMC0uNiAwIi8+JiN4YTsJPHBhdGggY2xhc3M9InN0MSIgZD0iTTkgMGE5IDkgMCAxIDAgMCAxOEE5IDkgMCAxIDAgOSAwbTAgMTUuNjlhNi42OCA2LjY4IDAgMCAxIC4wMDctMTMuMzYgNi42OCA2LjY4IDAgMCAxIDQuNzI3IDExLjQwM0E2LjY4IDYuNjggMCAwIDEgOSAxNS42OSIvPiYjeGE7PC9zdmc+;" vertex="1" parent="uNIfuLAKSK_sfVtjGSBY-752">
          <mxGeometry width="30" height="30" relative="1" as="geometry">
            <mxPoint x="15" y="15" as="offset" />
          </mxGeometry>
        </mxCell>
      </root>
    </mxGraphModel>
  </diagram>
</mxfile>
